<?xml version="1.0" encoding="UTF-8"?>
<svg xmlns="http://www.w3.org/2000/svg" viewBox="0 0 259.19 136.65">
  <defs>
    <style>
      .cls-1 {
        fill: #664124;
      }

      .cls-2 {
        fill: #6f5d3b;
      }

      .cls-3, .cls-4, .cls-5, .cls-6, .cls-7, .cls-8, .cls-9, .cls-10, .cls-11 {
        mix-blend-mode: multiply;
      }

      .cls-3, .cls-4, .cls-12, .cls-7 {
        fill: #8c6742;
      }

      .cls-3, .cls-13 {
        opacity: .42;
      }

      .cls-14, .cls-8 {
        fill: #b5d338;
      }

      .cls-15 {
        fill: #5f372a;
      }

      .cls-16 {
        fill: #62493e;
      }

      .cls-4 {
        opacity: .54;
      }

      .cls-17 {
        fill: #ffebb8;
      }

      .cls-18 {
        fill: #fff;
      }

      .cls-5 {
        opacity: .59;
      }

      .cls-5, .cls-19 {
        fill: #8a734a;
      }

      .cls-20 {
        fill: #834c38;
        opacity: .28;
      }

      .cls-6 {
        opacity: .47;
      }

      .cls-6, .cls-21 {
        fill: #d4c59b;
      }

      .cls-22 {
        isolation: isolate;
      }

      .cls-23 {
        fill: #56585a;
      }

      .cls-24 {
        fill: #3c3e40;
      }

      .cls-9 {
        opacity: .57;
      }

      .cls-25, .cls-10 {
        fill: #72603d;
      }

      .cls-26 {
        fill: #5da33c;
      }

      .cls-27 {
        fill: #312017;
      }

      .cls-10 {
        opacity: .45;
      }

      .cls-11 {
        fill: #77787b;
        opacity: .48;
      }
    </style>
  </defs>
  <g class="cls-22">
    <g id="Layer_2" data-name="Layer 2">
      <g id="Layer_1-2" data-name="Layer 1">
        <g>
          <g>
            <path class="cls-25" d="M37.15,93.56c-2.09-5.53-3.53-11.54-2.36-17.08,1.25-5.87,4.25-11.19,7.68-16.05,2.61-3.69,7.25-8.64,12.14-8.26,5.46.42,7.92,6.14,8.26,10.94.47,6.6-3.08,11.23-5.45,17.07-1.47,3.62-2.45,7.55-2.57,11.49.5,2.5,1.11,4.98,1.81,7.41,1.65,5.75,3.78,11.29,6.4,16.61.72,1.97,1.87,3.8,2.95,5.59.81,1.35,1.59,2.7,2.23,4.14.11.25.22.5.32.76.17,1.51-.7,2.87-1.96,3.69-.93.6-2,.93-3.07,1.23-.38.11-.78.21-1.16.14-.84-.16-1.31-1.05-1.87-1.62-.85-.84-1.66-1.72-2.47-2.6-1.61-1.76-3.16-3.58-4.64-5.45-5.17-6.5-9.77-13.5-13.25-21.06-1-2.17-2.04-4.51-2.96-6.95Z"/>
            <path class="cls-10" d="M37.15,93.56c-2.09-5.53-3.53-11.54-2.36-17.08,1.25-5.87,4.25-11.19,7.68-16.05,2.61-3.69,7.25-8.64,12.14-8.26,5.46.42,7.92,6.14,8.26,10.94.47,6.6-3.08,11.23-5.45,17.07-1.47,3.62-2.45,7.55-2.57,11.49.5,2.5,1.11,4.98,1.81,7.41,1.65,5.75,3.78,11.29,6.4,16.61.72,1.97,1.87,3.8,2.95,5.59.81,1.35,1.59,2.7,2.23,4.14.11.25.22.5.32.76.17,1.51-.7,2.87-1.96,3.69-.93.6-2,.93-3.07,1.23-.38.11-.78.21-1.16.14-.84-.16-1.31-1.05-1.87-1.62-.85-.84-1.66-1.72-2.47-2.6-1.61-1.76-3.16-3.58-4.64-5.45-5.17-6.5-9.77-13.5-13.25-21.06-1-2.17-2.04-4.51-2.96-6.95Z"/>
            <path class="cls-10" d="M60.24,109.43c-.4.12-.79.24-1.18.36-3.35,1.09-6.58,2.5-9.77,3.98-.42.19-.83.39-1.25.59,1.68,2.47,3.46,4.87,5.32,7.2,1.49,1.87,3.03,3.69,4.64,5.45.81.88,1.62,1.76,2.47,2.6.57.56,1.03,1.45,1.87,1.62.39.07.78-.03,1.16-.14,1.06-.3,2.14-.63,3.07-1.23,1.27-.82,2.14-2.18,1.96-3.69-.1-.25-.2-.51-.32-.76-.64-1.44-1.42-2.79-2.23-4.14-1.07-1.79-2.22-3.62-2.95-5.59-1.01-2.05-1.95-4.14-2.81-6.26Z"/>
            <path class="cls-10" d="M37.3,93.42c2.41.21,4.82.33,7.24.3,2.41-.03,4.82-.2,7.2-.6,1.1-.18,2.19-.42,3.26-.7-.05-.25-.11-.5-.16-.76.13-3.94,1.11-7.87,2.58-11.49,2.37-5.84,5.92-10.47,5.45-17.07-.34-4.8-2.8-10.52-8.26-10.94-4.89-.38-9.53,4.57-12.14,8.26-3.43,4.86-6.44,10.18-7.68,16.05-1.17,5.49.24,11.43,2.3,16.92.07,0,.14.01.21.02Z"/>
            <g>
              <path class="cls-21" d="M72.14,133.7c.23.29,1.17,1.46.18,1.53-.17.01-.33-.06-.49-.13-1.89-.87-3.54-2.45-4.99-3.91-.57-.57-4.13-3.71-2.93-4.55.35-.24.83-.09,1.19.12,1.21.69,2.27,1.85,3.26,2.81,1.21,1.17,2.36,2.42,3.43,3.71.11.14.22.27.34.41Z"/>
              <path class="cls-21" d="M73.4,132.28c-.48-.92-1.04-1.8-1.63-2.64-.68-.97-1.41-1.91-2.21-2.79-.64-.7-1.35-1.41-2.19-1.89-.71-.4-1.54-.6-2.21,0-.17.15-.34.48-.19.7.37.54.86.94,1.38,1.31,1.11,1.05,2.18,2.15,3.19,3.31,1.24,1.43,2.44,2.9,3.74,4.28.29.31.71-.27.73-.52.05-.59-.35-1.26-.61-1.76Z"/>
              <path class="cls-21" d="M69.62,136.15c-.95-.41-1.86-.91-2.75-1.44-1.02-.61-2-1.28-2.93-2.02-.75-.59-1.5-1.25-2.03-2.06-.45-.68-.7-1.5-.16-2.21.14-.18.45-.38.68-.24.56.34.99.8,1.4,1.29,1.13,1.04,2.29,2.03,3.52,2.96,1.51,1.14,3.06,2.24,4.53,3.44.33.27-.22.72-.47.76-.59.09-1.28-.26-1.8-.49Z"/>
            </g>
          </g>
          <g>
            <path class="cls-25" d="M112.43,75.43c-1.69,11.32-3.16,22.02-.34,33.74.58,2.42,1.49,4.73,2.2,7.11.67,2.24,1.33,4.81.7,7.13-.6,2.22-2.61,3.57-4.83,3.79-.89.09-1.78.02-2.66-.16-2.14-1.12-4.11-2.65-5.88-4.18-10.2-8.86-13.07-25.35-13.29-38.21-.15-8.46,1.1-16.94,3.71-24.99,1.6-4.92,6.3-20.56,13.35-19.71,1.26.15,2.39.89,3.3,1.78,3.82,3.7,5.53,10.69,5.67,15.88.15,5.95-1.07,11.94-1.94,17.8Z"/>
            <path class="cls-10" d="M91.74,74.1c2.21,1.47,4.44,2.91,6.75,4.22,1.16.66,2.34,1.31,3.55,1.86,1.18.54,2.4.98,3.64,1.33,1.88.53,3.81.84,5.75,1.02.3-2.35.64-4.71,1-7.11.88-5.87,2.1-11.85,1.94-17.8-.13-5.2-1.85-12.18-5.67-15.88-.91-.89-2.04-1.63-3.3-1.78-7.05-.85-11.75,14.79-13.35,19.71-1.34,4.13-2.32,8.38-2.94,12.67.87.59,1.74,1.18,2.62,1.76Z"/>
            <path class="cls-10" d="M112.1,109.17c-.58-2.39-.97-4.73-1.22-7.05-2.58-.3-5.18-.52-7.78-.62-2.65-.11-5.31-.11-7.95.03-1.59.08-3.18.23-4.76.42,1.9,8.07,5.34,15.78,11.26,20.92,1.76,1.53,3.74,3.06,5.88,4.18.88.18,1.77.25,2.66.16,2.22-.22,4.23-1.58,4.83-3.79.63-2.32-.03-4.9-.7-7.13-.72-2.38-1.62-4.69-2.2-7.11Z"/>
            <g>
              <path class="cls-21" d="M120.61,126.6c.1-.11.14-.25.02-.43-.25-.41-.76-.66-1.18-.87-.46-.23-.95-.41-1.42-.6-.88-.35-1.74-.78-2.39-1.47-.55-.58-1.01-1.25-1.59-1.8-.27-.26-.56-.5-.91-.64-.29-.12-.6-.13-.91-.08-.33.05-.64.21-.64.56,0,.41.24.81.44,1.14.17.26.35.52.54.76,1.15,1.29,2.83,2.15,4.39,2.75.88.34,2.46.89,3.65.68Z"/>
              <path class="cls-21" d="M118.47,128.5c.11-.1.14-.24.04-.43-.24-.42-.74-.69-1.15-.91-.45-.24-.93-.44-1.4-.65-.86-.38-1.71-.84-2.34-1.55-.53-.6-.97-1.28-1.53-1.86-.26-.27-.54-.52-.88-.67-.29-.13-.6-.15-.91-.11-.34.04-.65.18-.66.53-.02.41.21.82.4,1.16.16.27.33.53.52.78,1.11,1.32,2.76,2.25,4.29,2.9.87.37,2.43.98,3.63.8Z"/>
              <path class="cls-21" d="M116.65,129.36c.1-.11.13-.25,0-.43-.26-.4-.78-.64-1.21-.83-.47-.21-.96-.37-1.44-.55-.89-.32-1.76-.72-2.44-1.39-.57-.57-1.05-1.21-1.65-1.75-.28-.25-.58-.48-.93-.61-.3-.11-.61-.11-.91-.05-.33.06-.63.23-.63.58,0,.41.26.8.48,1.13.17.26.37.51.57.74,1.19,1.25,2.9,2.06,4.48,2.61.89.31,2.49.81,3.67.56Z"/>
            </g>
          </g>
          <g>
            <path class="cls-26" d="M243.86,19.61c-1.08-.56-2.39-.63-3.59-.46.96-1.04,1.75-2.26,1.94-3.63.12-.89-.13-1.81-.74-2.48-.6-.65-1.43-.93-2.3-1.01-.81-.07-1.63,0-2.44.19.31-.55.59-1.12.82-1.69.28-.72.56-1.61.35-2.38-.19-.68-.74-1.11-1.45-1-.77.12-1.43.7-1.96,1.22-.58.57-1.08,1.22-1.54,1.89-.11-1.33-.49-2.89-1.68-3.6-1.12-.67-2.29-.45-3.26.18.22-1.28.11-2.59-.9-3.56-.15-.14-.46-.04-.6.06-.32.23-.57.54-.75.88-.08-.3-.16-.6-.25-.89-.32-1.01-.76-2.08-1.58-2.79-.74-.65-1.78-.69-2.65-.25-.94.47-1.46,1.45-1.73,2.42-.34,1.19-.42,2.45-.4,3.68-.08-.14-.15-.28-.22-.42-.52-.94-1.05-1.88-1.69-2.75-.47-.65-1.03-1.38-1.75-1.77-.71-.38-1.48-.25-2.04.33-.58.61-.68,1.38-.5,2.17.22.95.72,1.85,1.25,2.66.44.68.92,1.33,1.44,1.95-1.03.17-2.03.53-2.97,1.02-.37.19-.73.41-1.09.64.06-.29.1-.58.13-.87.06-.61.1-1.3-.14-1.88-.22-.53-.69-.8-1.27-.71-.75.11-1.31.71-1.74,1.29-.58.78-1.01,1.66-1.39,2.56-.09-.29-.2-.58-.35-.85-.77-1.45-2.47-1.81-3.84-.97-1.53.94-2.42,2.85-3.04,4.47-.14.37-.27.75-.39,1.12-.03-.28-.07-.55-.11-.83-.14-1.04-.33-2.08-.63-3.09-.23-.8-.54-1.64-1.06-2.3-.46-.57-1.09-.92-1.83-.81-.79.12-1.46.67-1.83,1.36-.19.35-.32.72-.42,1.11-.44-1.81-1-3.64-1.93-5.23-.38-.66-.89-1.35-1.6-1.69-.73-.35-1.52-.19-2.18.24-2.07,1.36-1.93,4.16-1.61,6.32.17,1.12.44,2.24.82,3.32-1.25-.89-2.72-1.7-4.26-1.83-1.21-.11-2.86.58-2.84,2.01.01,1.33,1.28,2.47,2.19,3.27.11.1.23.2.35.3-1.14-.1-2.3-.02-3.37.16-2.62.45-5.35,1.61-7.15,3.62-1.37,1.53-2.38,4.07-1.07,5.94,1.16,1.66,3.47,2.18,5.36,2.35.9.08,1.8.08,2.7,0-.61.43-1.19.91-1.73,1.41-1.59,1.48-3.09,3.57-3.01,5.84.05,1.46.74,3.09,2.44,2.95,1.59-.13,3.05-1.25,4.23-2.23.24-.2.47-.4.71-.61-.05.58.03,1.16.29,1.68.49.96,1.59,1.41,2.62,1.33,1.23-.09,2.37-.7,3.37-1.39.15-.11.3-.22.45-.33-.87,1.53-1.6,3.15-2.2,4.76-.54,1.45-.98,2.94-1.19,4.48-.18,1.31-.21,2.71.22,3.97.4,1.18,1.21,2.12,2.34,2.66,1.47.69,3.28.76,4.87.5,1.52-.25,2.91-.97,3.99-2.07,1.05-1.07,1.76-2.42,2.3-3.81.99-2.56,1.39-5.28,2.02-7.94.36.86.91,1.66,1.47,2.3.99,1.12,2.42,2.16,3.99,1.72,2.81-.78,3.27-4.56,3.12-6.99-.02-.35-.06-.72-.11-1.09.37.32.76.62,1.15.9,1.29.9,2.71,1.64,4.19,2.17,1.89.68,5.36,1.34,6.2-1.23.07-.21.11-.41.12-.62.48.45.99.86,1.5,1.22,1.59,1.15,3.48,2.11,5.46,2.29,2.04.19,3.82-.87,4.6-2.78.72-1.77.64-3.97.16-5.83,1.42-.14,2.83-.51,4.14-1.02,1.9-.74,3.98-1.93,4.99-3.77.51-.94.72-2.07.39-3.1-.24-.77-.74-1.42-1.36-1.92,1.24-.27,2.59-.79,3.14-2.01.06-.13.02-.34-.11-.41Z"/>
            <g class="cls-9">
              <path class="cls-26" d="M243.86,19.61c-1.08-.56-2.39-.63-3.59-.46.96-1.04,1.75-2.26,1.94-3.63.12-.89-.13-1.81-.74-2.48-.6-.65-1.43-.93-2.3-1.01-.81-.07-1.63,0-2.44.19.31-.55.59-1.12.82-1.69.28-.72.56-1.61.35-2.38-.19-.68-.74-1.11-1.45-1-.77.12-1.43.7-1.96,1.22-.58.57-1.08,1.22-1.54,1.89-.11-1.33-.49-2.89-1.68-3.6-1.12-.67-2.29-.45-3.26.18.22-1.28.11-2.59-.9-3.56-.15-.14-.46-.04-.6.06-.32.23-.57.54-.75.88-.08-.3-.16-.6-.25-.89-.32-1.01-.76-2.08-1.58-2.79-.74-.65-1.78-.69-2.65-.25-.94.47-1.46,1.45-1.73,2.42-.34,1.19-.42,2.45-.4,3.68-.08-.14-.15-.28-.22-.42-.52-.94-1.05-1.88-1.69-2.75-.47-.65-1.03-1.38-1.75-1.77-.71-.38-1.48-.25-2.04.33-.58.61-.68,1.38-.5,2.17.22.95.72,1.85,1.25,2.66.44.68.92,1.33,1.44,1.95-1.03.17-2.03.53-2.97,1.02-.37.19-.73.41-1.09.64.06-.29.1-.58.13-.87.06-.61.1-1.3-.14-1.88-.22-.53-.69-.8-1.27-.71-.75.11-1.31.71-1.74,1.29-.58.78-1.01,1.66-1.39,2.56-.09-.29-.2-.58-.35-.85-.77-1.45-2.47-1.81-3.84-.97-1.53.94-2.42,2.85-3.04,4.47-.14.37-.27.75-.39,1.12-.03-.28-.07-.55-.11-.83-.14-1.04-.33-2.08-.63-3.09-.23-.8-.54-1.64-1.06-2.3-.46-.57-1.09-.92-1.83-.81-.79.12-1.46.67-1.83,1.36-.19.35-.32.72-.42,1.11-.44-1.81-1-3.64-1.93-5.23-.38-.66-.89-1.35-1.6-1.69-.73-.35-1.52-.19-2.18.24-2.07,1.36-1.93,4.16-1.61,6.32.17,1.12.44,2.24.82,3.32-1.25-.89-2.72-1.7-4.26-1.83-1.21-.11-2.86.58-2.84,2.01.01,1.33,1.28,2.47,2.19,3.27.11.1.23.2.35.3-1.14-.1-2.3-.02-3.37.16-2.62.45-5.35,1.61-7.15,3.62-1.37,1.53-2.38,4.07-1.07,5.94,1.16,1.66,3.47,2.18,5.36,2.35.9.08,1.8.08,2.7,0-.61.43-1.19.91-1.73,1.41-1.59,1.48-3.09,3.57-3.01,5.84.05,1.46.74,3.09,2.44,2.95,1.59-.13,3.05-1.25,4.23-2.23.24-.2.47-.4.71-.61-.05.58.03,1.16.29,1.68.49.96,1.59,1.41,2.62,1.33,1.23-.09,2.37-.7,3.37-1.39.15-.11.3-.22.45-.33-.87,1.53-1.6,3.15-2.2,4.76-.54,1.45-.98,2.94-1.19,4.48-.18,1.31-.21,2.71.22,3.97.4,1.18,1.21,2.12,2.34,2.66,1.47.69,3.28.76,4.87.5,1.52-.25,2.91-.97,3.99-2.07,1.05-1.07,1.76-2.42,2.3-3.81.99-2.56,1.39-5.28,2.02-7.94.36.86.91,1.66,1.47,2.3.99,1.12,2.42,2.16,3.99,1.72,2.81-.78,3.27-4.56,3.12-6.99-.02-.35-.06-.72-.11-1.09.37.32.76.62,1.15.9,1.29.9,2.71,1.64,4.19,2.17,1.89.68,5.36,1.34,6.2-1.23.07-.21.11-.41.12-.62.48.45.99.86,1.5,1.22,1.59,1.15,3.48,2.11,5.46,2.29,2.04.19,3.82-.87,4.6-2.78.72-1.77.64-3.97.16-5.83,1.42-.14,2.83-.51,4.14-1.02,1.9-.74,3.98-1.93,4.99-3.77.51-.94.72-2.07.39-3.1-.24-.77-.74-1.42-1.36-1.92,1.24-.27,2.59-.79,3.14-2.01.06-.13.02-.34-.11-.41ZM211.66,20.68c-.17.75-.4,1.62-1,2.15-.42.37-.96.46-1.49.32-.64-.16-1.2-.57-1.7-.98-.62-.51-1.18-1.09-1.71-1.69-.68-.77-1.3-1.6-1.94-2.41.42,1.29.67,2.66.6,4.02-.07,1.39-.49,2.8-1.47,3.82-1.14,1.19-2.9,1.71-4.51,1.64-1.73-.08-3.28-.94-4.4-2.24-1.08-1.25-1.78-2.8-2.16-4.4-.25.36-.46.75-.65,1.14-.49,1-.88,2.05-1.44,3.01-.48.83-1.11,1.65-2.06,1.96-.07.02-.14-.02-.18-.07-.73-1.06-.68-2.29-.5-3.49-.37.78-.75,1.56-1.16,2.32-.68,1.28-1.42,2.55-2.35,3.67-.52.62-1.44,1.66-2.37,1.34-.53-.18-.82-.7-.84-1.24-.03-.65.25-1.31.55-1.88.35-.66.79-1.28,1.27-1.85.19-.23.4-.46.62-.68-1.32.3-2.73.35-4.07.21-1.18-.12-2.85-.43-3.38-1.67-.27-.63-.11-1.31.16-1.91.37-.82.96-1.51,1.67-2.06,1.58-1.22,3.64-1.77,5.61-1.86,1.31-.06,2.71.07,3.97.55-.44-.39-.86-.79-1.24-1.23-.53-.61-1.35-1.6-.99-2.47.15-.37.54-.67.91-.79.4-.13.83-.05,1.22.1.98.4,1.78,1.23,2.46,2.01.45.52.88,1.07,1.26,1.65-.08-.63-.19-1.26-.31-1.89-.29-1.57-.64-3.13-.72-4.73-.08-1.49.09-3.02.85-4.33.03-.06.11-.09.18-.07.6.21,1.08.61,1.43,1.14.68,1.02.85,2.34.93,3.53.07.99.04,1.99.07,2.99.43-.82.93-1.61,1.64-2.18.4-.32.88-.55,1.4-.5.45.05.89.27,1.22.58.69.66.91,1.67,1.01,2.58.13,1.11.08,2.23.02,3.35-.03.5-.06,1.01-.08,1.51,0,.18-.01.36-.01.54.35-.79.69-1.59,1.06-2.38.49-1.04,1.02-2.07,1.68-3.02.54-.78,1.2-1.6,2.08-2.02.66-.32,1.96-.49,2.24.42.12.39,0,.84-.11,1.22-.11.35-.26.7-.42,1.03.11-.04.22-.07.33-.11,1.67-.5,3.67-.45,5.17.51.7.45,1.25,1.09,1.55,1.87.36.93.34,1.97.12,2.94ZM236.23,20.41c-.4.62-1.02,1.01-1.74,1.15-.63.12-1.26.03-1.85-.22-1.31-.55-2.31-1.71-3.1-2.85-.58-.84-1.11-1.77-1.48-2.74-.07.66-.25,1.31-.64,1.84-.32.44-.79.76-1.34.82-.5.06-1-.12-1.39-.43-.73-.58-.96-1.48-.9-2.36-.18.31-.37.61-.57.91-.5.76-1.04,1.49-1.62,2.19-.61.74-1.25,1.46-1.95,2.12-.61.58-1.27,1.13-2.01,1.55-.56.32-1.21.59-1.87.54-.6-.05-1.3-.4-1.63-.92-.3-.48-.13-1.03.18-1.45.42-.58,1.03-1.01,1.62-1.4.66-.43,1.37-.81,2.08-1.15.37-.18.75-.35,1.13-.5-.33-.14-.67-.25-1-.37-.65-.24-1.3-.48-1.93-.74-1.07-.45-2.26-.94-3.09-1.79-.3-.3-.55-.68-.57-1.12-.03-.5.3-.98.67-1.29,1.02-.83,2.39-.17,3.28.52.53.41,1,.88,1.41,1.4-.15-.6-.26-1.21-.33-1.82-.07-.62-.1-1.24-.05-1.86.05-.52.15-1.06.42-1.52.5-.84,1.67-1.05,2.42-.39.22.19.37.44.49.71,0-.03,0-.05,0-.08.08-.87.22-1.78.6-2.57.27-.56.78-1.08,1.45-.82.91.35.8,1.61.69,2.38-.08.54-.2,1.08-.34,1.61-.02.06-.03.12-.05.18.26-.43.53-.86.83-1.27.45-.61,1-1.33,1.75-1.59.62-.22,1.36.18,1.54.82.21.74-.28,1.57-.66,2.17-.23.36-.48.71-.73,1.07-.11.16-.23.32-.33.49.77-.19,1.57-.3,2.36-.36.83-.06,1.67-.06,2.5.04.59.07,1.27.18,1.75.56,1.18.91-.57,2.18-1.52,2.79,1.73.21,3.65.17,5.03,1.37,1.18,1.03,1.29,3.08.46,4.35Z"/>
            </g>
            <g>
              <path class="cls-12" d="M211.33,52.26c-1.19.87-2.35,1.79-3.48,2.71-4.28,3.47-8.5,7.13-13.39,9.75-5.44,2.91-22.84,3.72-25.32,3.85,1.6-1.1,3.23-2.15,4.87-3.17,2.17-1.36,4.36-2.68,6.54-4.04,2.24-1.4,4.43-2.83,6.79-4.02,2.42-1.22,4.92-2.27,7.42-3.29,1.69-.69,3.43-1.2,5.15-1.79h-16.44c-2.11,1.15-4.19,2.36-6.27,3.56-10.99,6.32-22.98,10.9-35.45,13.24-5,.94-10.06,1.5-15.13,1.71-1.57.19-3.15.35-4.72.48-8.98.74-18.04.6-27.01-.26-9.56-.92-18.98-2.8-28.46-4.27-5.13-.79-10.29-1.44-15.48-1.68-5.19-.23-10.39,0-15.57.39-5.56.42-24.46,1.02-35.37,1.45v44.94c14.15.98,41.49-.56,53.48-2.92,13.02-2.57,51.91-10.27,58.46-10.54,7.09-.29,14.19,0,21.28.3,7.23.3,14.48.59,21.71.26,6.69-.31,13.25-1.38,19.77-2.81,2.15-.57,4.3-1.18,6.43-1.84,11.03-3.42,22.75-6.75,31.8-14.26,2.26-1.87,4.27-3.97,6.04-6.31,1.9-2.51,3.5-5.22,5.33-7.78,1.08-1.5,2.25-2.9,3.56-4.15,1.67-1.05,3.32-2.15,4.99-3.21,2.14-1.36,4.34-2.76,6.73-3.65,1.89-.71,3.83-1.35,5.58-2.39.13-.08.27-.17.41-.26h-34.23Z"/>
              <g>
                <path class="cls-4" d="M18,78.97c1.79.24,3.56.61,5.29,1.12,1.64.48,3.29.78,5,.87,3.51.19,7.03-.28,10.5-.79,3.04-.45,6.08-.99,9.14-1.23-.15-.02-.3-.05-.46-.06-1.97-.2-3.93.11-5.87.35-1.98.24-3.99.23-5.98.19-4-.08-7.98-.48-11.96-.95-3.98-.46-7.96-.98-11.95-1.38-3.89-.39-7.79-.67-11.7-.69v1.22c2.32.05,4.64.31,6.94.53,3.68.36,7.39.32,11.05.82Z"/>
                <path class="cls-4" d="M17.89,86.35c-1.71.02-3.41.07-5.12.16,0,0,.02,0,.02,0,2.18.56,4.34,1.19,6.54,1.63,2.24.45,4.51.62,6.79.61,4.35-.02,8.67-.7,12.88-1.79-2.31-.08-4.62-.18-6.93-.28-4.72-.2-9.45-.38-14.18-.33Z"/>
                <path class="cls-4" d="M15.41,100.23c-1.7.28-3.41.62-5.09,1.08.92.28,1.88.46,2.83.58,3.03.38,6.12.22,9.15-.07,2.64-.26,5.27-.66,7.9-1.03-1.38-.56-2.86-.85-4.33-1.01-3.47-.38-7.02-.11-10.46.45Z"/>
                <path class="cls-7" d="M66.77,83.05c-1.12.11-2.23.23-3.34.35,1.29.08,2.58.18,3.88.28,2.17.16,4.33.24,6.5.11,2.79-.16,5.53-.69,8.27-1.23-.73-.04-1.46-.08-2.19-.1-4.38-.12-8.75.16-13.11.58Z"/>
              </g>
              <g class="cls-13">
                <path class="cls-7" d="M120.42,83.24c-1.75.06-3.51.11-5.26.15.18.06.36.11.54.17,2.05.65,4.11,1.28,6.24,1.59,2.16.32,4.36.2,6.52-.08,3.88-.5,7.63-1.64,11.37-2.75-2.06.11-4.11.22-6.17.33-4.41.23-8.82.44-13.24.59Z"/>
                <path class="cls-7" d="M175.22,80.79c-3.21.69-6.41,1.46-9.58,2.28,1.4-.04,2.8-.06,4.2-.09,2.04-.04,4.08-.1,6.11-.28,1.01-.09,2.02-.2,3.02-.36.96-.16,1.91-.4,2.84-.68,3.29-.99,6.39-2.5,9.65-3.56-1.6.18-3.19.38-4.78.61-3.84.56-7.66,1.27-11.46,2.08Z"/>
                <path class="cls-7" d="M96.92,91c-1.43.16-2.87.38-4.27.71.12.01.25.02.37.04,2.68.24,5.38.33,8.06.06,2.42-.25,4.79-.81,7.06-1.68-1.05.12-2.11.21-3.17.29-2.68.19-5.38.29-8.05.59Z"/>
                <path class="cls-7" d="M62.95,72.22c1.39.91,2.84,1.74,4.45,2.2,2.07.58,4.24.49,6.35.2-.86-.33-1.74-.62-2.62-.88-2.66-.77-5.41-1.27-8.18-1.52Z"/>
                <path class="cls-7" d="M66.61,92.2c-2.1.22-4.2.41-6.3.57-2.02.15-4.04.23-6.06.34-3.22.18-6.44.1-9.66.14-3.3.04-6.62.18-9.87.81-.9.18-1.8.39-2.68.66,1.51-.13,3.03-.13,4.52-.1,3.59.08,7.17.47,10.75.73,3.55.25,7.1.23,10.65.08,3.94-.16,7.89-.53,11.76-1.31,3.55-.72,7.05-1.81,10.29-3.43-.25.03-.5.05-.75.08-4.22.47-8.44.99-12.66,1.43Z"/>
              </g>
              <path class="cls-3" d="M60.63,66c6.3,1.72,12.46,3.96,18.79,5.56,6.27,1.59,12.66,2.63,19.09,3.3,6.43.68,12.92,1.19,19.39.68,6.41-.5,12.71-1.78,18.98-3.15,3.08-.68,6.16-1.38,9.25-2.02,2.7-.56,5.41-1.27,7.97-2.31,2.61-1.06,4.87-2.59,7.22-4.12.68-.45,1.37-.89,2.06-1.33-6.97,2.87-14.21,5.06-21.63,6.45-5,.94-10.06,1.5-15.13,1.71-1.57.19-3.15.35-4.72.48-8.98.74-18.04.6-27.01-.26-9.56-.92-18.98-2.8-28.46-4.27-2.17-.34-4.35-.64-6.54-.91.25.07.5.13.74.2Z"/>
              <path class="cls-3" d="M169.77,68.53c-3.78,1.12-7.61,2.1-11.35,3.36-4.05,1.36-7.97,3.1-11.51,5.5.68-.18,1.37-.36,2.06-.53,7.54-1.82,15.26-2.63,22.96-3.48,3.89-.43,7.78-.87,11.65-1.47,3.72-.58,7.47-1.24,11.09-2.28,2.98-.86,5.81-2.15,8.36-3.92,2.66-1.85,4.93-4.19,7.31-6.39,2.67-2.46,5.4-4.87,8.3-7.06h-7.29c-1.19.87-2.35,1.79-3.48,2.71-4.28,3.47-8.5,7.13-13.39,9.75-5.1,2.73-20.71,3.61-24.68,3.82Z"/>
              <path class="cls-3" d="M231.8,52.26c-5.03,4.33-9.48,9.32-13.45,14.63-2.12,2.84-3.87,6.01-6.25,8.63-2.25,2.48-4.97,4.35-7.8,6.1-6.4,3.96-13.1,7.27-20.3,9.51-7.72,2.41-15.78,3.62-23.85,4.03-8.88.46-17.77,0-26.65-.22-8.51-.22-16.92-.03-25.38,1.02-8.43,1.04-16.8,2.62-25.1,4.4-8.02,1.73-15.96,4-24.04,5.45-8.2,1.48-16.5,1.58-24.77,2.35-6.54.61-19.69,3.41-19.69,3.41,13.04,1.43,26.15-.15,38.96-2.68,13.02-2.57,51.91-10.27,58.46-10.54,7.09-.29,14.19,0,21.28.3,7.23.3,14.48.59,21.71.26,6.69-.31,13.25-1.38,19.77-2.81,2.15-.57,4.3-1.18,6.43-1.84,11.03-3.42,22.75-6.75,31.8-14.26,2.26-1.87,4.27-3.97,6.04-6.31,1.9-2.51,3.5-5.22,5.33-7.78,1.08-1.5,2.25-2.9,3.56-4.15,1.67-1.05,3.32-2.15,4.99-3.21,2.14-1.36,4.34-2.76,6.73-3.65,1.89-.71,3.83-1.35,5.58-2.39.13-.08.27-.17.41-.26h-13.76Z"/>
            </g>
            <g>
              <g>
                <path class="cls-14" d="M216.74,74.45s.08-.02.1-.03c0,0,.01,0,.02,0-.03,0-.08.01-.11.03Z"/>
                <path class="cls-14" d="M227.84,69.73s0,0,.01,0c.02,0,.03,0,.05,0,0,0-.02,0-.06,0Z"/>
                <path class="cls-14" d="M229.22,68.63s.01-.04,0,0h0Z"/>
                <path class="cls-14" d="M258.34,45.92c.75-1.55,1.25-3.54.42-5.16-.56-1.1-1.76-1.72-2.92-2.01-1.49-.37-3.06-.35-4.58-.2-1.79.17-3.55.52-5.28,1-.28.08-.57.16-.85.25.04-1.05-.45-2.1-1.57-2.36-.33-.08-.67-.1-1.01-.09,1.4-1.31,2.75-2.91,3.06-4.79.15-.88-.06-1.87-.66-2.55-.59-.68-1.45-.98-2.34-.97-1.59.02-3.16.74-4.51,1.65.03-.56-.06-1.11-.35-1.64-.68-1.26-2.27-1.64-3.58-1.76-1.48-.13-3.01.05-4.47.37.16-.21.32-.43.47-.65.49-.71.97-1.51,1.18-2.35.17-.66.17-1.38-.36-1.88-.5-.48-1.17-.56-1.8-.27-.72.33-1.25,1-1.68,1.64-.53.8-.95,1.68-1.32,2.57-.01.04-.03.07-.04.11-.06-1.05-.2-2.1-.52-3.08-.14-.44-.34-.96-.74-1.23-.49-.33-1.13-.14-1.51.26-.45.47-.61,1.15-.73,1.77-.13.67-.18,1.36-.19,2.04,0,.33,0,.65.03.97-1.09-.63-2.46-.84-3.69-.82-2,.03-3.92.69-5.64,1.68-.48.27-.94.58-1.39.9.09-.35.17-.71.24-1.05.23-1.07.4-2.16.42-3.26.02-.94-.03-1.94-.37-2.83-.31-.82-.83-1.52-1.67-1.84-.93-.36-2.12-.16-3,.25-1.04.49-1.8,1.43-2.33,2.43-.61,1.14-1.03,2.37-1.35,3.62-.06.22-.11.44-.16.67-.75-1.14-1.55-2.25-2.48-3.24-.63-.67-1.77-1.88-2.77-1.13-.57.42-.52,1.06-.27,1.65.34.82.84,1.57,1.34,2.29.44.63.91,1.25,1.41,1.83.03.03.05.06.08.09-.34-.01-.69,0-1.02.04-1.71.2-3.14,1.15-4.33,2.35-.3.3-.58.62-.84.94-.05-.46-.09-.92-.16-1.38-.16-1.18-.38-2.39-.83-3.5-.34-.84-.88-1.8-1.82-2.07-1.57-.45-2.22,1.48-2.42,2.65-.26,1.44-.26,2.94-.16,4.41-.06-.11-.13-.23-.19-.34-.56-1-1.14-2.22-2.09-2.93-.45-.33-1-.37-1.46-.02-.57.44-.75,1.28-.75,1.95,0,1.74.86,3.42,1.6,4.94.27.55.51,1.12.76,1.68-1.14-.76-2.4-1.36-3.69-1.79-1.04-.35-2.11-.62-3.2-.75-1-.12-2.13-.08-2.96.56-.68.53-1.14,1.37-1.17,2.23-.03.81.26,1.58.64,2.28.87,1.66,2.28,3.04,3.66,4.28.54.48,1.12.98,1.72,1.44-1.8.13-3.57.44-5.22,1.23-1.67.8-3.4,1.77-4.71,3.1-.6.61-1.21,1.45-1.04,2.35.17.89,1.07,1.22,1.86,1.33.96.13,1.96-.02,2.91-.18,1.01-.17,2-.42,2.99-.67,1.04-.27,2.09-.45,3.14-.68.06-.01.12-.03.18-.04-1.42.97-2.88,2.34-2.97,4.13-.01.28.15.58.44.63,1.72.33,3.52.06,5.21-.34,1.79-.43,3.55-1.05,5.22-1.83-.14.24-.27.49-.38.75-.22.51-.38,1.14-.18,1.68.25.69.95,1,1.63,1.11,1.26.2,2.4-.14,3.51-.67-1.29,2.19-2.12,4.71-1.64,7.23.31,1.62,1.26,3.14,2.57,4.15,1.55,1.19,3.56,1.36,5.42,1.02,1.87-.34,3.65-1.14,5.31-2.03,1.35-.72,2.67-1.49,3.96-2.32.31.05.63.07.94.06-.4.97-.72,1.96-.9,3.02-.29,1.7-.22,3.61.77,5.09.74,1.1,2.12,2.05,3.42,2.34,1.24.28,2.46,0,3.53-.67,2.15-1.34,3.34-3.97,4.13-6.27.08-.24.16-.48.24-.72.65,1.35,1.68,2.42,3.21,2.82,1.9.5,3.79-.19,4.92-1.78.4-.57.67-1.23.83-1.91,1.25.58,2.66.84,4.07.65,2.77-.37,5.05-2.68,5.36-5.38,3.49.49,7.15.22,10.47-.95,1.67-.59,3.27-1.48,4.48-2.78,1.03-1.1,1.81-2.56,1.46-4.1-.28-1.29-1.31-2.29-2.37-2.99-.69-.45-1.44-.81-2.22-1.1,2.35-1.16,4.43-2.77,5.59-5.17Z"/>
                <path class="cls-8" d="M258.34,45.92c.75-1.55,1.25-3.54.42-5.16-.56-1.1-1.76-1.72-2.92-2.01-1.49-.37-3.06-.35-4.58-.2-1.79.17-3.55.52-5.28,1-.28.08-.57.16-.85.25.04-1.05-.45-2.1-1.57-2.36-.33-.08-.67-.1-1.01-.09,1.4-1.31,2.75-2.91,3.06-4.79.15-.88-.06-1.87-.66-2.55-.59-.68-1.45-.98-2.34-.97-1.59.02-3.16.74-4.51,1.65.03-.56-.06-1.11-.35-1.64-.68-1.26-2.27-1.64-3.58-1.76-1.48-.13-3.01.05-4.47.37.16-.21.32-.43.47-.65.49-.71.97-1.51,1.18-2.35.17-.66.17-1.38-.36-1.88-.5-.48-1.17-.56-1.8-.27-.72.33-1.25,1-1.68,1.64-.53.8-.95,1.68-1.32,2.57-.01.04-.03.07-.04.11-.06-1.05-.2-2.1-.52-3.08-.14-.44-.34-.96-.74-1.23-.49-.33-1.13-.14-1.51.26-.45.47-.61,1.15-.73,1.77-.13.67-.18,1.36-.19,2.04,0,.33,0,.65.03.97-1.09-.63-2.46-.84-3.69-.82-2,.03-3.92.69-5.64,1.68-.48.27-.94.58-1.39.9.09-.35.17-.71.24-1.05.23-1.07.4-2.16.42-3.26.02-.94-.03-1.94-.37-2.83-.31-.82-.83-1.52-1.67-1.84-.93-.36-2.12-.16-3,.25-1.04.49-1.8,1.43-2.33,2.43-.61,1.14-1.03,2.37-1.35,3.62-.06.22-.11.44-.16.67-.75-1.14-1.55-2.25-2.48-3.24-.63-.67-1.77-1.88-2.77-1.13-.57.42-.52,1.06-.27,1.65.34.82.84,1.57,1.34,2.29.44.63.91,1.25,1.41,1.83.03.03.05.06.08.09-.34-.01-.69,0-1.02.04-1.71.2-3.14,1.15-4.33,2.35-.3.3-.58.62-.84.94-.05-.46-.09-.92-.16-1.38-.16-1.18-.38-2.39-.83-3.5-.34-.84-.88-1.8-1.82-2.07-1.57-.45-2.22,1.48-2.42,2.65-.26,1.44-.26,2.94-.16,4.41-.06-.11-.13-.23-.19-.34-.56-1-1.14-2.22-2.09-2.93-.45-.33-1-.37-1.46-.02-.57.44-.75,1.28-.75,1.95,0,1.74.86,3.42,1.6,4.94.27.55.51,1.12.76,1.68-1.14-.76-2.4-1.36-3.69-1.79-1.04-.35-2.11-.62-3.2-.75-1-.12-2.13-.08-2.96.56-.68.53-1.14,1.37-1.17,2.23-.03.81.26,1.58.64,2.28.87,1.66,2.28,3.04,3.66,4.28.54.48,1.12.98,1.72,1.44-1.8.13-3.57.44-5.22,1.23-1.67.8-3.4,1.77-4.71,3.1-.6.61-1.21,1.45-1.04,2.35.17.89,1.07,1.22,1.86,1.33.96.13,1.96-.02,2.91-.18,1.01-.17,2-.42,2.99-.67,1.04-.27,2.09-.45,3.14-.68.06-.01.12-.03.18-.04-1.42.97-2.88,2.34-2.97,4.13-.01.28.15.58.44.63,1.72.33,3.52.06,5.21-.34,1.79-.43,3.55-1.05,5.22-1.83-.14.24-.27.49-.38.75-.22.51-.38,1.14-.18,1.68.25.69.95,1,1.63,1.11,1.26.2,2.4-.14,3.51-.67-1.29,2.19-2.12,4.71-1.64,7.23.31,1.62,1.26,3.14,2.57,4.15,1.55,1.19,3.56,1.36,5.42,1.02,1.87-.34,3.65-1.14,5.31-2.03,1.35-.72,2.67-1.49,3.96-2.32.31.05.63.07.94.06-.4.97-.72,1.96-.9,3.02-.29,1.7-.22,3.61.77,5.09.74,1.1,2.12,2.05,3.42,2.34,1.24.28,2.46,0,3.53-.67,2.15-1.34,3.34-3.97,4.13-6.27.08-.24.16-.48.24-.72.65,1.35,1.68,2.42,3.21,2.82,1.9.5,3.79-.19,4.92-1.78.4-.57.67-1.23.83-1.91,1.25.58,2.66.84,4.07.65,2.77-.37,5.05-2.68,5.36-5.38,3.49.49,7.15.22,10.47-.95,1.67-.59,3.27-1.48,4.48-2.78,1.03-1.1,1.81-2.56,1.46-4.1-.28-1.29-1.31-2.29-2.37-2.99-.69-.45-1.44-.81-2.22-1.1,2.35-1.16,4.43-2.77,5.59-5.17ZM214.39,40.35s-.07-.1-.1-.15c.55,2.04.83,4.18.82,6.28-.01,2.24-.35,4.72-1.75,6.55-.65.85-1.52,1.48-2.54,1.82-1.08.35-2.33.47-3.42.12-2.11-.68-3.15-2.88-3.57-4.9-.24-1.14-.33-2.32-.28-3.49.03-.66.1-1.33.22-1.98-.5.98-.94,2.01-1.44,2.99-.7,1.38-1.45,2.84-2.55,3.95-.38.38-.85.76-1.4.85-.48.08-1.02-.09-1.32-.49-.35-.48-.33-1.16-.27-1.72.09-.81.31-1.61.56-2.38.06-.19.13-.38.2-.56-.26.33-.53.65-.8.96-.74.84-1.56,1.62-2.43,2.33-1.43,1.16-3.1,2.19-4.85,2.79-.77.26-1.65.47-2.46.28-.54-.13-1.17-.5-1.28-1.09-.11-.55.23-1.08.56-1.49.48-.59,1.08-1.07,1.69-1.52.42-.31.86-.6,1.3-.88-.25.08-.49.15-.74.22-1.06.29-2.26.55-3.35.32-.42-.09-.83-.28-1.11-.61-.23-.28-.38-.68-.23-1.03.14-.33.47-.51.78-.64.43-.17.9-.24,1.36-.29.34-.03.69-.06,1.04-.06-1.05-.39-2.07-.89-3.03-1.46-1.25-.75-2.68-1.77-3.16-3.21-.45-1.34.37-2.88,1.68-3.35.73-.26,1.54-.22,2.29-.09.9.15,1.77.46,2.61.81,1.31.55,2.57,1.23,3.78,1.98-.44-.9-1.07-1.71-1.55-2.57-.55-.99-1-2.11-.73-3.26.02-.1.14-.14.23-.09,1.28.65,2.09,1.88,2.78,3.13-.29-.99-.58-1.97-.8-2.98-.18-.81-.33-1.62-.39-2.45-.05-.64-.06-1.35.17-1.96.17-.45.5-.87,1.01-.92.46-.04.81.3,1.04.66.34.52.52,1.14.67,1.73.19.74.31,1.49.41,2.25.04.29.07.58.1.87.23-.58.54-1.14.96-1.59.51-.54,1.27-.85,1.99-.56.7.29.85,1.22.89,1.92.16-.78.37-1.57.76-2.27.36-.65.91-1.14,1.7-1.05.84.09,1.2.9,1.38,1.63.15.62.18,1.28.3,1.91.36-1.31.7-2.63,1.14-3.92.51-1.48,1.11-3.04,2.15-4.24.41-.47.91-.89,1.52-1.08.57-.18,1.27-.14,1.79.15,1.27.69.92,2.6.66,3.74-.29,1.26-.77,2.44-1.2,3.65.11-.07.21-.14.32-.21,1.83-1.14,3.89-1.91,6.02-2.19,2.1-.27,4.26-.02,6.21.84,1.02.45,1.95,1.07,2.81,1.78.64.53,1.29,1.26,1.34,2.13.05.82-.53,1.47-1.17,1.89-.95.62-2.1.92-3.23.87-1.79-.08-3.35-1-4.94-1.76.62.52,1.21,1.06,1.78,1.63.48.48.93.98,1.34,1.52.35.45.67.95.85,1.49.14.42.19.89-.03,1.29-.21.39-.63.64-1.08.63-.51-.02-.99-.3-1.39-.6-.53-.39-.99-.86-1.42-1.35-.43-.49-.83-1-1.2-1.53ZM253.05,55.85c-.24.75-.94,1.31-1.6,1.68-2,1.12-4.45.33-6.32-.67-1.07-.58-2.07-1.29-2.98-2.08-.59-.52-1.16-1.08-1.66-1.69.22,1.03.43,2.06.57,3.1.1.7.17,1.4.17,2.11,0,.56-.02,1.16-.22,1.69-.15.39-.41.76-.85.85-.5.11-.98-.03-1.37-.36-.44-.36-.73-.88-.95-1.39-.28-.63-.47-1.3-.63-1.97-.1-.43-.18-.85-.25-1.28-.02.58-.07,1.15-.14,1.71-.08.67-.2,1.34-.4,1.98-.16.52-.38,1.05-.74,1.47-.62.72-1.76.83-2.38.05-.31-.39-.47-.9-.56-1.38-.12-.59-.16-1.19-.16-1.79,0-.79.05-1.58.12-2.36-1.21,1.76-2.61,3.41-4.07,4.97-.93.99-1.9,1.95-2.95,2.81-.88.72-1.82,1.42-2.88,1.86-.77.32-1.67.53-2.46.19-.73-.32-1.14-1.02-1.04-1.81.12-.96.73-1.83,1.31-2.57.79-1.01,1.72-1.91,2.68-2.76.88-.77,1.79-1.5,2.74-2.17-.9.36-1.81.67-2.74.93-.94.27-1.89.49-2.86.59-.8.09-1.65.11-2.43-.1-.64-.18-1.24-.55-1.54-1.16-.39-.79-.28-1.74-.06-2.56.62-2.28,2.58-3.79,4.73-4.55,1.95-.69,4.17-.89,6.21-.45-.62-.63-1.22-1.29-1.75-2-.59-.78-1.19-1.7-1.29-2.7-.09-.85.42-1.75,1.33-1.86.87-.1,1.68.59,2.23,1.18.49.51.94,1.11,1.28,1.74.32-1.73.62-3.46,1.08-5.15.27-.98.59-1.95,1-2.88.36-.81.81-1.6,1.42-2.24.52-.54,1.18-.94,1.94-1.02.81-.08,1.69.19,2.29.75.63.59.9,1.44,1,2.28.12.99,0,2.01-.18,2.99-.13.7-.32,1.38-.54,2.06.8-.68,1.74-1.32,2.77-1.55.85-.19,1.89.02,2.17.96.29.98-.39,2.09-.94,2.85-.34.46-.71.9-1.12,1.3,0,0-.01.01-.02.02,1.33-.64,2.67-1.25,4.05-1.77.96-.36,1.93-.68,2.93-.9.86-.19,1.77-.33,2.65-.25.71.07,1.42.28,1.94.8.48.48.78,1.19.65,1.88-.14.69-.66,1.22-1.2,1.63-.69.53-1.49.92-2.3,1.25-1.29.54-2.65.94-4.01,1.24,1.38.55,2.75,1.12,4.07,1.8.8.41,1.59.87,2.33,1.4.62.45,1.22.96,1.64,1.6.33.51.51,1.13.31,1.72Z"/>
                <path class="cls-8" d="M255.37,52.46c.5.99.73,2.09.45,3.22-.39,1.57-1.6,2.79-2.89,3.68-1.54,1.06-3.34,1.76-5.15,2.19-1.74.41-3.58.6-5.36.32-.59-.09-1.2-.25-1.77-.51,0,.01,0,.03-.01.04-.51,1.56-1.35,3.06-2.74,3.99-.75.5-1.62.82-2.5.93-.72.09-1.5.07-2.16-.27-1.17-.61-1.46-2.02-1.51-3.22-.04-.99.06-1.97.19-2.94-.41,1.08-.8,2.16-1.26,3.22-.62,1.44-1.34,2.89-2.39,4.07-.87.99-2.1,1.77-3.47,1.54-1.25-.2-1.87-1.37-2.06-2.52-.13.18-.25.37-.38.55-.71.98-1.48,1.92-2.32,2.79-.74.77-1.55,1.51-2.47,2.07-.71.43-1.55.79-2.4.73-.84-.06-1.56-.56-2.03-1.25-.64-.96-.74-2.17-.61-3.28.16-1.36.61-2.67,1.18-3.92.59-1.29,1.31-2.52,2.14-3.66.05-.06.09-.12.14-.19-.05.04-.1.08-.16.12-.94.74-1.93,1.47-3.02,1.98-.63.29-1.71.71-2.24.02-.46-.61-.18-1.48.18-2.19-.98,1.04-2.05,2.02-3.17,2.9-2,1.58-4.39,3.06-6.98,3.29-1.14.1-2.3-.1-3.32-.65-.98-.54-1.87-1.4-2.2-2.5-.65-2.16.95-4.35,2.29-5.88,1.11-1.27,2.37-2.38,3.66-3.46-.75.41-1.5.81-2.27,1.19-1.41.69-2.88,1.34-4.41,1.68-.99.22-2.47.44-3.24-.42-.83-.94.58-2.12,1.24-2.65.29-.23.59-.44.89-.65-.97.47-1.94.94-2.93,1.36-1.74.73-3.6,1.39-5.5,1.45-.77.02-1.58-.06-2.29-.38-.41-.19-.79-.52-.79-1,0-.49.32-.93.62-1.29.43-.52.94-.96,1.46-1.38.55-.44,1.11-.86,1.68-1.27.17-.12.34-.24.51-.37-1.99.66-3.99,1.3-6.05,1.65-1.84.32-3.95.5-5.72-.25-.44-.18-.89-.46-1.07-.92-.16-.4-.06-.83.13-1.2,0-.02.02-.04.03-.06-.38.3-.74.61-1.08.95-.6.61-1.21,1.45-1.04,2.35.17.89,1.07,1.22,1.86,1.33.96.13,1.96-.02,2.91-.18,1.01-.17,2-.42,2.99-.67,1.04-.27,2.09-.45,3.14-.68.06-.01.12-.03.18-.04-1.42.97-2.88,2.34-2.97,4.13-.01.28.15.58.44.63,1.72.33,3.52.06,5.21-.34,1.79-.43,3.55-1.05,5.22-1.83-.14.24-.27.49-.38.75-.22.51-.38,1.14-.18,1.68.25.69.95,1,1.63,1.11,1.26.2,2.4-.14,3.51-.67-1.29,2.19-2.12,4.71-1.64,7.23.31,1.62,1.26,3.14,2.57,4.15,1.55,1.19,3.56,1.36,5.42,1.02,1.87-.34,3.65-1.14,5.31-2.03,1.35-.72,2.67-1.49,3.96-2.32.31.05.63.07.94.06-.4.97-.72,1.96-.9,3.02-.29,1.7-.22,3.61.77,5.09.74,1.1,2.12,2.05,3.42,2.34,1.24.28,2.46,0,3.53-.67,2.15-1.34,3.34-3.97,4.13-6.27.08-.24.16-.48.24-.72.65,1.35,1.68,2.42,3.21,2.82,1.9.5,3.79-.19,4.92-1.78.4-.57.67-1.23.83-1.91,1.25.58,2.66.84,4.07.65,2.77-.37,5.05-2.68,5.36-5.38,3.49.49,7.15.22,10.47-.95,1.67-.59,3.27-1.48,4.48-2.78,1.03-1.1,1.81-2.56,1.46-4.1-.25-1.12-1.06-2.03-1.97-2.71Z"/>
              </g>
              <path class="cls-14" d="M242.34,39.22s.04,0,.1,0h0s-.06,0-.1,0Z"/>
              <path class="cls-14" d="M233.84,35.48s0,.02,0,0h0Z"/>
            </g>
          </g>
          <path class="cls-21" d="M43.2,65.85c2.65,5.48,9.7,6.61,15.17,7.4,6.44.93,12.98.74,19.45.5,10.61-.39,20.27-.07,30.45,3.05,8.32,2.55,18.07,4.36,25.62-1.26,5.9-4.39,9.25-11.82,9.4-19.1.49-23.11-22.26-38.95-43.64-39.63-7.22-.23-14.57.72-21.55,2.57-8.18,2.16-16.14,5.57-22.68,10.94-8.84,7.28-15.14,19.2-13.57,30.9.24,1.79.7,3.32,1.33,4.63Z"/>
          <path class="cls-6" d="M41.87,61.22c.24,1.79.7,3.32,1.33,4.63,1.24,2.57,3.17,4.24,5.47,5.15.49.19,5.31-3.72,6.06-4.17,1.93-1.15,3.93-2.21,6.04-2.97,5.41-1.96,11.23-2.18,16.81-.82,8.15,1.99,15.25,6.32,22.64,10.01.24-4.61-.49-9.28-1.68-13.7-1.41-5.23-3.53-10.35-6.33-14.99-2.57-4.24-5.79-8.08-9.5-11.37-3.7-3.27-7.88-5.99-12.33-8.13-1.14-.55-2.31-1.06-3.48-1.54-4.1,1.85-7.98,4.15-11.45,7-8.84,7.28-15.14,19.2-13.57,30.9Z"/>
          <path class="cls-6" d="M41.87,61.22c.24,1.79.7,3.32,1.33,4.63,1.24,2.57,3.17,4.24,5.47,5.15.49.19,5.31-3.72,6.06-4.17,1.93-1.15,3.93-2.21,6.04-2.97,4.27-1.55,8.79-2,13.25-1.46-.29-1.11-.65-2.18-1.03-3.18-.9-2.37-2.04-4.64-3.33-6.81-.56-.94-1.15-1.87-1.78-2.77-.73-1.05-1.54-2.02-2.42-2.95-.75-.78-1.59-1.64-1.59-2.79,0-.67.25-1.32.55-1.9.32-.64.7-1.26,1.09-1.86,1.54-2.34,3.55-4.32,5.83-5.94,4.6-3.28,10.19-5.1,15.76-5.79,2.75-.34,5.58-.45,8.34-.13,2.69.31,5.33,1.02,7.79,2.15,4.87,2.23,8.9,6.04,11.47,10.73.67,1.22,1.24,2.5,1.72,3.82.53,1.47.9,2.97,1.23,4.5.82,3.74,1.62,7.48,2.82,11.12.3.92.6,1.86,1.01,2.73.32.69.69,1.35,1.06,2.01.8,1.43,1.62,2.84,2.26,4.35.31.74.58,1.5.75,2.28.15.68.28,1.45.2,2.15-.09.72-.37,1.4-.79,1.99-1,1.4-2.61,2.29-4.19,2.89-.24.09-.49.18-.73.26,4.91.29,9.75-.63,13.87-3.69,5.9-4.39,9.25-11.82,9.4-19.1.49-23.11-22.26-38.95-43.64-39.63-7.22-.23-14.57.72-21.55,2.57-8.18,2.16-16.14,5.57-22.68,10.94-8.84,7.28-15.14,19.2-13.57,30.9Z"/>
          <g>
            <path class="cls-19" d="M127.54,70.56c3.37,12.42,6.4,24.17,4.78,37.62-.34,2.78-1.05,5.47-1.53,8.22-.46,2.59-.86,5.54.15,8.06.96,2.4,3.38,3.65,5.89,3.61,1.01-.02,1.99-.21,2.95-.53,2.24-1.53,4.24-3.49,6.01-5.43,10.23-11.22,11.28-30,9.85-44.38-.94-9.46-3.43-18.77-7.4-27.41-2.43-5.28-9.71-22.12-17.48-20.26-1.39.33-2.55,1.31-3.45,2.42-3.78,4.63-4.78,12.65-4.25,18.47.61,6.66,2.75,13.19,4.49,19.62Z"/>
            <path class="cls-5" d="M143.68,122.97c-1.23.47-2.57.63-3.85.26-1.43-.42-2.77-1.5-3.55-2.77-1.13-1.85-.97-4.24-.74-6.3.3-2.68.6-5.34.75-8.03.35-6.24.27-12.6-.67-18.79-.89-5.83-2.56-11.51-4.44-17.09-1.63-4.81-3.56-9.54-4.86-14.46-1-3.8-1.71-7.69-1.89-11.62-.12-2.42-.04-4.89.38-7.29-1.72,4.41-2.15,9.82-1.76,14.06.61,6.66,2.75,13.19,4.49,19.62,3.37,12.42,6.4,24.17,4.78,37.62-.34,2.78-1.05,5.47-1.53,8.22-.46,2.59-.86,5.54.15,8.06.96,2.4,3.38,3.65,5.89,3.61,1.01-.02,1.99-.21,2.95-.53,2.24-1.53,4.24-3.49,6.01-5.43.14-.15.27-.32.41-.47-.79.55-1.62,1.01-2.51,1.35Z"/>
            <g>
              <path class="cls-21" d="M125.08,128.75c-.13-.11-.18-.26-.08-.48.23-.49.76-.84,1.2-1.12.49-.31,1-.58,1.51-.85.93-.51,1.84-1.09,2.48-1.96.54-.72.97-1.52,1.54-2.22.26-.32.56-.63.93-.84.31-.17.66-.22,1.01-.21.38.01.74.15.79.54.06.45-.16.94-.35,1.33-.15.32-.32.62-.51.92-1.12,1.59-2.88,2.77-4.54,3.64-.94.49-2.63,1.32-3.99,1.24Z"/>
              <path class="cls-21" d="M127.72,130.59c-.13-.1-.19-.25-.1-.48.21-.5.73-.86,1.16-1.16.48-.33.98-.61,1.48-.91.91-.54,1.8-1.16,2.41-2.04.51-.74.91-1.56,1.46-2.27.25-.33.54-.65.9-.87.3-.18.65-.24,1-.24.38,0,.75.12.81.51.08.45-.12.94-.3,1.35-.14.32-.3.63-.47.94-1.06,1.62-2.79,2.87-4.41,3.8-.92.53-2.58,1.41-3.94,1.37Z"/>
              <path class="cls-21" d="M129.87,131.32c-.13-.11-.17-.26-.07-.48.24-.49.79-.81,1.24-1.08.5-.3,1.02-.54,1.54-.8.95-.48,1.87-1.03,2.54-1.87.56-.71,1.02-1.49,1.61-2.17.28-.31.58-.61.96-.8.32-.16.66-.2,1.01-.18.38.02.74.17.77.56.05.45-.19.93-.39,1.32-.16.31-.34.61-.54.9-1.17,1.55-2.97,2.68-4.66,3.49-.95.46-2.67,1.23-4.03,1.1Z"/>
            </g>
          </g>
          <g>
            <path class="cls-19" d="M70.48,29.05c-.35-.05-.71-.1-1.06-.14-4.54-.5-9.15-.3-13.57.85-2.03.53-4.04,1.21-5.87,2.25-1.63.93-3.13,2.11-4.33,3.56-1.18,1.42-2.12,3.17-2.33,5.02-.19,1.69.05,3.4.78,4.94.04.09.09.17.13.26,5.09,5.4,15.69,7.52,21.73,10.89,4.04,2.26,7.87,5.16,10.91,8.71,1.39,2.68,2.67,5.42,3.83,8.2,2.74,6.54,4.9,13.24,6.43,20.11.8,2.36,1.09,4.91,1.43,7.36.25,1.85.54,3.68,1.02,5.48.08.31.17.63.27.94.96,1.52,2.77,2.13,4.55,1.95,1.31-.13,2.55-.63,3.75-1.14.43-.18.87-.38,1.18-.74.66-.77.43-1.94.53-2.89.16-1.41.26-2.82.35-4.24.18-2.82.26-5.65.25-8.48-.04-9.85-1-19.74-3.39-29.31-.69-2.75-1.46-5.69-2.42-8.62-2.18-6.67-5.3-13.29-10.51-17.55-4.05-3.31-8.75-5.63-13.65-7.41Z"/>
            <g>
              <path class="cls-21" d="M92.09,117.1c0,.44,0,2.22.96,1.55.16-.12.26-.3.35-.48,1.1-2.21,1.45-4.89,1.72-7.32.1-.95,1.07-6.5-.67-6.38-.5.03-.83.53-1.01,1-.6,1.54-.72,3.39-.93,5.02-.25,1.99-.38,3.98-.42,5.99,0,.21,0,.42,0,.63Z"/>
              <path class="cls-21" d="M89.87,116.73c-.24-1.2-.37-2.43-.46-3.65-.1-1.4-.11-2.81-.02-4.22.07-1.13.2-2.31.62-3.37.36-.9.98-1.7,2.04-1.65.27.01.67.19.7.5.05.78-.1,1.51-.3,2.24-.25,1.8-.42,3.6-.49,5.43-.08,2.25-.1,4.5-.28,6.74-.04.5-.86.27-1.06.06-.49-.51-.61-1.42-.74-2.08Z"/>
              <path class="cls-21" d="M96.24,117.5c.57-1.09,1.04-2.23,1.47-3.38.49-1.32.9-2.67,1.21-4.04.25-1.1.46-2.28.35-3.41-.09-.96-.46-1.91-1.49-2.16-.26-.06-.7,0-.81.29-.27.73-.33,1.48-.34,2.23-.27,1.8-.61,3.58-1.06,5.35-.55,2.18-1.17,4.34-1.63,6.55-.1.49.74.5,1,.36.61-.35.99-1.19,1.3-1.78Z"/>
            </g>
          </g>
          <g>
            <ellipse class="cls-19" cx="49.59" cy="46.35" rx="24.61" ry="29.17" transform="translate(2.11 94.86) rotate(-88.68)"/>
            <path class="cls-2" d="M75.69,62.57c-.13,5.51-12.07,9.7-26.68,9.37-14.61-.34-26.35-5.07-26.23-10.58.13-5.51,12.07-9.7,26.68-9.37,14.61.34,26.35,5.07,26.23,10.58Z"/>
            <path class="cls-17" d="M72.76,58.8c.6-2.99-.03-6.23-.88-9.1-.88-2.99-1.48-6.09-2.69-8.98-1.14-2.73-2.91-5.51-5.62-6.9-2.45-1.27-5.39-1.36-8.06-.85-1.39.26-2.74.7-4.02,1.31-.59.28-1.16.6-1.7.98-.12.09-.24.18-.36.28-.11-.1-.22-.2-.34-.29-.51-.4-1.07-.75-1.65-1.06-1.25-.66-2.58-1.16-3.96-1.49-2.64-.63-5.58-.67-8.09.48-2.76,1.27-4.67,3.96-5.93,6.64-1.34,2.83-2.08,5.89-3.1,8.84-.98,2.83-1.76,6.03-1.3,9.05-.55,1.56-.77,3.23-.21,4.77,1.06,2.88,4.55,4.01,7.18,4.92,3.78,1.32,7.65,2.1,11.64,2.32,1.65.09,3.3.12,4.95.09,1.65.11,3.3.16,4.95.14,4-.04,7.9-.65,11.74-1.79,2.67-.8,6.21-1.76,7.4-4.59.63-1.5.48-3.19.01-4.77Z"/>
            <path class="cls-11" d="M62.16,53.11c-.51-.38-1.11-.61-1.71-.79-1.06-.32-2.16-.54-3.22-.88-1.03-.33-2.06-.73-2.99-1.3-.86-.54-1.64-1.24-2.13-2.14-.31-.55-.48-1.15-.56-1.77-.08.35-.16.71-.24,1.05-.03.12-.23.15-.28.03-.13-.32-.21-.66-.29-.99-.01.2-.04.4-.1.6-.03.1-.19.15-.26.06-.32-.39-.46-.86-.59-1.33-.01.45.02.9-.03,1.35-.01.11-.13.19-.24.13-.53-.32-.78-.89-.96-1.47-.02.78-.08,1.56-.34,2.31-.05.14-.27.15-.3,0-.11-.55-.25-1.09-.46-1.6-.06-.14-.12-.28-.18-.42-.07.47-.18.93-.35,1.38-.36.94-.95,1.76-1.72,2.41-.76.64-1.65,1.12-2.55,1.54-1.83.85-3.85,1.49-5.37,2.87-.64.58-1.26,1.33-1.38,2.21-.09.72.2,1.4.64,1.96.54.68,1.27,1.21,2.01,1.65.83.5,1.71.91,2.61,1.26,1.58.62,3.21,1.1,4.9,1.29,2.72.32,5.51.26,8.2-.26,1.37-.26,2.72-.65,3.99-1.22,1.21-.54,2.41-1.23,3.35-2.17,1.06-1.06,1.91-2.62,1.56-4.16-.14-.65-.49-1.2-1.02-1.6Z"/>
            <g>
              <path class="cls-15" d="M35.1,37.9c-.09,0-.18-.03-.25-.08-.21-.15-.26-.43-.11-.64.02-.03,2-2.8,5.32-.98.22.12.31.4.18.63-.12.22-.4.31-.63.18-2.58-1.41-4.06.61-4.12.7-.09.13-.24.2-.39.2Z"/>
              <path class="cls-15" d="M64.45,38.58c-.15,0-.29-.08-.38-.21-.06-.1-1.44-2.18-4.08-.88-.23.11-.51.02-.62-.21-.11-.23-.02-.51.21-.62,3.4-1.67,5.25,1.19,5.27,1.22.14.22.07.5-.14.64-.08.05-.17.07-.26.07Z"/>
            </g>
            <g>
              <path class="cls-1" d="M38.5,52.62c10.99-2.54,9.8-15.21.07-14.21-4.46.46-8.34,3.74-11.24,7.18-.32,1.02-.64,2.05-.99,3.06-.98,2.83-1.76,6.03-1.3,9.05-.55,1.56-.77,3.23-.21,4.77.02.05.05.1.07.15.15-4.7,5.22-8.07,13.59-10Z"/>
              <path class="cls-1" d="M72.76,58.8c.6-2.99-.03-6.23-.88-9.1-.48-1.62-.88-3.28-1.33-4.91-2.61-3.07-5.95-5.8-9.84-6.39-9.67-1.45-11.44,11.15-.58,14.2,7.54,2.11,12.28,5.28,13.02,9.38.1-1.05-.07-2.14-.38-3.18Z"/>
            </g>
            <g>
              <g>
                <path class="cls-18" d="M44.09,45.53c-.07,3.11-2.65,5.57-5.76,5.5-3.11-.07-5.57-2.65-5.5-5.76.07-3.11,2.65-5.57,5.76-5.5,3.11.07,5.57,2.65,5.5,5.76Z"/>
                <g>
                  <path class="cls-16" d="M42.66,45.49c-.05,2.32-1.98,4.16-4.3,4.11s-4.16-1.98-4.11-4.3c.05-2.32,1.98-4.16,4.3-4.11,2.32.05,4.16,1.98,4.11,4.3Z"/>
                  <g>
                    <path class="cls-27" d="M41.94,45.47c-.04,1.93-1.64,3.45-3.57,3.41-1.93-.04-3.45-1.64-3.41-3.57.04-1.93,1.64-3.45,3.57-3.41s3.45,1.64,3.41,3.57Z"/>
                    <path class="cls-18" d="M37.84,43.67c0,.35-.3.64-.66.63s-.64-.3-.63-.66c0-.35.3-.64.66-.63.35,0,.64.3.63.66Z"/>
                    <path class="cls-18" d="M36.4,45.2c0,.22-.19.4-.41.39-.22,0-.4-.19-.39-.41,0-.22.19-.4.41-.39.22,0,.4.19.39.41Z"/>
                  </g>
                </g>
              </g>
              <g>
                <path class="cls-18" d="M66.39,46.04c-.07,3.11-2.65,5.57-5.76,5.5-3.11-.07-5.57-2.65-5.5-5.76.07-3.11,2.65-5.57,5.76-5.5,3.11.07,5.57,2.65,5.5,5.76Z"/>
                <g>
                  <path class="cls-16" d="M64.96,46c-.05,2.32-1.98,4.16-4.3,4.11-2.32-.05-4.16-1.98-4.11-4.3.05-2.32,1.98-4.16,4.3-4.11s4.16,1.98,4.11,4.3Z"/>
                  <g>
                    <path class="cls-27" d="M64.24,45.98c-.04,1.93-1.64,3.45-3.57,3.41-1.93-.04-3.45-1.64-3.41-3.57.04-1.93,1.64-3.45,3.57-3.41,1.93.04,3.45,1.64,3.41,3.57Z"/>
                    <path class="cls-18" d="M60.14,44.18c0,.35-.3.64-.66.63-.35,0-.64-.3-.63-.66s.3-.64.66-.63c.35,0,.64.3.63.66Z"/>
                    <path class="cls-18" d="M58.69,45.71c0,.22-.19.4-.41.39-.22,0-.4-.19-.39-.41,0-.22.19-.4.41-.39.22,0,.4.19.39.41Z"/>
                  </g>
                </g>
              </g>
            </g>
            <g>
              <g>
                <path class="cls-18" d="M44.09,45.53c-.07,3.11-2.65,5.57-5.76,5.5-3.11-.07-5.57-2.65-5.5-5.76.07-3.11,2.65-5.57,5.76-5.5,3.11.07,5.57,2.65,5.5,5.76Z"/>
                <g>
                  <path class="cls-16" d="M42.66,45.49c-.05,2.32-1.98,4.16-4.3,4.11s-4.16-1.98-4.11-4.3c.05-2.32,1.98-4.16,4.3-4.11,2.32.05,4.16,1.98,4.11,4.3Z"/>
                  <g>
                    <path class="cls-27" d="M41.94,45.47c-.04,1.93-1.64,3.45-3.57,3.41-1.93-.04-3.45-1.64-3.41-3.57.04-1.93,1.64-3.45,3.57-3.41s3.45,1.64,3.41,3.57Z"/>
                    <path class="cls-18" d="M37.84,43.67c0,.35-.3.64-.66.63s-.64-.3-.63-.66c0-.35.3-.64.66-.63.35,0,.64.3.63.66Z"/>
                    <path class="cls-18" d="M36.4,45.2c0,.22-.19.4-.41.39-.22,0-.4-.19-.39-.41,0-.22.19-.4.41-.39.22,0,.4.19.39.41Z"/>
                  </g>
                </g>
              </g>
              <g>
                <path class="cls-18" d="M66.39,46.04c-.07,3.11-2.65,5.57-5.76,5.5-3.11-.07-5.57-2.65-5.5-5.76.07-3.11,2.65-5.57,5.76-5.5,3.11.07,5.57,2.65,5.5,5.76Z"/>
                <g>
                  <path class="cls-16" d="M64.96,46c-.05,2.32-1.98,4.16-4.3,4.11-2.32-.05-4.16-1.98-4.11-4.3.05-2.32,1.98-4.16,4.3-4.11s4.16,1.98,4.11,4.3Z"/>
                  <g>
                    <path class="cls-27" d="M64.24,45.98c-.04,1.93-1.64,3.45-3.57,3.41-1.93-.04-3.45-1.64-3.41-3.57.04-1.93,1.64-3.45,3.57-3.41,1.93.04,3.45,1.64,3.41,3.57Z"/>
                    <path class="cls-18" d="M60.14,44.18c0,.35-.3.64-.66.63-.35,0-.64-.3-.63-.66s.3-.64.66-.63c.35,0,.64.3.63.66Z"/>
                    <path class="cls-18" d="M58.69,45.71c0,.22-.19.4-.41.39-.22,0-.4-.19-.39-.41,0-.22.19-.4.41-.39.22,0,.4.19.39.41Z"/>
                  </g>
                </g>
              </g>
            </g>
            <path class="cls-20" d="M64.84,54.56c-.17,0-.34-.04-.5-.12-15.18-7.78-29.55.06-29.7.14-.52.29-1.18.11-1.47-.41-.29-.52-.11-1.18.41-1.47.16-.09,3.93-2.18,9.73-3.26,5.36-1,13.53-1.27,22.01,3.08.53.27.74.92.47,1.45-.19.37-.57.59-.96.59Z"/>
            <path class="cls-24" d="M49.31,60.59c-8.24-.19-11.15-1.92-12.15-3.34-.75-1.06-.45-1.97-.44-2.01.05-.16.23-.25.39-.19.16.05.25.23.2.39-.01.03-.2.68.38,1.49.93,1.29,3.7,2.87,11.64,3.05,0,0,0,0,0,0,7.56.17,10.43-1.35,11.5-2.66.8-.98.62-1.85.61-1.88-.04-.17.07-.33.23-.37.16-.04.33.06.37.23.01.05.26,1.18-.72,2.39-1.16,1.43-4.18,3.09-12.02,2.91,0,0,0,0,0,0Z"/>
            <path class="cls-23" d="M54.96,54.86c-.07-1.72-3.77-1.82-5.52-1.77-1.75-.13-5.45-.2-5.6,1.52-.19,2.19.2,5.14,5.25,5.65v.03c.07,0,.33,0,.4,0v-.03c5.07-.28,5.56-3.2,5.47-5.4Z"/>
            <g>
              <path class="cls-24" d="M47.63,57.18c-.21-.4-.59-.69-.98-.9-.23-.13-.49-.22-.75-.26-.12-.02-.23-.03-.36,0-.04,0-.1.02-.16.04.82.63,1.11,1.61,1.31,2.6.22.08.47.04.66-.09.46-.3.5-.93.27-1.39Z"/>
              <path class="cls-24" d="M53.36,56.24c-.06-.03-.13-.05-.18-.06-.12-.03-.23-.02-.36,0-.26.03-.52.11-.76.22-.39.19-.79.47-1.02.85-.26.44-.24,1.07.2,1.4.2.15.47.2.7.11.03-.01.05-.03.08-.04.1-.98.42-2.1,1.34-2.47Z"/>
            </g>
          </g>
        </g>
      </g>
    </g>
  </g>
</svg>