<?xml version="1.0" encoding="UTF-8"?>
<svg xmlns="http://www.w3.org/2000/svg" viewBox="0 0 107.36 212.46">
  <defs>
    <style>
      .cls-1, .cls-2 {
        fill: #bd8840;
      }

      .cls-3 {
        fill: #62493e;
      }

      .cls-4, .cls-5, .cls-6, .cls-2 {
        mix-blend-mode: multiply;
      }

      .cls-4, .cls-2 {
        opacity: .52;
      }

      .cls-7 {
        fill: #b8794d;
      }

      .cls-5 {
        opacity: .43;
      }

      .cls-5, .cls-8 {
        fill: #514b4b;
      }

      .cls-9 {
        fill: #e19f46;
      }

      .cls-10 {
        fill: #fff;
      }

      .cls-11 {
        fill: #b67e5c;
      }

      .cls-12 {
        fill: #ac7a33;
      }

      .cls-13 {
        fill: #fbb04e;
      }

      .cls-6 {
        opacity: .49;
      }

      .cls-6, .cls-14 {
        fill: #d19342;
      }

      .cls-15 {
        fill: #c17839;
      }

      .cls-16 {
        fill: #7e4e1e;
      }

      .cls-17 {
        fill: #8d92a6;
        mix-blend-mode: screen;
      }

      .cls-18 {
        isolation: isolate;
      }

      .cls-19 {
        fill: #fec34e;
      }

      .cls-20 {
        fill: #85523a;
      }

      .cls-20, .cls-21 {
        opacity: .33;
      }

      .cls-22 {
        fill: #312017;
      }

      .cls-23 {
        fill: #fdc792;
      }

      .cls-24, .cls-21 {
        fill: #6c412c;
      }
    </style>
  </defs>
  <g class="cls-18">
    <g id="Layer_2" data-name="Layer 2">
      <g id="Layer_1-2" data-name="Layer 1">
        <g>
          <g>
            <polygon class="cls-19" points="53.78 140.86 66.26 132.61 62.71 55.3 53.79 55.3 53.58 55.3 44.65 55.3 41.1 132.61 53.58 140.86 53.58 140.99 53.68 140.92 53.78 140.99 53.78 140.86"/>
            <path class="cls-15" d="M46.91,82.04c.55-.68.99-1.46,1.21-2.31.22-.84.13-1.65-.12-2.47-.6-1.98-1.85-3.77-3.12-5.37-.3-.38-.62-.76-.94-1.14l-.66,14.26c1.34-.82,2.63-1.75,3.63-2.96Z"/>
            <path class="cls-15" d="M46.26,102.82c1.95-1.75,3.67-4.11,3.98-6.78.14-1.21-.07-2.35-.48-3.49-.39-1.08-.78-2.15-1.28-3.18-.27-.55-.56-1.08-.92-1.58-.28-.38-.62-.77-1.06-.97-.86-.38-1.74.42-2.24,1.03-.47.56-.85,1.19-1.19,1.84l-.72,15.75c1.43-.68,2.76-1.59,3.91-2.63Z"/>
            <path class="cls-15" d="M59.89,70.34c-.82.94-1.45,2.07-1.9,3.23-.33.86-.63,1.84-.49,2.77.26,1.66,1.81,2.81,3.21,3.53.98.5,2.07.88,3.18,1.09l-.52-11.41c-.28-.2-.58-.37-.9-.48-1-.34-1.98.59-2.57,1.28Z"/>
            <path class="cls-15" d="M54.08,82.7s-.01,0-.02,0c-.56.2-1.02.69-1.36,1.16-.84,1.17-1.37,2.79-1.13,4.23.11.65.4,1.28.94,1.69.7.53,1.62.61,2.46.55.9-.07,1.61-.52,1.98-1.35.37-.84.37-1.83.18-2.71-.34-1.64-1.43-3.22-3.06-3.58Z"/>
            <path class="cls-15" d="M44.9,119.4c1.06-1.03,1.6-2.46,1.33-3.93-.22-1.19-.65-2.36-1.19-3.44-.51-1-1.19-2.13-2.22-2.65-.22-.11-.43-.16-.63-.18l-.53,11.54c1.19.02,2.37-.48,3.25-1.34Z"/>
            <path class="cls-15" d="M52.99,119.31c-.72-.56-1.8-.98-2.68-.54-.56.28-.88.79-1.07,1.37-.14.81-.16,1.65-.04,2.45.15.96.59,1.99,1.68,2.07.97.07,2.04-.34,2.79-.94.52-.42.77-1,.78-1.66.02-1.09-.63-2.1-1.47-2.75Z"/>
            <path class="cls-15" d="M57.06,98.39c-.59-.16-1.21-.26-1.81-.07-.75.24-1.39.79-1.93,1.35-1.37,1.42-2.42,3.25-3.09,5.11-.28.79-.53,1.63-.54,2.48-.01.65.21,1.24.47,1.83.74,1.74,1.74,3.4,2.83,4.94.54.77,1.12,1.52,1.77,2.2.43.45.93.95,1.53,1.17,1.7.61,3.48,0,4.88-1.02,1.61-1.17,2.89-2.78,4.04-4.39.04-.05.07-.1.11-.15l-.42-9.09c-.88-.68-1.81-1.31-2.74-1.9-1.58-.99-3.28-1.98-5.09-2.46Z"/>
            <path class="cls-15" d="M61.65,88.24c-.89,1.19-1.22,2.68-1.3,4.14-.08,1.38.04,2.85,1.11,3.85.87.81,2.06,1.19,3.12,1.66.03.01.06.03.09.04l-.54-11.66c-.96.48-1.84,1.1-2.48,1.97Z"/>
            <path class="cls-6" d="M46.1,70.17c3.76,1.34,8,1.32,11.85.42,1.82-.42,3.68-1.07,5.36-1.99l-.61-13.3h-18.05l-.64,13.93c.67.38,1.37.69,2.09.95Z"/>
            <path class="cls-6" d="M65.63,119.25c-1.8,2.81-4.32,5.15-7.5,6.29-3.25,1.16-7.01,1.15-10.15-.33-2.64-1.24-4.71-3.4-6.27-5.83l-.61,13.23,12.48,8.24v.13l.1-.07.1.07v-.13l12.48-8.24-.62-13.39s-.01.02-.02.03Z"/>
            <g>
              <g>
                <path class="cls-12" d="M49.75,4.49c-.26-.49-.86-.71-1.37-.86-.11-.03-.22-.06-.34-.09.42-.47.79-.99,1.21-1.47.07-.08.09-.19-.02-.23-.62-.24-1.38-.25-2.03-.18-.05,0-.11.01-.17.02.14-.4.27-.8.41-1.2.03-.09-.03-.16-.12-.17-.59-.05-1.23.1-1.79.27-.38.12-.78.26-1.14.46-.07-.34-.16-.68-.31-1-.04-.09-.2-.05-.25,0-.54.4-1.08.81-1.54,1.3-.29.31-.56.66-.74,1.05-.9-.6-2.26-.31-3.19.05-.09.03-.15.13-.14.22.03.28.19.55.35.78.16.23.34.44.53.64-.4.08-.85.21-1.13.5-.39.41-.04.88.29,1.21.44.44.96.78,1.48,1.11.15.09.3.18.45.27-.02.01-.05.03-.07.04-.31.19-.75.5-.8.9-.01.13.02.27.13.34.12.08.28.07.41.06.29-.04.57-.15.84-.27.01.11.03.22.04.33.05.38.11.75.16,1.13.22.65.35,1.32.45,1.99.1.69.17,1.39.25,2.08.09.74.23,1.47.33,2.21.14.98.28,1.96.42,2.93.9-.21,1.79-.53,2.62-.93,1.2-.58,2.44-1.4,3.02-2.65.12-.27.2-.53.23-.81-.24-1.59-.49-3.18-.74-4.76-.13-.53-.26-1.06-.37-1.59-.05-.24-.09-.48-.12-.73.04,0,.07,0,.11,0,.41.02.86.01,1.25-.1.1-.03.25-.15.17-.27-.2-.3-.47-.55-.76-.76-.09-.06-.19-.12-.29-.18.12-.06.23-.12.35-.18.32-.17.62-.37.9-.6.28-.22.55-.46.88-.62.1-.05.18-.15.13-.26Z"/>
                <path class="cls-24" d="M49.75,4.49c-.26-.49-.86-.71-1.37-.86-.11-.03-.22-.06-.34-.09.42-.47.79-.99,1.21-1.47.07-.08.09-.19-.02-.23-.62-.24-1.38-.25-2.03-.18-.05,0-.11.01-.17.02.14-.4.27-.8.41-1.2.03-.09-.03-.16-.12-.17-.59-.05-1.23.1-1.79.27-.38.12-.78.26-1.14.46-.07-.34-.16-.68-.31-1-.04-.09-.2-.05-.25,0-.54.4-1.08.81-1.54,1.3-.29.31-.56.66-.74,1.05-.9-.6-2.26-.31-3.19.05-.09.03-.15.13-.14.22.03.28.19.55.35.78.14.21.3.4.47.58-.14.02-.29.03-.42.06-.26.06-.49.2-.72.33-.37.21-.98.55-1,1.04,0,.25.19.42.37.56.23.18.48.35.72.52.51.38,1.1.65,1.72.76.03,0,.06,0,.08.01-.18.16-.34.34-.47.54-.14.21-.27.42-.38.65-.1.21-.2.45-.19.68.04.94,1.87.02,2.26-.19.24-.13.46-.29.66-.48,0,.14,0,.28.03.42.03.21.06.48.22.64.06.07.15.05.22,0,.54-.35.91-.88,1.2-1.44.1-.12.19-.25.28-.38,0,.05.02.11.03.16.05.23.12.45.23.65.09.17.2.38.4.44.41.12.68-.47.84-.74.14-.25.27-.5.4-.76.08.07.16.14.25.19.44.3,1,.47,1.52.53.23.02.45,0,.68-.05.28-.06.59-.15.79-.37.42-.46-.08-1.02-.43-1.33-.18-.16-.38-.31-.56-.46.03-.02.07-.04.1-.05.32-.17.62-.37.9-.6.28-.22.55-.46.88-.62.1-.05.18-.15.13-.26Z"/>
              </g>
              <g>
                <path class="cls-12" d="M60.43,4.49c.26-.49.86-.71,1.37-.86.11-.03.22-.06.34-.09-.42-.47-.79-.99-1.21-1.47-.07-.08-.09-.19.02-.23.62-.24,1.38-.25,2.03-.18.05,0,.11.01.17.02-.14-.4-.27-.8-.41-1.2-.03-.09.03-.16.12-.17.59-.05,1.23.1,1.79.27.38.12.78.26,1.14.46.07-.34.16-.68.31-1,.04-.09.2-.05.25,0,.54.4,1.08.81,1.54,1.3.29.31.56.66.74,1.05.9-.6,2.26-.31,3.19.05.09.03.15.13.14.22-.03.28-.19.55-.35.78-.16.23-.34.44-.53.64.4.08.85.21,1.13.5.39.41.04.88-.29,1.21-.44.44-.96.78-1.48,1.11-.15.09-.3.18-.45.27.02.01.05.03.07.04.31.19.75.5.8.9.01.13-.02.27-.13.34-.12.08-.28.07-.41.06-.29-.04-.57-.15-.84-.27-.01.11-.03.22-.04.33-.05.38-.11.75-.16,1.13-.22.65-.35,1.32-.45,1.99-.1.69-.17,1.39-.25,2.08-.09.74-.23,1.47-.33,2.21-.14.98-.28,1.96-.42,2.93-.9-.21-1.79-.53-2.62-.93-1.2-.58-2.44-1.4-3.02-2.65-.12-.27-.2-.53-.23-.81.24-1.59.49-3.18.74-4.76.13-.53.26-1.06.37-1.59.05-.24.09-.48.12-.73-.04,0-.07,0-.11,0-.41.02-.86.01-1.25-.1-.1-.03-.25-.15-.17-.27.2-.3.47-.55.76-.76.09-.06.19-.12.29-.18-.12-.06-.23-.12-.35-.18-.32-.17-.62-.37-.9-.6-.28-.22-.55-.46-.88-.62-.1-.05-.18-.15-.13-.26Z"/>
                <path class="cls-24" d="M60.56,4.75c.32.16.6.4.88.62.29.23.58.43.9.6.03.02.07.04.1.05-.19.15-.38.3-.57.46-.35.31-.85.88-.43,1.33.2.22.51.31.79.37.23.05.45.07.68.05.53-.06,1.08-.23,1.52-.53.09-.06.17-.12.25-.19.12.26.26.51.4.76.15.28.42.86.84.74.2-.06.31-.27.4-.44.11-.21.18-.42.23-.65.01-.05.02-.1.03-.16.09.13.19.25.28.38.3.56.67,1.09,1.2,1.44.07.05.16.06.22,0,.16-.16.19-.43.22-.64.02-.14.02-.28.03-.42.2.18.42.35.66.48.39.21,2.21,1.13,2.26.19.01-.24-.09-.47-.19-.68-.11-.23-.24-.44-.38-.65-.14-.2-.3-.38-.47-.54.03,0,.06,0,.08-.01.63-.11,1.22-.37,1.72-.76.24-.18.48-.34.72-.52.18-.14.37-.32.37-.56-.02-.49-.63-.83-1-1.04-.23-.14-.46-.27-.72-.33-.13-.03-.27-.05-.42-.06.17-.18.33-.37.47-.58.16-.23.32-.5.35-.78.01-.09-.05-.19-.14-.22-.93-.36-2.29-.65-3.19-.05-.18-.39-.45-.74-.74-1.05-.46-.49-1-.9-1.54-1.3-.05-.04-.21-.08-.25,0-.15.32-.25.66-.31,1-.36-.2-.76-.34-1.14-.46-.56-.17-1.2-.33-1.79-.27-.09,0-.15.08-.12.17.14.4.27.8.41,1.2-.06,0-.12-.02-.17-.02-.66-.07-1.41-.06-2.03.18-.11.04-.09.16-.02.23.42.48.79,1,1.21,1.47-.11.03-.23.06-.34.09-.5.15-1.11.36-1.37.86-.06.11.03.21.13.26Z"/>
              </g>
              <g>
                <path class="cls-14" d="M40.75,16.94s-.07-1.11-9.27-3.73c-8.48-2.41-12.27-5.46-13.01-1.29-.74,4.17,1.66,18.74,13.2,17.2,11.54-1.54,9.08-12.19,9.08-12.19Z"/>
                <path class="cls-24" d="M21.11,17.44c.42,1.46,1.05,2.87,1.86,4.16.67,1.07,1.45,2.08,2.41,2.9,1.73,1.46,3.93,2.33,6.15,2.69,2.09.34,4.29.23,6.29-.5,4.34-3.63,2.93-9.75,2.93-9.75,0,0-.07-1.11-9.27-3.73-4.84-1.38-8.15-2.96-10.23-3.29-.95,2.37-.83,5.07-.13,7.5Z"/>
                <path class="cls-13" d="M40.75,16.94s-.07-1.11-9.27-3.73c-7.21-2.05-11.03-4.56-12.46-2.7,3.46-1.08,13.44,6.55,13.54,6.65.11.11-1.11-.3-1.41-.38-.22-.06-.44-.11-.66-.15.74.54,1.4,1.19,1.73,2.05.05.12-.98-.29-1.38-.49-.28-.14-.61-.28-.93-.3.73.64,1.31,1.43,1.7,2.32.77,1.74.87,3.68,1.04,5.54.09,1.04.2,2.1.44,3.12,9.91-2.19,7.66-11.94,7.66-11.94Z"/>
                <path class="cls-6" d="M40.75,16.94s-.02-.35-1.66-1.11c-.72.46-1.38.99-1.98,1.59-1.89,1.88-3.18,4.34-3.81,6.93-.27,1.1-.42,2.23-.43,3.36.06.39.13.78.22,1.17,9.91-2.19,7.66-11.94,7.66-11.94Z"/>
              </g>
              <g>
                <path class="cls-14" d="M68.47,16.94s.07-1.11,9.27-3.73c8.48-2.41,12.27-5.46,13.01-1.29.74,4.17-1.66,18.74-13.2,17.2-11.54-1.54-9.08-12.19-9.08-12.19Z"/>
                <path class="cls-24" d="M88.11,17.44c-.42,1.46-1.05,2.87-1.86,4.16-.67,1.07-1.45,2.08-2.41,2.9-1.73,1.46-3.93,2.33-6.15,2.69-2.09.34-4.29.23-6.29-.5-4.34-3.63-2.93-9.75-2.93-9.75,0,0,.07-1.11,9.27-3.73,4.84-1.38,8.15-2.96,10.23-3.29.95,2.37.83,5.07.13,7.5Z"/>
                <path class="cls-13" d="M68.47,16.94s.07-1.11,9.27-3.73c7.21-2.05,11.03-4.56,12.46-2.7-3.46-1.08-13.44,6.55-13.54,6.65-.11.11,1.11-.3,1.41-.38.22-.06.44-.11.66-.15-.74.54-1.4,1.19-1.73,2.05-.05.12.98-.29,1.38-.49.28-.14.61-.28.93-.3-.73.64-1.31,1.43-1.7,2.32-.77,1.74-.87,3.68-1.04,5.54-.09,1.04-.2,2.1-.44,3.12-9.91-2.19-7.66-11.94-7.66-11.94Z"/>
                <path class="cls-6" d="M68.47,16.94s.02-.35,1.66-1.11c.71.46,1.38.99,1.98,1.59,1.89,1.88,3.18,4.34,3.81,6.93.27,1.1.42,2.23.43,3.36-.06.39-.13.78-.22,1.17-9.91-2.19-7.66-11.94-7.66-11.94Z"/>
              </g>
              <path class="cls-19" d="M67.12,14.35c-3.89-2.96-10.25-3.01-12.57-2.92-2.32-.08-8.67,0-12.55,2.97-4.81,3.69-12.13,21.15-10.86,26.09,1.27,4.95,7.37,19.96,20.54,22.27h5.97c13.16-2.38,19.19-17.42,20.44-22.37,1.25-4.95-6.15-22.37-10.98-26.05Z"/>
              <path class="cls-6" d="M72.95,45.85c-1.11-2.03-2.47-4.03-4.26-5.53-3.68-3.09-8.6-4.59-13.35-4.69-4.44-.09-8.99.9-12.84,3.16-1.9,1.11-3.61,2.52-5.12,4.12-.7.75-1.42,1.54-1.97,2.42-.46.74-.84,1.57-1.45,2.2-.02.02-.04.04-.06.06,3.12,6.16,8.81,13.62,17.77,15.19h5.97c8.21-1.49,13.65-7.9,16.88-13.72-.49-1.09-1-2.16-1.58-3.21Z"/>
              <path class="cls-14" d="M62.51,13.14c-.68,1.21-.93,2.88-.28,4.15.54,1.05,1.59,1.66,2.53,2.29.49.33.97.67,1.39,1.08.46.45.83.98,1.08,1.57.54,1.26.53,2.65.57,3.99.04,1.3.16,2.66.99,3.72.46.58,1.11,1.1,1.8,1.36.52.2,1.09.25,1.65.24,1.31-.04,2.59-.4,3.85-.74.09-.02.18-.05.27-.07-2.29-6.58-6.22-14.07-9.19-16.34-1.2-.92-2.64-1.56-4.12-2-.2.23-.39.48-.54.75Z"/>
              <path class="cls-14" d="M34.78,40.5c.35-.8.66-1.66.71-2.54.03-.48-.06-.94-.18-1.4-.13-.51-.32-1.01-.62-1.44-.45-.64-1.14-.95-1.92-.88-.37.03-.73.14-1.07.28-.64,2.51-.9,4.65-.57,5.93.27,1.07.77,2.6,1.51,4.37.67-1.46,1.5-2.85,2.14-4.33Z"/>
              <path class="cls-14" d="M49.32,13.75c-.8-.13-1.55-.03-2.14.39-1.15.81-1.78,2.45-1.42,3.81.25.93.89,1.72,1.67,2.28,1.62,1.16,3.99,1.52,5.69.32,3.19-2.25-.65-6.3-3.8-6.8Z"/>
              <path class="cls-14" d="M59.95,20.95c-.31-.05-.6-.01-.83.15-.45.32-.69.95-.55,1.48.1.36.35.67.65.89.63.45,1.55.59,2.21.13,1.24-.87-.25-2.45-1.48-2.64Z"/>
              <path class="cls-14" d="M42.54,21.52c-1.78-.58-3.75.27-4.86,1.7,0,0,0,0-.01,0-.27.48-.4,1.02-.37,1.58.07,1.22.91,2.39,2.09,2.73,1.7.5,3.23-.88,4.09-2.2.46-.72.83-1.62.55-2.48-.22-.67-.83-1.13-1.49-1.34Z"/>
              <path class="cls-14" d="M76.02,35.34c-.47.2-.86.57-1.06,1.04-.26.6-.2,1.28-.01,1.9.27.88.81,1.66,1.29,2.43.41.67.74,1.36.75,2.16,0,.52-.1,1.03-.23,1.53.64-1.59,1.08-2.97,1.33-3.95.29-1.14.12-2.95-.37-5.11-.53-.21-1.13-.25-1.7,0Z"/>
              <g>
                <g>
                  <path class="cls-10" d="M48.45,32.36c0,2.52-2.04,4.55-4.55,4.55s-4.55-2.04-4.55-4.55,2.04-4.55,4.55-4.55,4.55,2.04,4.55,4.55Z"/>
                  <g>
                    <path class="cls-3" d="M47.3,32.36c0,1.88-1.52,3.4-3.4,3.4s-3.4-1.52-3.4-3.4,1.52-3.4,3.4-3.4,3.4,1.52,3.4,3.4Z"/>
                    <g>
                      <path class="cls-22" d="M46.09,32.36c0,1.21-.98,2.19-2.19,2.19s-2.19-.98-2.19-2.19.98-2.19,2.19-2.19,2.19.98,2.19,2.19Z"/>
                      <path class="cls-10" d="M43.31,30.97c0,.44-.36.8-.8.8s-.8-.36-.8-.8.36-.8.8-.8.8.36.8.8Z"/>
                    </g>
                  </g>
                </g>
                <g>
                  <path class="cls-10" d="M69.02,32.36c0,2.52-2.04,4.55-4.55,4.55s-4.55-2.04-4.55-4.55,2.04-4.55,4.55-4.55,4.55,2.04,4.55,4.55Z"/>
                  <g>
                    <path class="cls-3" d="M67.87,32.36c0,1.88-1.52,3.4-3.4,3.4s-3.4-1.52-3.4-3.4,1.52-3.4,3.4-3.4,3.4,1.52,3.4,3.4Z"/>
                    <g>
                      <path class="cls-22" d="M66.66,32.36c0,1.21-.98,2.19-2.19,2.19s-2.19-.98-2.19-2.19.98-2.19,2.19-2.19,2.19.98,2.19,2.19Z"/>
                      <path class="cls-10" d="M63.88,30.97c0,.44-.36.8-.8.8s-.8-.36-.8-.8.36-.8.8-.8.8.36.8.8Z"/>
                    </g>
                  </g>
                </g>
              </g>
              <path class="cls-11" d="M68.53,39.74c-.15,0-.31-.04-.45-.11-13.8-7.17-26.94-.08-27.07-.01-.48.26-1.07.09-1.34-.39-.26-.48-.09-1.07.38-1.34.14-.08,3.59-1.97,8.88-2.92,4.89-.88,12.34-1.1,20.05,2.91.48.25.67.85.42,1.33-.18.34-.52.53-.87.53Z"/>
              <g>
                <path class="cls-23" d="M67.94,42.39c-1.91-2.2-4.32-4.04-7-5.2-4.1-1.76-9.34-1.62-13.48-.06-2.86,1.08-5.35,2.96-7.34,5.26-6.39,7.37-8.62,15.03,2.52,20.62.6.3,1.2.57,1.8.82,2.29,1.18,5.69,2.03,9.6,1.98,3.91.05,7.31-.8,9.6-1.98.6-.25,1.2-.52,1.8-.82,11.13-5.59,8.91-13.25,2.52-20.62Z"/>
                <path class="cls-17" d="M42.39,41.07c2.51-1.83,5.42-3.17,8.48-3.76,1.51-.29,3.05-.4,4.58-.3,1.71.11,3.39.5,5,1.1,1.66.62,3.24,1.43,4.7,2.43.71.48,1.41,1.01,2.04,1.59.67.61,1.27,1.29,1.83,2,.55.7,1.06,1.42,1.56,2.16.48.71.97,1.41,1.45,2.13-.94-2-2.36-4.02-4.1-6.02-1.91-2.2-4.32-4.04-7-5.2-4.1-1.76-9.34-1.62-13.48-.06-2.86,1.08-5.35,2.96-7.34,5.26-1.23,1.42-2.3,2.84-3.16,4.26,1.47-2.16,3.33-4.05,5.43-5.59Z"/>
                <g>
                  <path class="cls-24" d="M50.69,46.23s.72-2.13-.84-2.84c-1.56-.71.22,4.58.84,2.84Z"/>
                  <path class="cls-21" d="M53,45.5c-.22-.92-.55-1.82-.98-2.66-.44-.87-1.02-1.78-1.9-2.25-.74-.4-1.8-.47-2.4.21-.57.64-.64,1.63-.59,2.45.05.9.24,1.85.73,2.62.03.04.11-.02.08-.06-.17-.28-.25-.62-.31-.94-.09-.42-.16-.85-.19-1.28-.06-.79-.05-1.73.37-2.43.17-.27.41-.46.72-.52.42-.07.87,0,1.25.19.83.41,1.39,1.23,1.81,2.02.48.89.78,1.84,1.18,2.76.05.12.25.01.22-.1Z"/>
                </g>
                <g>
                  <path class="cls-24" d="M56.65,46.23s-.72-2.13.84-2.84c1.56-.71-.22,4.58-.84,2.84Z"/>
                  <path class="cls-21" d="M54.34,45.5c.22-.92.55-1.82.98-2.66.44-.87,1.02-1.78,1.9-2.25.74-.4,1.8-.47,2.4.21.57.64.64,1.63.59,2.45-.05.9-.24,1.85-.73,2.62-.03.04-.11-.02-.08-.06.17-.28.25-.62.31-.94.09-.42.16-.85.19-1.28.06-.79.05-1.73-.37-2.43-.17-.27-.41-.46-.72-.52-.42-.07-.87,0-1.25.19-.83.41-1.39,1.23-1.81,2.02-.48.89-.78,1.84-1.18,2.76-.05.12-.25.01-.22-.1Z"/>
                </g>
              </g>
              <g>
                <path class="cls-20" d="M69.81,55.29c0-.21-.03-.43-.15-.6-.04-.06-.11-.11-.18-.13-.1-.03-.17-.02-.26.02-.24.11-.41.35-.54.56-.09.15-.18.33-.21.5.1-.04.2-.09.3-.13.05-.02.1-.04.15-.06,0,0,0,0,0,0-.29.64-.62,1.25-1.04,1.83-.56.77-1.24,1.46-1.98,2.08-1.48,1.25-3.21,2.23-5.01,2.99-1.86.78-3.83,1.28-5.84,1.54-2.15.27-4.35.27-6.49-.05-2.1-.31-4.2-.9-6.09-1.85-.23-.12-.46-.24-.68-.37-.03-.02-.08.03-.05.05.89.57,1.82,1.06,2.8,1.44,1.01.39,2.06.69,3.13.89,2.17.41,4.4.5,6.6.29,2.09-.2,4.16-.65,6.12-1.4,1.87-.71,3.66-1.67,5.23-2.89,1.53-1.19,2.95-2.68,3.66-4.49.02-.04.03-.09.05-.13.1,0,.2.03.3.09.05.03.11.03.17,0,0-.06,0-.11,0-.17Z"/>
                <path class="cls-20" d="M71.63,53.05c-.05-.2-.12-.39-.2-.57-.22-.49-.62-.95-1.22-.94-.55.01-1.01.35-1.41.69-.49.41-.95.88-1.32,1.4-.04.06-.09.12-.13.19-.05.17-.08.34-.09.52,0,.01,0,.03,0,.04.1-.21.25-.41.36-.56.34-.46.76-.88,1.2-1.26.33-.28.7-.61,1.14-.68.51-.08.87.3,1.08.71.26.51.32,1.06.43,1.62.08-.38.14-.77.17-1.16Z"/>
              </g>
            </g>
          </g>
          <g>
            <g>
              <g>
                <path class="cls-9" d="M33.6,178.1c-1.8-2.76-3.98-5.28-6.52-7.39-2.45-2.03-5.26-3.7-8.32-4.63-1.84-.56-3.79-.85-5.7-.62-2.03.57-3.97,1.56-5.51,3.14-3.61,3.72-4.36,9.99-3.39,15.43.99,5.5,2.8,10.82,5.06,15.79.84,1.85,3.66,8.67,6.33,11.38.68-1.06,1.32-2.15,1.99-3.21.53-.85,1.06-1.69,1.6-2.53.42-.65.84-1.3,1.33-1.89.83-1.01,1.84-1.89,3.03-2.45,1.18-.55,2.48-.77,3.78-.7.78.04,1.55.19,2.31.3.78.12,1.56.23,2.34.32,1.36.16,2.73.26,4.11.2,1.16-.05,2.3-.23,3.4-.51.67-4.31-.6-10.21-2.22-15.59-.96-2.46-2.17-4.83-3.62-7.04Z"/>
                <path class="cls-16" d="M9.54,181.92c.6-.66.98-1.5,1.03-2.39.07-1.14-.37-2.2-.87-3.21-.74-1.46-2.6-4.49-4.52-4.08-1.47,3.41-1.7,7.6-1.08,11.42.17.03.34.06.51.07,1.78.16,3.72-.47,4.93-1.82Z"/>
                <path class="cls-16" d="M9.7,171.08c.62.18,1.4.15,2-.08,1.25-.48,1.49-1.97,1.49-3.14,0-.79-.1-1.58-.26-2.36-1.33.38-2.61.95-3.77,1.75-.38.88-.82,2.1-.41,3.04.17.41.53.67.95.79Z"/>
                <path class="cls-16" d="M14.62,170.7c-.06,2.19,1.01,4.25,2.6,5.7.45.41.94.77,1.46,1.09.55.33,1.13.64,1.77.76.38.08.82.07,1.11-.23.28-.29.37-.73.42-1.12.16-1.15.07-2.35.05-3.51-.01-1.19-.08-2.38-.23-3.56-.13-.96-.31-1.92-.6-2.84-.79-.35-1.6-.66-2.43-.92-.46-.14-.94-.26-1.41-.36-1.59,1.18-2.67,2.95-2.73,4.97Z"/>
                <path class="cls-16" d="M14.38,180.17s-.02,0-.03,0c-.2.28-.29.64-.31.98-.06,1.06.35,2.16.95,3.02.49.69,1.33,1.43,2.23,1.05,1.28-.55.92-2.26.43-3.23-.6-1.18-1.85-2.33-3.26-1.82Z"/>
                <path class="cls-16" d="M18.53,190.64c-.71-.64-1.87-1.45-2.89-1.13-.17.06-.28-.12-.24-.26-.04.03-.08.07-.11.11-.27.35-.16.86-.03,1.24.36,1.01,1.18,1.92,2.07,2.5.4.26.87.49,1.37.51.39.02.92-.12,1.1-.51.17-.37-.01-.82-.19-1.15-.27-.5-.65-.94-1.07-1.32Z"/>
                <path class="cls-7" d="M4.37,181.17c.09-2.33.35-4.71,1.16-6.91.82-2.23,2.21-4.12,4.16-5.49,1.82-1.28,3.93-2.09,6.15-2.27,2.27-.18,4.5.28,6.61,1.11-1.18-.62-2.41-1.14-3.68-1.52-1.84-.56-3.79-.85-5.7-.62-2.03.57-3.97,1.56-5.51,3.14-3.61,3.72-4.36,9.99-3.39,15.43.09.49.19.98.29,1.46-.11-1.44-.14-2.88-.08-4.33Z"/>
              </g>
              <g>
                <path class="cls-7" d="M17.78,196.65c-2.89,1.28-5.65,2.88-8.21,4.73-2.11,1.52-4.1,3.21-5.92,5.06,1.17,1.45,2.55,2.72,4.09,3.75,2.05,1.38,4.42,2.42,6.95,2.25,5.42-.37,6.72-7.3,4.68-11.54-.44-1.45-.97-2.87-1.58-4.25Z"/>
                <path class="cls-8" d="M18.72,198.72c-1.46-3.63-3.49-7.13-6.57-9.63-1.29-1.05-2.84-1.99-4.55-2.03-.37.12-.74.29-1.09.51-.83.52-1.4,1.42-1.28,2.41.1.86,1.43,3.99,1.73,4.69-.27-.36-.53-.72-.81-1.07,0,0,0,0-.01-.01-.26-.5-2.08-3.22-3.1-3.35-1.45-.18-2.34,1.17-2.86,2.59-.16,1.48-.24,2.96-.13,4.44.27,3.81,1.95,7.54,4.62,10.28.76.78,1.61,1.46,2.51,2.06.16.02.32.05.49.06,2.5.14,4.95-.76,7.04-2.07,1.78-1.11,4.06-2.67,4.79-4.73.15-.44.23-.89.25-1.35-.32-.94-.65-1.88-1.02-2.8Z"/>
                <path class="cls-5" d="M18.72,198.72c-.55-1.36-1.18-2.71-1.91-3.99.23.57.43,1.15.58,1.75.63,2.47.37,5.09-1.28,7.12-.99,1.21-2.3,2.09-3.69,2.77-1.51.73-3.18,1.24-4.87,1.19-1.59-.04-3.06-.64-4.23-1.72-.12-.11-.24-.23-.35-.35.51.74,1.07,1.43,1.7,2.07.76.78,1.61,1.46,2.51,2.06.16.02.32.05.49.06,2.5.14,4.95-.76,7.04-2.07,1.78-1.11,4.06-2.67,4.79-4.73.15-.44.23-.89.25-1.35-.32-.94-.65-1.88-1.02-2.8Z"/>
              </g>
            </g>
            <g>
              <g>
                <path class="cls-9" d="M76.38,178.1c1.8-2.76,3.98-5.28,6.52-7.39,2.45-2.03,5.26-3.7,8.32-4.63,1.84-.56,3.79-.85,5.7-.62,2.03.57,3.97,1.56,5.51,3.14,3.61,3.72,4.36,9.99,3.39,15.43-.99,5.5-2.8,10.82-5.06,15.79-.84,1.85-3.66,8.67-6.33,11.38-.68-1.06-1.32-2.15-1.99-3.21-.53-.85-1.06-1.69-1.6-2.53-.42-.65-.84-1.3-1.33-1.89-.83-1.01-1.84-1.89-3.03-2.45-1.18-.55-2.48-.77-3.78-.7-.78.04-1.55.19-2.31.3-.78.12-1.55.23-2.34.32-1.36.16-2.73.26-4.11.2-1.16-.05-2.3-.23-3.4-.51-.67-4.31.6-10.21,2.22-15.59.96-2.46,2.17-4.83,3.62-7.04Z"/>
                <g>
                  <path class="cls-16" d="M90.53,169.63c-.95-.06-2.08.13-2.82.78-.07.08-.14.17-.21.27-.44.65-.55,1.45-.47,2.22.18,1.71,1.19,3.4,2.5,4.48.55.45,1.23.84,1.96.88.29.02.65,0,.9-.17.29-.2.45-.57.56-.89.37-1.03.46-2.17.46-3.26,0-.98-.02-2.05-.36-2.99-.34-.94-1.62-1.27-2.53-1.32Z"/>
                  <path class="cls-16" d="M92.97,183.41c-1.21-.71-2.87-1.06-4.18-.43-1.41.68-1.8,2.2-1.78,3.66.71,1.18,1.93,2.09,3.23,2.48.89.27,1.9.33,2.76-.06.95-.43,1.57-1.35,1.81-2.35.33-1.4-.7-2.63-1.83-3.3Z"/>
                  <path class="cls-16" d="M84.45,191.6c-.51-.19-1.05-.18-1.56-.06-.29.22-.48.55-.59.9-.22.7-.19,1.54.12,2.2.3.63.84.97,1.52.72.55-.2,1.09-.65,1.4-1.14.3-.47.4-1.03.21-1.56-.18-.5-.61-.88-1.1-1.07Z"/>
                  <path class="cls-16" d="M95.8,178.76c-.26.14-.47.36-.57.68-.15.48-.06,1.03.26,1.43.36.44,1.05.67,1.57.39.52-.27.39-.92.15-1.38-.28-.53-.8-1.02-1.41-1.13Z"/>
                  <path class="cls-16" d="M99.84,181.99c-.21.83-.27,1.83.14,2.62.62,1.21,2.11,1.43,3.33,1.21.83-.15,1.63-.48,2.35-.94.05-.28.12-.56.17-.84.44-2.43.52-5.02.17-7.48-1.62.41-3.15,1.3-4.31,2.42-.85.83-1.55,1.84-1.84,3Z"/>
                  <path class="cls-16" d="M97.76,169.21c-.24.17-.46.39-.64.62-.79,1-1.23,2.49-.82,3.73.21.63.67,1.12,1.27,1.38.67.29,1.54.4,2.23.13,1.27-.5,1.26-2.09.87-3.17-.49-1.31-1.59-2.29-2.91-2.69Z"/>
                </g>
                <path class="cls-7" d="M105.61,181.17c-.09-2.33-.35-4.71-1.16-6.91-.82-2.23-2.21-4.12-4.16-5.49-1.82-1.28-3.93-2.09-6.15-2.27-2.27-.18-4.5.28-6.61,1.11,1.18-.62,2.41-1.14,3.68-1.52,1.84-.56,3.79-.85,5.7-.62,2.03.57,3.97,1.56,5.51,3.14,3.61,3.72,4.36,9.99,3.39,15.43-.09.49-.19.98-.29,1.46.11-1.44.14-2.88.08-4.33Z"/>
              </g>
              <g>
                <path class="cls-7" d="M89.58,196.65c2.89,1.28,5.65,2.88,8.21,4.73,2.11,1.52,4.1,3.21,5.92,5.06-1.17,1.45-2.55,2.72-4.09,3.75-2.05,1.38-4.42,2.42-6.95,2.25-5.42-.37-6.72-7.3-4.68-11.54.44-1.45.97-2.87,1.58-4.25Z"/>
                <path class="cls-8" d="M88.64,198.72c1.46-3.63,3.49-7.13,6.57-9.63,1.29-1.05,2.84-1.99,4.55-2.03.37.12.74.29,1.09.51.83.52,1.4,1.42,1.28,2.41-.1.86-1.43,3.99-1.73,4.69.27-.36.53-.72.81-1.07,0,0,0,0,.01-.01.26-.5,2.08-3.22,3.1-3.35,1.45-.18,2.34,1.17,2.86,2.59.16,1.48.24,2.96.13,4.44-.27,3.81-1.95,7.54-4.62,10.28-.76.78-1.61,1.46-2.51,2.06-.16.02-.32.05-.49.06-2.5.14-4.95-.76-7.04-2.07-1.78-1.11-4.06-2.67-4.79-4.73-.15-.44-.23-.89-.25-1.35.32-.94.65-1.88,1.02-2.8Z"/>
                <path class="cls-5" d="M88.64,198.72c.55-1.36,1.18-2.71,1.91-3.99-.23.57-.43,1.15-.58,1.75-.63,2.47-.37,5.09,1.28,7.12.99,1.21,2.3,2.09,3.69,2.77,1.51.73,3.18,1.24,4.87,1.19,1.59-.04,3.06-.64,4.23-1.72.12-.11.24-.23.35-.35-.51.74-1.07,1.43-1.7,2.07-.76.78-1.61,1.46-2.51,2.06-.16.02-.32.05-.49.06-2.5.14-4.95-.76-7.04-2.07-1.78-1.11-4.06-2.67-4.79-4.73-.15-.44-.23-.89-.25-1.35.32-.94.65-1.88,1.02-2.8Z"/>
              </g>
            </g>
          </g>
          <g>
            <g>
              <path class="cls-19" d="M71.66,188.96c.19-3.74.42-7.46.48-11.21.06-3.96,0-7.92-.15-11.87-.28-7.37-.87-14.71-1.53-22.05-.49-5.44-1.06-10.88-1.95-16.27l-8.69-.13v-.16s-5.46.08-5.46.08l-5.45-.08v.16s-6.52.1-6.52.1c-2.09,7.08-3.6,14.33-4.86,21.6-1.3,7.54-2.11,15.15-2.3,22.8-.19,7.84.21,15.7,1.33,23.46.21,1.44.45,2.88.7,4.31,3.48.41,7.24.4,11.14.13,2.35-.17,4.31-.31,5.95-.42,1.65.12,3.61.26,5.95.42,3.69.26,7.25.29,10.57-.06.43-3.59.59-7.22.78-10.81Z"/>
              <path class="cls-15" d="M39.7,147.65c1.49.04,2.98-.16,4.42-.54,1.49-.4,2.93-1,4.21-1.86,1.2-.81,2.25-1.88,2.89-3.19.73-1.51.8-3.21.39-4.82-.39-1.52-1.27-2.91-2.83-3.41-1.49-.48-3.14-.16-4.59.33-1.44.49-2.8,1.2-4.07,2.03-.87,3.73-1.62,7.49-2.29,11.26.62.12,1.25.18,1.87.19Z"/>
              <path class="cls-15" d="M56.11,137.9c.42.26.9.4,1.38.4.39-.13.77-.28,1.12-.47.83-.45,1.67-1.16,1.8-2.15.15-1.22-.79-2.54-1.88-2.99-1.32-.54-2.9-.04-3.82,1.02-.19.22-.33.46-.43.72-.08.39-.1.79,0,1.19.23.94,1.01,1.8,1.83,2.29Z"/>
              <path class="cls-15" d="M61.25,140.89c-1.33.71-2.63,1.78-3.02,3.3-.39,1.54.31,3.16,1.27,4.34,2.01,2.46,5.41,3.76,8.54,3.65,1.08-.04,2.1-.28,3.05-.71-.2-2.54-.42-5.09-.65-7.63-.08-.93-.17-1.85-.26-2.78-.94-.46-1.94-.82-2.97-1.03-2.05-.42-4.13-.11-5.98.87Z"/>
              <path class="cls-23" d="M68.03,199.97c.62-4.2,1.03-8.44,1.2-12.68.21-5.24.09-10.52-.65-15.72-.65-4.55-1.75-9.16-3.93-13.25-2.03-3.81-5.48-7.82-10.1-8.12-5.15-.34-9.16,4.21-11.53,8.25-1.29,2.2-2.31,4.58-2.93,7.05-.38,1.51-.62,3.06-.82,4.6-.54,4.3-.76,8.66-.77,12.99-.01,4.71.2,9.49,1.17,14.11.19.92.42,1.84.7,2.74,2.58.13,5.27.07,8.03-.13,2.35-.17,4.31-.31,5.95-.42,1.65.12,3.61.26,5.95.42,2.65.19,5.24.25,7.71.15Z"/>
              <path class="cls-6" d="M71.9,166.34c-1.26,2.72-2.8,5.34-4.79,7.59-1.92,2.18-4.28,3.96-6.98,5.07-3.1,1.27-6.62,1.69-9.9.94-3.28-.76-6.17-2.69-8.39-5.2-2.29-2.59-3.93-5.73-4.94-9.03-.43-1.41-.76-2.85-1.01-4.3-.34,3.5-.56,7.01-.65,10.53-.19,7.84.21,15.7,1.33,23.46.21,1.44.45,2.88.7,4.31,3.48.41,7.24.4,11.14.13,2.35-.17,4.31-.31,5.95-.42,1.65.12,3.61.26,5.95.42,3.69.26,7.25.29,10.57-.06.43-3.59.59-7.22.78-10.81.19-3.74.42-7.46.48-11.21.06-3.88,0-7.75-.14-11.63-.03.07-.06.15-.1.22Z"/>
            </g>
            <g>
              <path class="cls-19" d="M47.45,135.73c.03-1.94-.3-3.92-.93-5.68-.45-1.25-1.1-2.45-2.05-3.35-1.05-1-2.42-1.52-3.81-1.7-3.2-.42-6.36,1.05-8.88,3.11-2.59,2.12-4.54,4.95-5.95,8.06-2.88,6.34-3.86,13.59-3.92,20.54,0,.21,0,.43,0,.64-.05,6.91.24,13.74,1.42,20.52.94,5.41,2.14,10.76,3.65,16.01.77,2.65,1.61,5.28,2.55,7.86.47,1.3.94,2.59,1.47,3.86.35.85.47,2.01,1.26,2.54.36.24.81.3,1.24.34,1.2.13,2.42.23,3.61-.03,1.62-.35,3.04-1.45,3.47-3.16,0-.32,0-.63-.02-.95-.08-1.82-.33-3.62-.61-5.42-.38-2.39-.82-4.86-.76-7.3-.54-6.87-.49-13.77.13-20.69.66-7.41,1.99-14.85,4.27-21.92,1.1-3.41,2.51-6.71,3.4-10.19.21-.82.4-1.68.55-2.54-.03-.19-.06-.38-.09-.57Z"/>
              <g>
                <path class="cls-15" d="M38.12,128.54c-1.79-.08-3.4,1.16-4.6,2.36,0,0,0,0,0,0-.31.68-.48,1.42-.5,2.17-.06,2.15.89,4.4,2.41,5.91.61.6,1.37,1.14,2.24,1.26.84.11,1.58-.27,2.12-.9,2-2.34,2.83-6.05,1.25-8.84-.61-1.08-1.64-1.91-2.92-1.96Z"/>
                <path class="cls-15" d="M43.58,148.77c-1.7-1.04-3.67-.48-5.23.55-1.76,1.16-3.19,2.85-4.24,4.67-.45.78-.87,1.63-1.08,2.51-.22.87-.09,1.8.21,2.64.65,1.82,2.15,3.39,3.88,4.23.81.39,1.72.62,2.63.56.14-.01.28-.03.42-.06.76-5.03,1.86-10.02,3.42-14.83.02-.07.05-.14.07-.21-.03-.02-.05-.04-.08-.05Z"/>
                <path class="cls-15" d="M25.27,171.71c1.24-1.35,2.13-3.23,2.25-5.07.07-1.04-.24-2.07-.6-3.05-.27-.73-.67-1.62-1.37-2.04-1.19-.7-2.3.83-2.8,1.71-.29.51-.53,1.06-.74,1.63.11,2.8.32,5.6.64,8.38.17-.02.34-.06.51-.11.82-.26,1.52-.82,2.1-1.45Z"/>
                <path class="cls-15" d="M38.75,169.74c-.65-1.2-1.51-2.46-2.84-2.97-3.38-1.3-5.93,2.61-7.04,5.23-.32.76-.59,1.55-.74,2.36-.13.68-.15,1.32.04,1.98.45,1.53,1.56,2.86,2.74,3.89,1.2,1.05,2.74,1.98,4.38,2.08.65.04,1.36-.05,1.9-.45.5-.37.86-.92,1.15-1.47.2-.37.37-.76.52-1.16.06-2.76.22-5.52.46-8.28,0-.02,0-.04,0-.06-.18-.39-.37-.78-.57-1.15Z"/>
                <path class="cls-15" d="M27.84,188.54s.02-.02.04-.06c.02-.03.04-.06.06-.09.04-.05.07-.11.1-.16.03-.06.07-.12.1-.18.01-.03.02-.05.04-.08,0,0,0-.02.01-.03,0-.01,0-.02.01-.03.05-.12.09-.25.12-.37.02-.07.03-.13.04-.2,0-.03.01-.07.02-.1,0,0,0-.04,0-.05.03-.26.04-.53.02-.79,0-.07-.01-.14-.02-.21,0-.05,0-.08-.02-.17-.02-.14-.05-.28-.09-.41-.25-1-.76-1.96-1.52-2.65-.04-.04-.09-.08-.13-.11-.02-.02-.04-.03-.06-.05,0,0,0,0,0,0,0,0,0,0,0,0-.01,0-.02-.02-.03-.03-.08-.06-.17-.12-.26-.17-.04-.03-.09-.05-.14-.07-.02,0-.04-.02-.06-.03-.01,0-.02,0-.03-.01-.08-.03-.17-.06-.26-.08-.02,0-.11-.01-.03,0-.02,0-.04,0-.06,0-.04,0-.08,0-.12,0-.03,0-.05,0-.08,0,0,0,0,0,0,0,0,0,0,0,0,0-.04,0-.08.01-.12.03-.03,0-.15.06-.08.03-.04.02-.08.04-.11.06-.02.01-.04.03-.06.04,0,0-.02.02-.04.03-.01,0-.03.03-.04.03-.02.02-.04.03-.05.05-.04.04-.07.08-.11.12,0,0-.01.01-.02.02,0,0,0,0,0,0,0,0,0,0,0,0-.02.02-.03.05-.05.07-.07.1-.12.2-.18.31-.05.11-.09.21-.14.36-.02.07-.04.14-.05.2.42,1.99.88,3.97,1.38,5.94.18-.04.36-.09.54-.15.57-.2,1.08-.52,1.46-1Z"/>
                <path class="cls-15" d="M35.67,186.61c-2.38-.6-4.05,1.86-4.89,3.71-.87,1.91-1.66,4.91.17,6.53.9.79,2.2.93,3.35.93,1.26,0,2.61-.03,3.79-.5.59-.23,1.06-.58,1.45-1-.22-1.54-.39-3.1-.35-4.65-.06-.75-.11-1.51-.15-2.26-.21-.27-.42-.54-.64-.8-.73-.84-1.62-1.69-2.73-1.96Z"/>
                <path class="cls-15" d="M29.77,149.98c.66-1.06.99-2.29,1.06-3.54.06-1.16,0-2.34-.07-3.5-.09-1.38-.23-2.79-.65-4.12-.32-1.05-.89-2.23-2.13-2.34-1.09-.1-2.07.66-2.86,1.4-1.72,4.37-2.62,9.1-2.99,13.83.72.51,1.55.86,2.49.94,2.08.19,4.06-.92,5.15-2.67Z"/>
              </g>
              <path class="cls-2" d="M47.45,135.73c.03-1.94-.3-3.92-.93-5.68-.45-1.25-1.1-2.45-2.05-3.35-1.05-1-2.42-1.52-3.81-1.7-3.2-.42-6.36,1.05-8.88,3.11-1.39,1.14-2.59,2.48-3.62,3.96,1.34-.94,2.88-1.6,4.51-1.58,2.67.02,5.03,2.05,6.37,4.22,1.5,2.43,1.97,5.37,1.94,8.19-.02,1.44-.17,2.88-.41,4.31-.35,2.03-.68,4.07-.97,6.11-.6,4.15-1.08,8.32-1.41,12.49-.64,8.22-.67,16.5.18,24.71.45,4.38,1.16,8.73,2.14,13.01-.11-1.54-.32-3.07-.56-4.6-.38-2.39-.82-4.86-.76-7.3-.54-6.87-.49-13.77.13-20.69.66-7.41,1.99-14.85,4.27-21.92,1.1-3.41,2.51-6.71,3.4-10.19.21-.82.4-1.68.55-2.54-.03-.19-.06-.38-.09-.57Z"/>
              <path class="cls-8" d="M39.94,209.27c.06-.09.12-.19.17-.29.45-1.51.52-3.05.45-4.62-.02-.54-.06-1.08-.11-1.61-.42-.14-.85-.25-1.29-.33-1.77-.32-3.57-.13-5.28.4-1.15.35-2.41.87-3.36,1.69.04.13.08.26.12.39.69,2.07,1.72,4.1,3.05,5.87.07.04.14.08.22.11.82.35,2.31-1.68,2.33-2.45.38.58,1.61,1.83,2.14,1.85.69.02,1.2-.47,1.56-1Z"/>
            </g>
            <g>
              <path class="cls-19" d="M59.91,135.73c-.03-1.94.3-3.92.93-5.68.45-1.25,1.1-2.45,2.05-3.35,1.05-1,2.42-1.52,3.81-1.7,3.2-.42,6.36,1.05,8.88,3.11,2.59,2.12,4.54,4.95,5.95,8.06,2.88,6.34,3.86,13.59,3.92,20.54,0,.21,0,.43,0,.64.05,6.91-.24,13.74-1.42,20.52-.94,5.41-2.14,10.76-3.65,16.01-.77,2.65-1.61,5.28-2.55,7.86-.47,1.3-.94,2.59-1.47,3.86-.35.85-.47,2.01-1.26,2.54-.36.24-.81.3-1.24.34-1.2.13-2.42.23-3.61-.03-1.62-.35-3.04-1.45-3.47-3.16,0-.32,0-.63.02-.95.08-1.82.33-3.62.61-5.42.38-2.39.82-4.86.76-7.3.54-6.87.49-13.77-.13-20.69-.66-7.41-1.99-14.85-4.27-21.92-1.1-3.41-2.51-6.71-3.4-10.19-.21-.82-.4-1.68-.55-2.54.03-.19.06-.38.09-.57Z"/>
              <g>
                <path class="cls-15" d="M71.3,140.95c-.31-1.56-1-3.02-2-4.25-.95-1.18-2.24-2.3-3.78-2.57-1.34-.23-2.63.38-3.4,1.48-.72,1.03-1.2,2.23-1.58,3.42-.02.06-.04.13-.06.2.9,3.34,2.23,6.52,3.29,9.8.28.86.54,1.72.79,2.59,1.63-.53,3.13-1.42,4.34-2.66,2.06-2.12,2.98-5.1,2.39-8.01Z"/>
                <path class="cls-15" d="M75.58,128.11c-.16-.13-.32-.26-.48-.38-.09.11-.17.22-.25.33-.95,1.36-1.43,3.16-1.09,4.8.17.8.55,1.54,1.14,2.11.62.6,1.36,1.09,2.1,1.53.92.55,1.88,1.03,2.88,1.41.84.32,1.73.6,2.64.65-.3-.81-.62-1.6-.98-2.38-1.42-3.11-3.36-5.94-5.95-8.06Z"/>
                <path class="cls-15" d="M82.75,145.1c-1.04-.67-2.37-1.14-3.59-.72-.88.3-1.32,1.13-1.52,1.99-.23,1.02-.2,2.09-.14,3.12.12,2.33.34,4.67,1.2,6.87.72,1.84,1.93,3.51,3.73,4.41.95.47,1.97.7,3.01.75.02-1.38.03-2.77.02-4.16,0-.21,0-.43,0-.64-.03-3.33-.27-6.72-.83-10.05-.57-.59-1.18-1.12-1.87-1.56Z"/>
                <path class="cls-15" d="M71,157.92c.03-.98-.38-1.83-.97-2.6-.38-.49-.94-1.18-1.63-1.2-.51-.02-.9.4-1.17.79-.41.58-.69,1.24-.94,1.9-.09.23-.18.47-.26.71.4,1.86.75,3.73,1.05,5.6.35-.24.7-.48,1.03-.75,1.35-1.08,2.83-2.61,2.89-4.45Z"/>
                <path class="cls-15" d="M77.25,164.19c-.33-.14-.68-.22-1.05-.22-.88,0-1.72.42-2.38.97-1.47,1.21-2.55,3.23-2.43,5.16.06.9.44,1.75,1.16,2.31.99.79,2.38.98,3.61.91,1.15-.06,2.38-.43,3.04-1.43.59-.89.64-2.02.45-3.04-.22-1.24-.76-2.42-1.46-3.46-.28-.42-.59-.82-.94-1.19Z"/>
                <path class="cls-15" d="M68.8,193.34c.9-.1,1.76-.5,2.47-1.05,1.28-1,2.17-2.56,2.34-4.18.08-.77-.02-1.55-.16-2.31-.14-.74-.32-1.5-.7-2.16-.28-.5-.75-1.01-1.38-.94-.56.07-1.05.59-1.41.99-.49.55-.91,1.18-1.26,1.83-.07.13-.14.26-.21.39-.06,1.91-.16,3.82-.31,5.73.01.57,0,1.15-.04,1.72.22,0,.44,0,.66-.02Z"/>
                <path class="cls-15" d="M78.4,195.58c-.4-.46-.88-.96-1.48-1.15-.58-.19-1.1.05-1.51.47-1.03,1.05-1.65,2.8-1.06,4.21.53,1.27,1.79,2.1,2.98,2.69.14.07.28.13.43.19.03-.08.06-.15.08-.23.57-1.57,1.1-3.16,1.61-4.76-.32-.49-.66-.97-1.04-1.41Z"/>
                <path class="cls-15" d="M80.23,176.76c-1.2.77-1.7,2.21-1.82,3.57-.15,1.68.15,3.38.65,4.98.46,1.47,1.1,2.95,2.06,4.17.11.14.23.28.35.41,1.02-3.96,1.86-7.97,2.57-12.02.09-.54.18-1.07.26-1.61-1.39-.27-2.87-.28-4.07.49Z"/>
              </g>
              <g class="cls-4">
                <path class="cls-1" d="M68.05,170.95c.62,6.92.67,13.82.13,20.69.05,2.44-.39,4.91-.76,7.3-.29,1.8-.54,3.6-.61,5.42-.01.32-.02.64-.02.95.03.12.07.24.11.36.39-1.15.73-2.33,1.04-3.5.88-3.4,1.45-6.88,1.83-10.37.77-7.04.82-14.17.27-21.22-.33-4.18-.87-8.35-1.69-12.46-.4-2.01-.87-4.02-1.42-6-.45-1.6-.88-3.21-1.22-4.83-.64-3.02-1.01-6.23-.16-9.25.88-3.12,3.27-6.07,6.32-7.3,2.44-.98,4.8-.56,6.84.63-.91-1.2-1.94-2.3-3.11-3.26-2.52-2.06-5.68-3.53-8.88-3.11-1.39.18-2.76.7-3.81,1.7-.94.9-1.6,2.09-2.05,3.35-.64,1.77-.96,3.74-.93,5.68-.03.19-.06.38-.09.57.15.86.34,1.72.55,2.54.89,3.48,2.3,6.78,3.4,10.19,2.28,7.07,3.62,14.51,4.27,21.92Z"/>
              </g>
              <path class="cls-8" d="M67.42,209.27c-.06-.09-.12-.19-.17-.29-.45-1.51-.52-3.05-.45-4.62.02-.54.06-1.08.11-1.61.42-.14.85-.25,1.29-.33,1.77-.32,3.57-.13,5.28.4,1.15.35,2.41.87,3.36,1.69-.04.13-.08.26-.12.39-.69,2.07-1.72,4.1-3.05,5.87-.07.04-.14.08-.22.11-.82.35-2.31-1.68-2.33-2.45-.38.58-1.61,1.83-2.14,1.85-.69.02-1.2-.47-1.56-1Z"/>
            </g>
          </g>
        </g>
      </g>
    </g>
  </g>
</svg>