<?xml version="1.0" encoding="UTF-8"?>
<svg xmlns="http://www.w3.org/2000/svg" viewBox="0 0 216.31 174.47">
  <defs>
    <style>
      .cls-1 {
        fill: #674238;
      }

      .cls-2 {
        fill: #bd8745;
      }

      .cls-3 {
        fill: #dadbdc;
      }

      .cls-3, .cls-4, .cls-5, .cls-6 {
        mix-blend-mode: multiply;
      }

      .cls-7 {
        fill: #62493e;
      }

      .cls-8 {
        fill: #fff;
      }

      .cls-9, .cls-4, .cls-5 {
        fill: #dd9d51;
      }

      .cls-4 {
        opacity: .51;
      }

      .cls-10 {
        fill: #834c38;
      }

      .cls-11 {
        fill: #8b5b37;
      }

      .cls-12 {
        fill: #fec25e;
      }

      .cls-5 {
        opacity: .5;
      }

      .cls-13 {
        fill: #7053a3;
      }

      .cls-14 {
        isolation: isolate;
      }

      .cls-15 {
        fill: #3b2920;
      }

      .cls-16 {
        fill: #5a4137;
      }

      .cls-17 {
        fill: #312017;
      }

      .cls-18 {
        fill: #fffcdf;
      }
    </style>
  </defs>
  <g class="cls-14">
    <g id="Layer_2" data-name="Layer 2">
      <g id="Layer_1-2" data-name="Layer 1">
        <g>
          <path class="cls-13" d="M200.97,140.44c.02-.15,0-.29-.08-.42-.1-.22-.28-.39-.52-.45-.21-.05-.43-.05-.64-.01-.21.04-.48.16-.7.31-.74.2-1.44.84-1.37,1.63.01.16.06.32.16.45.01.02.03.03.04.04.08.21.24.37.47.44.22.06.4.15.65.15.34,0,.66-.12.96-.26,0,0,.01,0,.02,0,.59-.22,1.16-.95.96-1.6.02-.1.04-.19.06-.29Z"/>
          <g>
            <path class="cls-9" d="M146.72,133.64c-5.24-4.3-8.99-10.55-9.35-17.36-.24-4.6.52-9.19,1.27-13.7.37-2.22.76-4.45,1.03-6.69.27-2.19.41-4.41.54-6.61.3-4.77.36-9.67-.82-14.33-.81-3.2-2.29-6.28-4.51-8.73-3.67-2.35-8.27-3.45-12.47-3.31-3.29.1-6.55.94-9.38,2.63-2.93,1.75-5.42,4.42-7.29,7.25-.28.43-.55.87-.81,1.31-1.59,4.56-2.16,9.56-2.06,14.28.09,4.24.71,8.48,1.93,12.54,1.41,4.72,3.82,9.04,6.87,12.88,3.28,4.14,7.21,7.7,11.27,11.06,1.92,1.59,3.87,3.11,5.52,4.99,1.38,1.56,2.58,3.3,3.46,5.2,1.77,3.79,2.18,8,1.82,12.14-.2,2.35-.61,4.71-1.17,7-.36,1.47-1.1,2.77-2.08,3.92-1.61,1.89-3.79,3.23-5.48,5.03-.08.16-.16.33-.23.51-.18.5-.32,1.02-.43,1.56.04.07.08.15.12.22.42.65,1.1,1.08,1.79,1.38,1.48.64,3.18.79,4.78.77,1.63-.02,3.31-.22,4.81-.93,1.48-.7,2.56-1.83,3.47-3.13,2.58-4.65,3.63-10.03,5.84-14.86,1.39-3.03,3.41-5.73,4.35-8.97.84-2.88-.8-4.41-2.82-6.07Z"/>
            <path class="cls-18" d="M146.72,133.64c-5.24-4.3-8.99-10.55-9.35-17.36-.24-4.6.52-9.19,1.27-13.7.37-2.22.76-4.45,1.03-6.69.27-2.19.41-4.41.54-6.61.3-4.77.36-9.67-.82-14.33-.81-3.2-2.29-6.28-4.51-8.73-3.67-2.35-8.27-3.45-12.47-3.31-3.29.1-6.55.94-9.38,2.63-.73.44-1.44.93-2.12,1.47-.98,2.32-1.76,4.72-2.34,7.18-1.69,7.16-1.66,14.73.16,21.86,1.79,7.02,5.34,13.53,10.35,18.76-.04-1.73-.77-3.4-1.19-5.06-.07-.28.34-.39.43-.12.87,2.6,1.96,5.41,4.01,7.31-.13-1.54-.71-3.02-.87-4.56-.02-.23.31-.29.42-.11,1.33,2.19,2.89,4.23,4.61,6.14,3,3.32,6.36,6.32,9.69,9.3,3.14,2.82,6.24,5.97,7.7,10.03.07.19-.17.35-.33.25-.96-.57-1.95-1.09-2.97-1.55,1.14.96,2.14,2.09,2.92,3.38,1.45,2.39,2.1,5.06,2.19,7.79,1.33-2.61,3-5.04,3.83-7.9.84-2.88-.8-4.41-2.82-6.07Z"/>
            <g class="cls-6">
              <path class="cls-9" d="M106.11,104.53c2.82-.83,5.7-1.59,8.64-1.73,3.03-.14,6.16.49,8.41,2.65,2.53,2.42,3.94,5.64,5.68,8.61,1.84,3.15,4.25,6,6.92,8.48,1.42,1.31,2.94,2.53,4.57,3.58-1.71-3.01-2.79-6.35-2.97-9.84-.24-4.6.52-9.19,1.27-13.7.37-2.22.76-4.45,1.03-6.69.27-2.19.41-4.41.54-6.61.3-4.77.36-9.67-.82-14.33-.81-3.2-2.29-6.28-4.51-8.73-3.67-2.35-8.27-3.45-12.47-3.31-3.29.1-6.55.94-9.38,2.63-2.93,1.75-5.42,4.42-7.29,7.25-.28.43-.55.87-.81,1.31-1.59,4.56-2.16,9.56-2.06,14.28.09,4.24.71,8.48,1.93,12.54.37,1.23.81,2.43,1.3,3.61Z"/>
            </g>
            <g>
              <path class="cls-9" d="M62.73,112.52c-.31-.93-.64-1.84-.93-2.73-2.46-7.46-5.52-15.28-9.4-22.14-2.9-5.12-7.72-10.51-14.16-7.82-1.24.52-2.28,1.32-3.01,2.33-.57,1.35-.99,2.76-1.27,4.2-.19,1.56-.35,3.12-.46,4.68-.05,3.38.43,6.8,1.14,9.97.75,3.34,1.82,6.62,3.18,9.75,1.58,3.64,4.4,6.48,6.84,9.54,1.12,1.41,2.27,2.91,3,4.56.62,1.38.88,2.9.96,4.41.2,3.57-.47,7.16-1.13,10.65-.3,1.57-.62,3.15-.85,4.73-.23,1.6-.35,3.21-.54,4.82-.41,3.43-.93,6.96-2.39,10.12-.65,1.41-1.58,3.02-2.96,3.83-.67.39-1.42.57-2.16.78-.85.24-1.66.57-2.4,1.04-1.55.98-2.19,2.64-2.33,4.41.03.05.05.1.07.15.43.72,1.28,1.06,2.05,1.29,1.87.54,3.96.63,5.9.54,1.4-.07,2.81-.26,4.13-.76.02,0,.04-.02.07-.03.05,0,.1,0,.16,0,.09-.05.17-.11.25-.17.5-.23.99-.52,1.42-.87.61-.49,1.44-1.16,1.43-2.02.59-.92,1.04-1.92,1.34-2.98.32-1.16.42-2.36.61-3.55.24-1.48.51-2.94.82-4.41.61-2.87,1.36-5.71,2.21-8.52,2.53-8.35,6.6-16.02,9.5-24.2,1.34-3.78.18-7.84-1.09-11.61Z"/>
              <path class="cls-2" d="M42.49,167.45c-.29.05-.57.13-.84.26-1.49.72-2.25,2.28-2.53,3.9.18.01.35.02.53.03.25-1.72,1.33-3.33,2.85-4.19Z"/>
              <path class="cls-2" d="M38.34,167.14c-.97.2-1.64,1.06-2.06,1.94-.29.6-.5,1.25-.63,1.91.1.03.19.06.28.09.15-.55.39-1.08.7-1.59.51-.82,1.15-1.56,1.7-2.35Z"/>
              <path class="cls-5" d="M62.73,112.52c-.31-.93-.64-1.84-.93-2.73-2.46-7.46-5.52-15.28-9.4-22.14-2.9-5.12-7.72-10.51-14.16-7.82-1.24.52-2.28,1.32-3.01,2.33-.57,1.35-.99,2.76-1.27,4.2-.19,1.56-.35,3.12-.46,4.68-.02,1.57.07,3.14.24,4.7,1.83,4.7,4.62,9.03,8.13,12.65,1.03,1.06,2.1,2.08,3.3,2.95,1.18.86,2.44,1.62,3.7,2.37,2.43,1.45,4.95,2.88,6.85,5.02.14.16,0,.45-.22.38-1.54-.5-3.14-.72-4.75-.9.25.19.5.39.75.58,1.59,1.18,3.29,2.33,4.43,3.99,1.26,1.84,1.39,4.06,1.22,6.22-.39,5.09-2.42,9.93-4.13,14.69-1.74,4.87-3.15,9.96-3.32,15.15-.05,1.36-.01,2.72.07,4.08.06.93.07,1.82-.06,2.75-.15,1.1-.43,2.18-.84,3.22.26-.33.46-.7.45-1.11.59-.92,1.04-1.92,1.34-2.98.32-1.16.42-2.36.61-3.55.24-1.48.51-2.94.82-4.41.61-2.87,1.36-5.71,2.21-8.52,2.53-8.35,6.6-16.02,9.5-24.2,1.34-3.78.18-7.84-1.09-11.61Z"/>
            </g>
            <path class="cls-9" d="M198.98,143.91c-1.93,0-3.71-.2-5.17-.5-16.37-2.55-19.09-23.12-21.72-43.01-1.2-9.07-2.44-18.45-4.88-26.23-2.95-9.41-7.74-15.41-14.22-17.81-4.6-1.71-8.4-.92-8.44-.91-1.7.39-3.39-.68-3.77-2.38s.68-3.39,2.38-3.77c.23-.05,5.62-1.23,12.03,1.15,10.47,3.89,15.59,14.02,18.05,21.84,2.61,8.3,3.88,17.96,5.12,27.29,2.44,18.43,4.74,35.83,16.5,37.61.06,0,.12.02.18.03.51.11,12.64,2.5,15.1-6.18.47-1.68,2.22-2.65,3.89-2.18,1.68.47,2.65,2.22,2.18,3.89-2.49,8.83-10.67,11.16-17.21,11.16Z"/>
            <path class="cls-12" d="M165.11,72.72c-2.45-20.6-20.67-28.05-39.26-25.32-10.85,1.59-21.65,5.11-32.73,4.44-13.25-.8-28.04-5.2-37.11-15.42-4.23-4.77-7.89-10.01-11.33-15.36-.07-.11-.18-.3-.33-.56-.54.31-1.08.61-1.61.92-3.61,2.1-7.18,4.27-10.71,6.5-3.51,2.21-6.98,4.47-10.44,6.76-1.38.91-2.76,1.83-4.14,2.75,4.57,7.99,8.08,16.6,10.43,25.5,4.17,15.77,4.18,39.4,20.86,47.87,7.86,3.99,17.8,5.95,26.57,5.37,2.53-.17,5.05-.56,7.51-1.2,2.73-.71,5.27-1.93,7.66-3.41,5.96-3.69,11.23-9.2,18.53-10.02,7-.78,13.96,1.81,20.83,2.73,8.96,1.2,16.69-1.67,24.18-6.42,2.34-1.48,4.55-3.16,6.58-5.02.85-1.38,1.62-2.82,2.28-4.36,2.17-5.07,2.84-10.52,2.21-15.75Z"/>
            <path class="cls-18" d="M139.21,96.13c-2.73-1.18-5.22-2.78-7.6-4.56-2.18-1.63-4.28-3.39-6.6-4.84-2.4-1.5-5.04-2.58-7.88-2.84-3.38-.31-6.76.14-10,1.11-5.75,1.73-10.74,5.07-15.93,7.97-4.56,2.55-9.51,4.83-14.84,4.79-5.41-.04-10.33-2.45-14.11-6.25-3.7-3.72-6.27-8.37-9.07-12.76-.12-.18.12-.44.31-.31,1.23.87,2.51,1.68,3.84,2.39-1.59-2.52-3.61-4.72-5.71-6.83-.17-.17.01-.41.22-.38,1.55.21,3.06.64,4.63.61-2.44-2.65-4.81-5.4-6.55-8.57-1.75-3.17-2.69-6.6-3.87-10-1.39-4.02-3.15-7.9-5.13-11.67-2.84-5.42-6.12-10.59-9.41-15.74-3.33,2.1-6.63,4.25-9.91,6.42-1.38.91-2.76,1.83-4.14,2.75,4.57,7.99,8.08,16.6,10.43,25.5,4.17,15.77,4.18,39.4,20.86,47.87,7.86,3.99,17.8,5.95,26.57,5.37,2.53-.17,5.05-.56,7.51-1.2,2.73-.71,5.27-1.93,7.66-3.41,5.96-3.69,11.23-9.2,18.53-10.02,7-.78,13.96,1.81,20.83,2.73,8.27,1.11,15.49-1.26,22.43-5.36-4.49-.18-8.93-.98-13.08-2.78Z"/>
            <path class="cls-9" d="M87.18,60.67c-1.8-2.52-4.25-4.56-6.88-6.19-2.68-1.66-5.66-2.84-8.81-3.12-3-.26-5.85.37-8.46,1.87-2.51,1.45-4.64,3.55-6.43,5.81-1.91,2.42-3.41,5.13-4.47,8.02-.12.33.38.23.48,0,1.1-2.4,2.63-4.65,4.31-6.68,1.71-2.07,3.62-3.94,5.89-5.4,2.21-1.42,4.65-2.07,7.28-1.97,2.91.11,5.8,1.02,8.38,2.33,3,1.51,5.6,3.62,8.12,5.82.24.21.78-.22.58-.5Z"/>
            <path class="cls-4" d="M165.11,72.72c-.1-.81-.23-1.6-.37-2.37.05,2.22-.19,4.44-.8,6.57-1.07,3.72-3.33,6.95-6.53,9.14-1.38.94-2.96,1.71-4.64,1.85-1.25.1-2.48-.22-3.56-.85-2.3-1.34-3.86-3.66-5.61-5.59-1.77-1.95-3.91-3.74-6.7-3.61-4.42.2-7.61,4.23-9.43,7.87-.5.99-.92,2.01-1.28,3.06-.37,1.08-.49,2.2-.73,3.31-.2.95-.52,1.93-1.29,2.57-.75.61-1.67.76-2.62.71-1.1-.06-2.18-.29-3.27-.45-1.26-.19-2.54-.12-3.81-.06-.67.04-1.33.09-1.99.15-.27.06-.53.12-.8.19-1.65.46-3.25,1.09-4.88,1.63-2.98.98-6.15,1.58-9.08.11-2.06-1.03-3.45-2.97-4.59-4.9-1.28-2.18-2.32-4.51-3.76-6.6-1.46-2.12-3.32-3.73-5.81-4.52-2.14-.68-4.43-.65-6.48.3-4.14,1.92-6.58,6.49-8.05,10.6-.78,2.2-1.35,4.48-1.65,6.79-.3,2.23-.36,4.49.14,6.69.3,1.33.72,2.67.8,4.04.06,1.05-.16,2.13-1.07,2.77-.91.64-2.16.76-3.24.72-1.31-.06-2.6-.37-3.85-.78-2.76-.91-5.37-2.28-7.85-3.79-2.43-1.48-4.7-3.18-6.79-5.12-4.59-4.25-8.08-9.5-10.62-15.2-1.9-4.25-3.31-8.68-4.54-13.16,2.59,13.99,5.54,29.5,18.39,36.02,7.86,3.99,17.8,5.95,26.57,5.37,2.53-.17,5.05-.56,7.51-1.2,2.73-.71,5.27-1.93,7.66-3.41,5.96-3.69,11.23-9.2,18.53-10.02,7-.78,13.96,1.81,20.83,2.73,8.96,1.2,16.69-1.67,24.18-6.42,2.34-1.48,4.55-3.16,6.58-5.02.85-1.38,1.62-2.82,2.28-4.36,2.17-5.07,2.84-10.52,2.21-15.75Z"/>
            <g>
              <path class="cls-12" d="M89.19,83.79c-1.19-1.53-2.59-2.76-4.31-3.49-6.23-2.64-13.15,2.8-15.05,8.58-1.39,4.24-.82,8.95.83,13.09,1.99,4.97,5.48,8.85,8.6,13.1,1.35,1.83,2.7,3.74,3.67,5.81.95,2.03,1.52,4.21,1.82,6.42.61,4.57.06,9.19-.38,13.75-.48,4.93-1.13,9.85-2.09,14.72-.24,1.19-.49,2.39-.77,3.57-.18.78-.38,1.54-.7,2.28-.5,1.13-1.26,2.14-2.13,3.01-1.56,1.57-3.59,2.72-4.89,4.54-.05.07-.09.15-.14.22-.27.65-.4,1.33-.27,2.06.31,1.69,2.15,2.38,3.64,2.7,2.02.43,4.18.4,6.21.04,1.04-.18,2.08-.48,3-.99.81-.45,1.8-1.2,1.66-2.23,0-.07-.03-.12-.06-.17,1.06-2.24,1.33-5.23,1.82-7.78,1.71-8.88,10.45-34.33,11.17-43.61.58-7.48-2.46-14.95-5.27-21.72-1.68-4.03-3.29-9.94-6.36-13.9Z"/>
              <path class="cls-9" d="M74.67,173.25c-.15-1.57.66-3.21,1.79-4.4-1.41.84-2.69,2.19-2.55,3.73.21.26.47.48.76.67Z"/>
              <path class="cls-9" d="M79.27,174.43c-.21-1.46.09-3.22.95-4.53-1.54,1.13-2.85,2.73-2.28,4.41.44.06.89.11,1.34.13,0,0,0-.01,0-.02Z"/>
              <path class="cls-5" d="M95.55,97.69c-1.68-4.03-3.29-9.94-6.36-13.9-1.19-1.53-2.59-2.76-4.31-3.49-2.19-.93-4.47-.86-6.58-.12.14.02.27.05.41.08,2.53.59,4.6,2.51,6.23,4.43,2.19,2.58,3.91,5.56,5.43,8.58,1.64,3.27,3.03,6.66,4.26,10.1,1.07,3,2.03,6.04,2.8,9.13.28,1.11.53,2.23.73,3.36.42,2.42.24,4.93-.12,7.35-.47,3.09-1.31,6.12-2.17,9.12-.83,2.88-1.55,5.79-2.45,8.64-1.94,6.13-4.6,12.11-5.5,18.52-.31,2.25-.27,4.49-.25,6.76.02,1.59.04,3.24-.36,4.8-.2.76-.52,1.47-.96,2.09.79-.46,1.68-1.19,1.55-2.17,0-.07-.03-.12-.06-.17,1.06-2.24,1.33-5.23,1.82-7.78,1.71-8.88,10.45-34.33,11.17-43.61.58-7.48-2.46-14.95-5.27-21.72Z"/>
            </g>
            <g>
              <path class="cls-12" d="M173.66,142.04c-2.41-1.73-4.58-3.66-6.28-6.06-.46-.51-.92-1.02-1.35-1.56-1.4-1.75-2.59-3.64-3.34-5.76-.72-2.03-1.07-4.19-1.18-6.34-.24-4.6.52-9.19,1.27-13.7.37-2.22.76-4.45,1.03-6.69.27-2.19.41-4.41.54-6.61.3-4.77.36-9.67-.82-14.33-.81-3.2-2.29-6.28-4.51-8.73-3.67-2.35-8.27-3.45-12.47-3.31-3.29.1-6.55.94-9.38,2.63-2.93,1.75-5.42,4.42-7.29,7.25-.28.43-.55.87-.81,1.31-1.59,4.56-2.16,9.56-2.06,14.28.09,4.24.71,8.48,1.93,12.54,1.41,4.72,3.82,9.04,6.87,12.88,3.28,4.14,7.21,7.7,11.27,11.06,1.92,1.59,3.87,3.11,5.52,4.99,1.38,1.56,2.58,3.3,3.46,5.2,1.77,3.79,2.18,8,1.82,12.14-.2,2.35-.61,4.71-1.17,7-.36,1.47-1.1,2.77-2.08,3.92-1.84,2.16-4.42,3.6-6.17,5.84-.14.18-.27.37-.38.56,0,.28.05.56.2.84.61,1.16,1.97,1.8,3.2,2.03,1.48.28,3,.19,4.48,0,.82-.1,1.64-.25,2.45-.4.64-.12,1.28-.23,1.91-.41.47-.14.87-.35,1.24-.62.79-.86,1.47-1.82,2.06-2.85,1.66-2.91,2.66-6.17,3.65-9.35.55-1.79,1.09-3.58,1.67-5.36.35-1.09.76-2.1,1.35-3.09.66-1.1,1.42-2.13,2.1-3.2.64-1,1.26-2.06,1.53-3.23.22-.95.05-1.95-.27-2.87Z"/>
              <g>
                <path class="cls-9" d="M149.5,172.46c.49-2.34,2.24-4.17,4.26-5.35-.27.07-.53.16-.79.27-1.31.58-2.48,1.54-3.34,2.67-.41.53-.78,1.15-1,1.81.24.29.52.54.84.75,0-.05.01-.1.02-.16Z"/>
                <path class="cls-9" d="M155.52,170.48c.4-.7.91-1.32,1.5-1.87-2.11,1-4.06,2.7-4.71,4.92.75.08,1.5.08,2.25.03.1-1.08.42-2.13.96-3.07Z"/>
              </g>
            </g>
            <path class="cls-3" d="M28.61,51.62c2.95.34,5.93-.21,8.7-1.22,3.02-1.1,5.84-2.76,8.37-4.72,2.54-1.97,4.85-4.27,6.77-6.86.88-1.19,1.69-2.46,2.37-3.79-3.73-4.39-7.02-9.13-10.13-13.97-.07-.11-.18-.3-.33-.56-.54.31-1.08.61-1.61.92-3.61,2.1-7.18,4.27-10.71,6.5-3.51,2.21-6.98,4.47-10.44,6.76-1.38.91-2.76,1.83-4.14,2.75,2.3,4.03,4.34,8.21,6.09,12.51,1.55.88,3.27,1.46,5.07,1.66Z"/>
            <path class="cls-16" d="M46.2,111.73c-.85-.48-2.21.13-2.45,1.1-.17.7-.11,1.38.2,1.89.36,1.12,1.24,2.13,2.3,2.4.96.24,1.91-.53,2.07-1.45.27-1.6-.76-3.17-2.12-3.94Z"/>
            <path class="cls-16" d="M52.6,117.22c-.87,0-1.68,1.54-.53,1.54.87,0,1.68-1.54.53-1.54Z"/>
            <path class="cls-16" d="M57.52,127.12c.01-.05.02-.1.03-.15.02-.23-.05-.43-.12-.65-.13-.38-.47-.53-.86-.49-.47.05-.83.32-1.1.69-.28.39-.32.95-.05,1.35.12.18.31.28.52.34.12.08.26.12.41.13.19.02.46-.09.6-.2.17-.13.32-.29.39-.5,0-.02.02-.04.02-.06.09-.14.16-.3.16-.47Z"/>
            <path class="cls-16" d="M59.95,120.61c-.08-.27-.2-.54-.4-.74-.02-.02-.03-.03-.05-.05-.08-.22-.26-.36-.47-.43-.06-.05-.12-.1-.18-.15-.59-.46-1.66.09-1.95.65-.17.32-.3.64-.3,1.01,0,.5.28.86.79.94.36.05.7-.04,1.01-.22.08.02.17.05.25.08.3.13.73-.08.94-.27.22-.19.45-.53.35-.84Z"/>
            <path class="cls-16" d="M53.33,133.6c-.02-.26-.2-.53-.47-.59-.13-.18-.37-.26-.6-.22-.01,0-.02,0-.03,0-.27,0-.55.08-.77.25-.29.22-.49.5-.54.87-.02.18,0,.36.04.54,0,0,0,.01,0,.02,0,.14.02.28.11.4.11.15.28.23.46.25.32.05.63-.07.89-.26.22-.1.41-.24.58-.41.22-.23.37-.52.34-.85Z"/>
            <path class="cls-16" d="M52.39,139.96c-.85,0-1.64,1.5-.51,1.5.85,0,1.64-1.5.51-1.5Z"/>
            <path class="cls-16" d="M51.41,145.11c-.88,0-1.71,1.57-.54,1.57.88,0,1.71-1.57.54-1.57Z"/>
            <path class="cls-16" d="M80.76,95.48c-.36-.76-1.08-1.19-1.93-1.19-.58,0-1.07.18-1.46.48-.47.2-.86.63-1.06,1.24-.37,1.09-.15,2.64.47,3.61.93,1.44,2.77.81,3.61-.39.72-1.04.93-2.58.38-3.74Z"/>
            <path class="cls-16" d="M81.32,103.21c-.93,0-1.81,1.66-.57,1.66.93,0,1.81-1.66.57-1.66Z"/>
            <path class="cls-16" d="M75.82,102.25c-.14-.1-.36-.12-.52-.08-.21.05-.42.16-.56.32-.12.14-.25.32-.25.51v.4c0,.17.05.33.2.43.14.1.36.12.52.08.21-.05.42-.16.56-.32.12-.14.25-.32.25-.51v-.4c0-.17-.05-.33-.2-.43Z"/>
            <path class="cls-16" d="M80.86,86.38c-.11-.14-.24-.25-.39-.35-.05-.03-.11-.07-.17-.1-.06-.46-.29-.91-.77-1.3-.49-.39-1.26-.15-1.77.2-.34-.04-.76.23-.91.5-.52.96-.61,1.98-.32,3.03.1.36.43.55.79.55.59,0,1.18-.23,1.68-.58.59-.05,1.14-.3,1.6-.73.29-.27.53-.87.24-1.23Z"/>
            <path class="cls-16" d="M85.74,87.38c-1.02,0-1.98,1.82-.62,1.82,1.02,0,1.98-1.82.62-1.82Z"/>
            <path class="cls-16" d="M89.48,98.09s-.05-.05-.08-.07c-.58-.4-1.38.09-1.71.57-.82,1.22-.26,3.77,1.44,3.85,1.3.06,2.73-1.15,2.79-2.46.06-1.29-1.31-2.03-2.44-1.9Z"/>
            <path class="cls-16" d="M85.49,94.06s-.1-.1-.15-.15c-.13-.08-.27-.12-.42-.12-.13,0-.25.02-.37.06-.13.03-.26.09-.37.18-.12.08-.22.17-.3.29-.09.09-.15.2-.19.33-.05.14-.06.29-.03.43,0,.06.01.13.02.19.02.11.07.19.16.26.07.08.15.13.26.16.07.01.15.02.22.03.13,0,.25-.02.36-.06.09-.02.17-.06.24-.11.13-.06.24-.14.33-.25.05-.07.11-.14.16-.2.09-.13.13-.28.15-.43,0-.07.01-.14.02-.2.01-.15-.02-.28-.1-.4Z"/>
            <path class="cls-16" d="M94.26,106.07c-.85,0-1.64,1.5-.51,1.5.85,0,1.64-1.5.51-1.5Z"/>
            <path class="cls-16" d="M88.62,112.11c-.62-.31-1.37-.22-1.93.2-.08.06-.16.13-.24.2-.82-.02-1.51.46-1.74,1.46-.3,1.27.35,3.02,1.3,3.87,1.47,1.32,3.85.35,4.4-1.44.44-1.45-.41-3.6-1.78-4.29Z"/>
            <path class="cls-16" d="M84.32,107.96c-.96,0-1.87,1.71-.59,1.71.96,0,1.87-1.71.59-1.71Z"/>
            <path class="cls-16" d="M96.33,117.86c-.47-.38-1.41-.17-1.83.19-.04.04-.09.08-.13.12-.16.11-.3.24-.4.39-.39.41-.69.89-.76,1.48-.07.66.13,1.17.59,1.6.12.18.26.36.45.52.56.49,1.49-.05,1.91-.43.55-.5.98-1.27,1.03-2.02.05-.77-.28-1.38-.86-1.85Z"/>
            <path class="cls-16" d="M92.34,128.96c-1.11,0-2.15,1.98-.68,1.98,1.11,0,2.15-1.98.68-1.98Z"/>
            <path class="cls-16" d="M88.84,144.53c-.16-.46-.53-.7-1.02-.71-.16,0-.3.02-.45.05-.4-.11-.92.15-1.18.41-.77.75-.92,2.09-.19,2.9.71.79,1.86.2,2.36-.52.01-.02.04-.06.06-.09.07-.08.14-.17.2-.25.12-.16.22-.34.28-.53.13-.44.08-.84-.07-1.25Z"/>
            <path class="cls-16" d="M91.68,138.73c-.88,0-1.71,1.57-.54,1.57.88,0,1.71-1.57.54-1.57Z"/>
            <path class="cls-16" d="M87.88,133.96c-.87,0-1.69,1.56-.53,1.56.88,0,1.69-1.56.53-1.56Z"/>
            <path class="cls-16" d="M88.68,125.02s-.04-.05-.06-.08c-.32-.38-.95-.11-1.16.25-.09.15-.19.31-.19.49,0,.08,0,.15,0,.23,0,.17.05.33.2.43.14.1.36.12.52.08.21-.05.41-.15.55-.31.12-.14.24-.32.24-.51,0-.08,0-.15,0-.23,0-.13-.01-.24-.09-.35Z"/>
            <path class="cls-16" d="M97.11,110.26c-1.07,0-2.07,1.91-.65,1.91,1.07,0,2.07-1.91.65-1.91Z"/>
            <path class="cls-16" d="M90.21,123.53c-.48-.37-1.12-.36-1.68-.26-.7.12-1.47.8-1.55,1.55-.4.61-.48,1.48-.07,2.11.59.92,1.9.69,2.67.16.7-.48,1.26-1.39,1.23-2.26-.02-.51-.18-.97-.59-1.29Z"/>
            <path class="cls-16" d="M84.95,162.52c-1.04,0-2.02,1.85-.63,1.85,1.04,0,2.02-1.85.63-1.85Z"/>
            <path class="cls-16" d="M84.89,155.31c-.86,0-1.66,1.52-.52,1.52.86,0,1.66-1.52.52-1.52Z"/>
            <path class="cls-16" d="M51.58,122.72c-.04-.15-.13-.27-.26-.37-.02-.01-.04-.03-.06-.04-.06-.18-.23-.33-.4-.37-.2-.05-.39-.03-.59.03-.21.07-.43.19-.58.36l-.16.21c-.09.13-.14.28-.15.44,0,.04-.01.09-.01.13,0,.1,0,.22.03.32.02.1.08.19.12.28.02.04.05.08.08.12.16.2.37.28.62.29.34.02.68-.15.92-.37.22-.19.38-.41.43-.69.04-.12.04-.23,0-.35Z"/>
            <path class="cls-16" d="M40.88,105.88c-.18-.12-.45-.15-.65-.1-.26.06-.52.2-.7.4l-.16.21c-.09.13-.14.28-.15.44,0,.13.01.26.02.39-.01.11,0,.21.06.3.03.1.09.18.19.23.17.12.44.14.64.09.26-.06.51-.19.69-.39.16-.18.29-.39.3-.63l.02-.4c.01-.21-.07-.42-.25-.54Z"/>
            <path class="cls-16" d="M44.49,53.3c-.31-.6-.78-.98-1.32-1.15-.03-.03-.07-.05-.11-.07-1.02-.5-1.92-.08-2.38.75-.92.86-1.16,2.25-.53,3.38.24.44.58.74.96.91.06.11.12.22.19.32,1.06,1.64,3.06.42,3.5-1.09.31-1.06.2-2.08-.31-3.06Z"/>
            <path class="cls-16" d="M47.82,49.42c-.88,0-1.71,1.57-.54,1.57.88,0,1.71-1.57.54-1.57Z"/>
            <path class="cls-16" d="M50.36,43.59c-.72,0-1.39,1.28-.44,1.28.72,0,1.39-1.28.44-1.28Z"/>
            <path class="cls-16" d="M50.37,60.89c-.77,0-1.48,1.36-.47,1.36.77,0,1.48-1.36.47-1.36Z"/>
            <path class="cls-16" d="M46.83,70.24c-.17-.12-.43-.14-.62-.09-.25.06-.5.19-.67.38-.15.17-.3.38-.3.61,0,.13,0,.25,0,.38,0,.1.04.22.1.3.07.1.2.19.32.22.14.04.3.05.44.02.41-.1.78-.41.91-.81.06-.16.04-.32.04-.48,0-.2-.06-.39-.24-.51Z"/>
            <path class="cls-16" d="M52.67,84.53c-.22-.47-.58-.82-1.09-.95-.41-.1-.8-.04-1.17.1-.15-.06-.3-.12-.46-.15-.36-.08-.76.11-.95.43-.54.88-.28,2.01.14,2.88.58,1.22,1.92,1.6,3.01.69.88-.74.99-2,.52-3Z"/>
            <path class="cls-16" d="M56.25,52.63c-.46-.28-1.06-.04-1.4.31-.07.07-.14.14-.21.21-.12.13-.23.26-.34.4-.04.07-.07.15-.11.22-.04.11-.06.22-.04.33,0,.07.01.14.05.2.03.1.1.18.19.24.13.08.27.11.42.12.13,0,.25-.02.37-.06.13-.03.26-.09.37-.18.23-.17.42-.38.63-.57.16-.16.31-.43.32-.66.01-.2-.08-.45-.26-.56Z"/>
            <path class="cls-16" d="M58.73,73.39l-.2-.2c-.12-.09-.26-.13-.41-.14-.26-.04-.58,0-.81.12-.17.09-.33.18-.48.28-.17.02-.33.09-.46.18-.5.38-.98.9-1.05,1.56-.05.48.18.9.54,1.2.32.26.78.4,1.18.4.88,0,1.67-.56,2.01-1.36.29-.69.01-1.42-.32-2.04Z"/>
            <path class="cls-16" d="M63.85,68.13c-1.15,0-2.23,2.05-.7,2.05,1.15,0,2.23-2.05.7-2.05Z"/>
            <path class="cls-16" d="M49.41,59.79c-.88,0-1.71,1.57-.54,1.57.88,0,1.71-1.57.54-1.57Z"/>
            <path class="cls-16" d="M33.77,55.34c-.02-.08-.08-.16-.16-.21,0-.12-.02-.24-.09-.35-.13-.21-.39-.25-.61-.23-.25.02-.46.13-.65.29-.19.16-.37.4-.37.66,0,.01,0,.03,0,.04,0,.05,0,.16.02.21.03.12.1.22.21.29.07.04.14.07.21.09.19.07.41.07.6.02-.05,0-.11.01-.16.02.14-.01.26-.02.39-.06.14-.04.25-.09.36-.19.1-.08.19-.19.23-.31.02-.09.03-.17.02-.26Z"/>
            <path class="cls-16" d="M58.56,45.11s0-.02,0-.03c-.01-.06-.04-.13-.07-.19-.03-.04-.07-.07-.11-.1,0,0,0,0,0-.01-.04-.04-.07-.07-.11-.11-.05-.02-.1-.04-.14-.07-.09-.03-.17-.03-.26-.02-.06,0-.13.01-.19.04-.07.01-.13.04-.19.08-.07.03-.12.07-.17.12-.08.06-.15.14-.2.23-.04.07-.07.14-.1.22-.03.07-.04.17-.05.22,0,.02,0,.03,0,.05,0,.05,0,.13.02.18,0,0,0,.02,0,.02.03.12.1.21.19.28.11.07.22.1.35.1.07,0,.15,0,.22-.02,0,0,.01,0,.02,0,.06-.02.15-.04.21-.07.08-.04.17-.08.24-.14.09-.06.16-.12.21-.21.06-.07.11-.15.13-.23.01-.05.02-.11.03-.16,0-.06,0-.12-.02-.17Z"/>
            <path class="cls-16" d="M50.99,60.02c-.31-.48-.82-.67-1.34-.64-.48-.09-.99.1-1.38.36-.82.57-1.53,1.74-1.12,2.75.58,1.44,2.59,1.36,3.55.39.74-.75.88-1.97.3-2.86Z"/>
            <g>
              <path class="cls-16" d="M54.14,47.97c.01-.06.02-.11,0-.17,0-.05,0-.1-.04-.14-.02-.07-.07-.13-.14-.17h0c-.09-.06-.19-.09-.3-.09-.12,0-.24.03-.36.08-.07.04-.14.07-.2.12-.11.08-.2.18-.28.29-.03.05-.06.1-.08.16,0,.03-.03.13-.03.16,0,.03,0,.12.01.15,0,.03.06.12.08.15.03.04.07.08.1.11.01,0,.02.02.03.02.08.05.16.08.25.11.05,0,.1.01.14.02.08,0,.16-.01.24-.04.14-.04.28-.12.37-.23.07-.08.13-.17.17-.27.03-.07.04-.14.02-.21,0-.02,0-.03,0-.04Z"/>
              <path class="cls-16" d="M52.81,48.52s0,0-.01-.01c.02.03.02.03.01.01Z"/>
            </g>
            <path class="cls-16" d="M54.16,38.58c-.75,0-1.45,1.33-.46,1.33.75,0,1.45-1.33.46-1.33Z"/>
            <path class="cls-16" d="M73.49,59.62c-.14-.99-.68-2.02-1.55-2.56-.7-.43-1.55-.47-2.32-.26-.13-.02-.26-.01-.4,0-.98.15-1.67,1.02-2.05,1.88-.83,1.89-.27,4.63,1.9,5.35,2.59.86,4.77-2.06,4.43-4.42Z"/>
            <path class="cls-16" d="M60.75,63.26c-.8,0-1.54,1.42-.49,1.42.8,0,1.54-1.42.49-1.42Z"/>
            <path class="cls-16" d="M94.92,65.43c.02-.08.04-.15.04-.23,0,0,0-.02,0-.03,0-.39-.19-.73-.58-.83-.46-.13-.95,0-1.34.28-.34.24-.76.71-.73,1.15,0,0,0,0,0,0-.01.16,0,.33.11.47.15.19.34.26.57.29.1.03.21.05.33.06.31.03.66-.1.96-.32.16-.02.31-.08.43-.19.16-.14.35-.44.2-.65Z"/>
            <path class="cls-16" d="M92.37,73.51c-.35-.61-.98-.74-1.64-.63-.4-.12-.83-.11-1.26.09-.82.38-1.25,1.22-1.09,2.1.09.46.35.97.67,1.32,1.64,1.77,4.38-1.01,3.31-2.88Z"/>
            <path class="cls-16" d="M74.4,74.72c-.04-.14-.11-.25-.23-.33-.09-.04-.18-.09-.26-.13-.08-.06-.17-.09-.27-.09-.11-.02-.21-.02-.32,0-.07.02-.15.05-.22.07-.12.05-.22.12-.31.21-.07.05-.12.11-.17.17-.08.08-.13.18-.17.29-.01.07-.03.13-.04.2-.01.13.02.25.09.36.04.08.08.17.12.25.08.12.2.19.33.23.07.01.15.02.22.03.17,0,.33-.03.49-.1.13-.05.25-.13.35-.23.11-.08.19-.18.26-.29.07-.1.11-.21.13-.33.03-.1.03-.21,0-.32Z"/>
            <path class="cls-16" d="M69.83,80.88c-.11-.44-.39-.75-.74-.98,0-.02,0-.04-.02-.05-1.31-1.96-3.73.24-4.1,1.81-.24,1.01.19,2.12,1.26,2.41,1.21.33,2.52-.45,3.2-1.42.34-.49.55-1.16.4-1.76Z"/>
            <path class="cls-16" d="M64.76,87.12c-.87,0-1.67,1.54-.53,1.54.87,0,1.68-1.54.53-1.54Z"/>
            <path class="cls-16" d="M70.5,105.17c-.74,0-1.43,1.31-.45,1.31.74,0,1.43-1.31.45-1.31Z"/>
            <path class="cls-16" d="M67.1,90.65c-.71,0-1.37,1.26-.43,1.26.71,0,1.37-1.26.43-1.26Z"/>
            <path class="cls-16" d="M95.72,57.42c-.03-.26-.37-.56-.61-.61-.4-.07-.8-.09-1.19-.02-.08-.09-.17-.17-.28-.23-.32-.17-.7-.1-.99.1-1.06.74-1.07,2.48.01,3.2.65.43,1.5.3,2.12-.13.39-.27.72-.67.87-1.13.13-.41.11-.78.07-1.19Z"/>
            <path class="cls-16" d="M87.72,63.27c-1,0-1.94,1.78-.61,1.78,1,0,1.94-1.78.61-1.78Z"/>
            <path class="cls-16" d="M80.41,69.75s-.06-.07-.09-.1c.03-.15.03-.34-.08-.46-.05-.05-.09-.09-.14-.14-.12-.08-.25-.11-.39-.11-.05,0-.1,0-.15,0-.21.02-.42.09-.6.22-.27.2-.48.47-.51.81-.02.17.07.44.24.52.14.07.24.11.4.12.1,0,.16,0,.2,0,.07.03.14.05.2.08.05,0,.1.01.15.02.08,0,.17-.01.24-.04.14-.05.29-.13.39-.24.07-.08.14-.18.18-.28.04-.12.05-.31-.04-.41Z"/>
            <path class="cls-16" d="M75.2,50.4c-.03-.06-.06-.12-.09-.19-.09-.12-.2-.19-.34-.23-.09-.02-.18-.03-.27-.04,0,0-.02,0-.03,0-.04,0-.09,0-.13.01-.04,0-.09,0-.13.01-.2.04-.4.13-.56.25-.07.06-.14.12-.22.18,0,0,0,0-.01,0-.07.07-.12.14-.17.22,0,0,0,.01-.01.02-.04.07-.07.15-.11.22,0,0,0,0,0,.01-.04.1-.06.22-.06.33-.01.15.02.28.11.41.05.05.1.1.15.15.13.08.27.12.43.12.13,0,.26-.02.38-.07.14-.03.26-.1.38-.18.12-.08.22-.18.3-.29.02-.02.03-.04.05-.06.02-.01.03-.03.05-.04.09-.09.17-.2.21-.32.04-.07.07-.14.08-.22.03-.1.03-.21,0-.32Z"/>
            <path class="cls-16" d="M114.81,63.01c-.19-.56-.56-1.01-1.15-1.17-.42-.11-.84-.06-1.23.08-.15-.05-.3-.08-.46-.08-.65,0-1.26.37-1.67.85-.81.94-.97,2.55-.04,3.47,1.09,1.07,2.82.82,3.84-.2.73-.72,1.05-1.97.72-2.95Z"/>
            <path class="cls-16" d="M108.42,63.57c-.89,0-1.73,1.59-.54,1.59.89,0,1.73-1.59.54-1.59Z"/>
            <path class="cls-16" d="M101.94,69.27s-.01-.01-.02-.02c-.11-.27-.34-.48-.63-.56-.54-.34-1.21-.53-1.81-.54-1.13-.01-2.52,1.23-1.89,2.4.15.28.36.5.6.66,0,.12.02.23.05.34.09.37.31.7.63.9.68.4,1.47.15,2.09-.22.98-.59,1.78-1.91.97-2.96Z"/>
            <path class="cls-16" d="M85.97,56.07s-.09-.08-.13-.13c-.11-.07-.23-.1-.36-.1-.11,0-.22.01-.32.06-.12.03-.22.08-.32.15-.1.07-.19.15-.25.25-.07.08-.13.17-.16.28-.05.17-.07.38.05.54.04.04.08.08.13.13.11.07.23.1.36.1.11,0,.22-.01.32-.06.12-.03.22-.08.32-.15.1-.07.19-.15.25-.25.07-.08.13-.17.16-.28.05-.17.07-.38-.05-.54Z"/>
            <path class="cls-16" d="M99.54,81.88c-.05-.19-.18-.32-.35-.4-.34-.16-.84-.06-1.12.18-.21.18-.39.35-.54.59-.11.17-.15.34-.22.52-.11.27-.03.6.18.78,0,0,0,.02.02.03.28.35.76.22,1.08.02.07-.05.15-.11.23-.18.07-.05.13-.1.17-.16.03-.03.05-.06.07-.09,0-.01.02-.02.03-.03.04-.05.08-.1.11-.15,0,0,0,0,0,0,0,0,0,0,0,0,.02-.03.04-.05.06-.08.1-.14.15-.29.21-.45.02-.04.04-.08.05-.12.06-.12.06-.33.03-.46Z"/>
            <path class="cls-16" d="M92.08,80.4c-.28-.42-.78-.46-1.22-.32-.25.08-.46.2-.66.37-.27.23-.55.64-.43,1.02,0,0,0,0,.01,0,.03.12.1.22.21.32.09.09.27.13.41.13.05.02.1.05.15.07.42.16,1.02-.12,1.3-.44.27-.31.49-.77.23-1.16Z"/>
            <path class="cls-16" d="M110.64,79.56c0-.07,0-.13-.02-.2-.04-.14-.12-.25-.23-.33-.09-.07-.19-.1-.3-.11-.3-.04-.6.05-.85.23-.15.11-.28.24-.38.39-.09.14-.14.28-.15.44,0,.04,0,.18.02.22,0,.04.04.09.05.11.03.06.03.07.05.11.03.04.12.13.16.15.07.05.16.09.25.12.03.02.07.04.1.06.08.06.17.09.26.09.1.02.2.02.3,0,.21-.04.46-.18.6-.34.13-.15.27-.34.27-.55,0-.15-.04-.28-.13-.38Z"/>
            <g>
              <path class="cls-16" d="M108.1,86.38c-.79-.03-1.6.32-2.12.91-.59.67-1.15,1.99-.21,2.63.08.05.16.09.25.12.21.36.58.62,1.11.65,1.33.06,2.88-1.09,2.93-2.48.04-1.05-.98-1.8-1.96-1.83Z"/>
              <polygon class="cls-16" points="107.77 88.44 107.77 88.44 107.77 88.44 107.78 88.44 107.77 88.44"/>
              <polygon class="cls-16" points="107.78 88.47 107.78 88.47 107.79 88.47 107.78 88.47"/>
            </g>
            <path class="cls-16" d="M101.33,90.61s-.06-.09-.1-.13c-.18-.25-.52-.3-.8-.24-.18.04-.34.11-.49.22-.15.1-.27.23-.37.39l-.09.17c-.1.15-.15.31-.17.49-.01.16.03.31.12.44.2.28.58.33.89.27.39-.08.75-.34.96-.67.17-.27.25-.65.05-.93Z"/>
            <path class="cls-16" d="M118.2,85.22s0,0,0,0c0-.03,0-.07,0-.1-.05-.19-.16-.34-.32-.45-.02-.01-.04-.02-.05-.04-.05-.17-.17-.32-.36-.41-.51-.24-1.07.05-1.45.4-.33.31-.56.75-.52,1.2.02.21.11.38.2.57.33.66,1.29.51,1.81.14.13-.09.26-.21.37-.34.03-.02.06-.04.08-.06.24-.21.46-.6.25-.9Z"/>
            <path class="cls-16" d="M124.2,89.81c-.97,0-1.88,1.73-.59,1.73.97,0,1.88-1.73.59-1.73Z"/>
            <path class="cls-16" d="M128.18,75.48c-.03-.3-.39-.59-.66-.66-.39-.1-.74-.01-1.12.11-.57.19-1.2.67-1.47,1.26-.4.71-.36,1.58.23,2.26.45.52,1.11.33,1.63.03.56-.33,1-.86,1.24-1.46.21-.51.2-1.01.14-1.55Z"/>
            <g>
              <path class="cls-16" d="M140.17,95.31c-.55-.83-1.8-.66-2.55-.27-.24.12-.47.27-.67.44-.29.19-.54.42-.7.73-.25.48-.32,1.03-.2,1.57.11.45.37.9.77,1.15.63.41,1.46.23,2.05-.18.64-.44,1.09-1.13,1.35-1.86.18-.5.27-1.13-.04-1.6Z"/>
              <polygon class="cls-16" points="138.72 96.15 138.72 96.15 138.72 96.15 138.72 96.15 138.72 96.15"/>
            </g>
            <path class="cls-16" d="M137.3,86.77c-.81,0-1.56,1.43-.49,1.43.81,0,1.56-1.43.49-1.43Z"/>
            <path class="cls-16" d="M134.47,101.42c-.02-.05-.05-.1-.07-.15-.03-.03-.06-.06-.09-.09-.04-.02-.08-.04-.12-.06-.05,0-.09-.01-.14-.02-.08,0-.16.01-.23.04-.06.01-.11.04-.15.07-.05.02-.1.06-.14.1-.05.03-.09.07-.12.12-.05.06-.09.13-.12.2-.02.07-.05.13-.07.2-.07.19-.03.42.14.54.09.06.19.09.29.09.09,0,.18-.01.26-.05.09-.02.18-.07.26-.13.11-.07.19-.17.26-.27.06-.09.1-.2.11-.31,0-.1-.02-.2-.07-.28Z"/>
            <path class="cls-16" d="M129.48,122.11c-.57-.67-1.37-.88-2.19-.52-.52.22-1.2.91-.98,1.54.06.18.13.32.23.43,0,.03,0,.05,0,.08.1.61.51,1.11.98,1.48.63.5,1.62-.14,1.97-.66.47-.69.55-1.68-.01-2.34Z"/>
            <path class="cls-16" d="M122.84,110.04c-1.09,0-2.11,1.94-.66,1.94,1.09,0,2.11-1.94.66-1.94Z"/>
            <path class="cls-16" d="M115.93,107.56c0-.09-.02-.17-.08-.24-.04-.04-.08-.08-.12-.12-.11-.07-.22-.1-.35-.1-.15,0-.3,0-.44.03-.17.03-.33.11-.47.2-.13.09-.25.21-.33.34.01-.02-.07.13-.09.19-.05.15-.04.16-.03.29,0,.11,0,.15.09.27.04.05.09.1.14.14.03.02.09.04.09.04.03.01.06.03.1.04.01,0,.03,0,.04.01.04.01.08.02.11.03.05.01.11.02.16.03.1.02.19.02.29,0,.04-.01.08-.02.11-.04.05-.01.09-.03.13-.04.1-.04.2-.1.28-.18.09-.06.16-.14.21-.23.03-.06.06-.11.08-.17.02-.06.03-.11.04-.17.01-.04.02-.08.03-.12.02-.06.03-.12.01-.18Z"/>
            <path class="cls-16" d="M127.92,107.62s-.03-.08-.05-.12c0-.05-.02-.09-.06-.12-.08-.12-.18-.19-.3-.24-.12-.07-.25-.1-.4-.1-.31,0-.67.12-.92.3-.25.19-.51.45-.6.76-.03.1-.04.21-.05.31,0,0,0,.01,0,.02,0,0,0,0,0,0,0,0,0,.01,0,.02,0,0,0,.02,0,.03-.01.05-.02.1-.03.15,0,0,0,0,0,0,0,0,0,0,0,0,0,.08,0,.16.02.23,0,0,0,0,0,0,.06.19.17.32.35.4.04.02.08.03.12.04.01,0,.02.02.03.03.38.28.95.2,1.31-.07.29-.21.53-.5.63-.85.08-.3.05-.54-.05-.78Z"/>
            <path class="cls-16" d="M136.86,125.77c-.11-.16-.25-.28-.5-.35-.62-.16-1.27.18-1.69.62-.78.8-1.03,2.12-.79,3.19.27,1.18,1.39,2.04,2.6,1.82,1.26-.23,2.15-1.51,2.09-2.76-.05-1.11-.67-2.16-1.73-2.52Z"/>
            <path class="cls-16" d="M137.58,136.39c-1.05,0-2.04,1.87-.64,1.87,1.05,0,2.04-1.87.64-1.87Z"/>
            <path class="cls-16" d="M142.11,130.36c-.88,0-1.71,1.57-.54,1.57.88,0,1.71-1.57.54-1.57Z"/>
            <path class="cls-16" d="M153.6,119.14c-.08-.62-.46-1.21-1-1.53-.6-.35-1.23-.38-1.86-.24-.02,0-.04.01-.06.02-.17.04-.35.09-.52.15-.72.25-1.74,1.47-1.1,2.26.26.31.58.47.93.5,0,.02,0,.04,0,.06.08.81.29,1.84,1.3,1.88,1.49.06,2.47-1.8,2.31-3.1Z"/>
            <path class="cls-16" d="M144.45,115.09c-.06-.06-.12-.11-.17-.17-.15-.09-.31-.14-.49-.14-.15,0-.29.02-.43.08-.16.04-.3.11-.43.21-.14.09-.25.2-.35.34-.1.11-.17.24-.22.38-.01.03-.01.07-.02.1-.06.1-.09.21-.1.33-.01.15.02.29.11.41.03.04.07.07.1.11.04.03.06.07.1.1.14.09.32.14.49.14,0,0,0,0,.01,0,.09,0,.19-.02.28-.03.1-.02.2-.05.29-.1.15-.06.29-.15.41-.27.04-.04.09-.07.13-.11,0,0,0-.01.01-.02.17-.19.23-.29.32-.52,0,0,0-.02,0-.02.03-.09.04-.19.06-.28,0-.02,0-.05,0-.07.01-.17-.03-.33-.12-.47Z"/>
            <path class="cls-16" d="M158.27,80.66c-.14-1.12-1.04-2.19-2.11-2.54-.25-.08-.51-.11-.77-.11-.61-.15-1.22.15-1.64.6-.64.48-1.1,1.21-1.18,1.99-.06.6.17,1.13.56,1.53.1.37.25.71.46.99.52.71,1.36.92,2.2.72,1.44-.35,2.68-1.64,2.48-3.19Z"/>
            <path class="cls-16" d="M144.65,79.11c-1.36,0-2.63,2.41-.83,2.41,1.36,0,2.63-2.41.83-2.41Z"/>
            <path class="cls-16" d="M140.19,75.85c.08-.15.15-.3.16-.47,0-.2-.07-.44-.25-.55-.21-.13-.43-.13-.67-.1-.26.04-.48.19-.67.35-.03.03-.06.06-.09.09-.05.03-.11.05-.15.09-.12.09-.22.19-.3.31-.08.12-.14.33-.11.48-.01.22.09.43.28.57.26.2.67.14.95.03.13-.05.23-.12.33-.2.03-.02.07-.04.1-.06.11-.08.23-.2.3-.34.03-.04.06-.08.09-.12.01-.02.02-.05.04-.08Z"/>
            <path class="cls-16" d="M157.66,97.57c-.51-1.04-1.39-2.13-2.63-2.23-.28-.02-.55,0-.81.06-.63-.07-1.27.03-1.88.39-1.19.7-1.73,2.01-1.68,3.36.08,2.39,1.85,5.14,4.55,4.84,1.51-.17,2.7-1.34,3.04-2.79.3-1.29-.02-2.47-.59-3.64Z"/>
            <path class="cls-16" d="M157.91,88.16c-1.04,0-2.02,1.85-.63,1.85,1.04,0,2.02-1.85.63-1.85Z"/>
            <g>
              <path class="cls-16" d="M157.39,117.61s.04-.08.06-.12c-.02.04-.04.08-.06.12.09-.13.16-.26.2-.43.03-.15.04-.21,0-.39-.04-.21-.26-.41-.46-.46-.26-.07-.54-.03-.78.08-.37.17-.72.46-.85.86-.03.08-.04.17-.05.26-.06.1-.11.21-.14.33-.04.21,0,.5.21.61.19.09.28.14.5.14.29,0,.58-.11.81-.27.17-.12.34-.29.45-.48.04-.07.07-.15.11-.22-.04.06-.09.11-.13.17.05-.07.1-.13.14-.19Z"/>
              <path class="cls-16" d="M157.39,117.61s0,.01,0,.02c0,0,0,0,0,0,0,0,0-.01,0-.02h0Z"/>
              <path class="cls-16" d="M157.43,117.57s-.03.04-.05.06c-.02.03-.03.07-.05.1.03-.06.06-.11.09-.16Z"/>
            </g>
            <path class="cls-16" d="M160.03,130.96c-.09-.33-.35-.52-.5-.81-.12-.24-.51-.35-.75-.35-.33,0-.72.13-.98.32-.27.2-.54.47-.64.81-.09.3-.07.54.08.82.06.12.16.23.26.33.02.17.09.31.16.47.06.05.11.11.17.16.1.07.22.11.34.12.23.03.47,0,.68-.1.39-.18.75-.42.98-.79.18-.28.28-.65.19-.98Z"/>
            <path class="cls-16" d="M147.95,109.25c-1.08,0-2.09,1.92-.66,1.92,1.08,0,2.09-1.92.66-1.92Z"/>
            <path class="cls-16" d="M138.3,112.12c-.11-.07-.2-.16-.31-.23,0,0-.07-.03-.13-.06-.3-.56-1.02-.78-1.66-.77-.65.01-1.25.34-1.65.85-.31.4-.55,1.05-.2,1.51.19.26.42.46.67.63.03.31.12.55.43.69.31.14.72.13,1.02-.04.11-.06.22-.13.33-.21.13-.01.26-.03.39-.05.56-.09,1.1-.55,1.34-1.05.2-.43.21-.98-.22-1.27Z"/>
            <path class="cls-16" d="M164.21,139.8c-.81,0-1.56,1.43-.49,1.43.81,0,1.56-1.43.49-1.43Z"/>
            <path class="cls-16" d="M163.32,150.89c-.1-.97-.87-1.34-1.75-1.46-.61-.08-1.32.41-1.66.85-.37.47-.47.97-.2,1.52.03.05.06.1.09.14.05.49.26.92.54,1.35.37.58,1.35.39,1.79.03.72-.58,1.29-1.47,1.19-2.43Z"/>
            <path class="cls-16" d="M167.08,148.36c-1.04,0-2.02,1.85-.63,1.85,1.04,0,2.02-1.85.63-1.85Z"/>
            <path class="cls-16" d="M169.27,143.77c-1.05,0-2.04,1.87-.64,1.87,1.05,0,2.04-1.87.64-1.87Z"/>
            <path class="cls-16" d="M155.77,61.04c-.48-.61-1.34-.52-1.97-.15,0,0-.02.01-.03.02-.05.03-.1.06-.15.09-.01,0-.02.02-.03.02-.12.09-.23.18-.33.29-.4.45-.82,1.07-.68,1.71,0,.1.02.2.04.3.13.53.54.91,1.06,1.05.9.25,1.92-.28,2.38-1.06.46-.78.23-1.59-.3-2.25Z"/>
            <path class="cls-16" d="M146.81,58.13c-.53-.62-1.24-1.06-2.07-1.09-1.21-.05-2.33.75-2.91,1.76-.2.35-.43,1.01-.08,1.36.18.17.34.32.53.45,0,.19,0,.38.05.56.37,1.75,2.64,1.58,3.82.83,1.36-.85,1.72-2.63.66-3.87Z"/>
            <path class="cls-16" d="M147.54,54.29c-1.02,0-1.98,1.82-.62,1.82,1.02,0,1.98-1.82.62-1.82Z"/>
            <path class="cls-16" d="M104.81,56.63c-.1-.06-.21-.13-.31-.19-.12-.07-.28-.14-.42-.19-.02,0-.03-.01-.05-.02-.19-.06-.44-.06-.63-.01-.2.05-.42.13-.6.25-.15.05-.3.11-.43.2-.09.06-.16.13-.23.21-.04.04-.11.13-.13.17,0,.01-.02.02-.03.04-.01.02-.02.03-.03.05-.1.17-.18.38-.19.58-.01.22.05.39.15.57.14.27.42.46.71.54.64.2,1.33-.06,1.85-.42.32-.23.57-.54.65-.93.06-.31,0-.67-.3-.85Z"/>
            <path class="cls-16" d="M115.51,50.77c-.22,0-.44.02-.65.05-.06-.02-.12-.03-.18-.04-.73-.09-1.41.35-1.87.88-.33.38-.52.89-.23,1.3.05.17.16.32.33.43.17.11.36.17.55.21.2.09.42.14.66.14.94-.02,1.62-.65,2.15-1.36.49-.65.12-1.64-.75-1.6Z"/>
            <path class="cls-16" d="M117.56,55.5c-.78,0-1.5,1.38-.47,1.38.78,0,1.5-1.38.47-1.38Z"/>
            <path class="cls-16" d="M132.68,51.61c-1.07-1.93-3.61-1.8-5.37-.98-1.22.32-2.24,1.08-2.41,2.29-.24,1.77,1.29,2.52,2.83,2.43,1.82-.11,3.76-.85,4.88-2.33.31-.41.32-.96.08-1.4Z"/>
            <path class="cls-16" d="M126.95,57.84c-.84,0-1.62,1.49-.51,1.49.84,0,1.62-1.49.51-1.49Z"/>
            <path class="cls-16" d="M139.64,50.79c-.1-.07-.22-.1-.34-.1-.14,0-.28.03-.41.09-.06.02-.12.05-.18.07-.13.06-.24.14-.34.24-.09.09-.15.2-.2.31-.04.1-.04.21-.02.32.03.1.08.18.17.24.04.02.09.05.13.07.1.07.22.1.34.1.14,0,.28-.03.41-.09.26-.11.5-.34.6-.62.08-.23.04-.49-.17-.63Z"/>
            <path class="cls-16" d="M137.25,56.65c0-.11-.03-.22-.1-.31-.06-.12-.15-.16-.26-.21-.06-.04-.13-.06-.21-.06-.02,0-.04,0-.06-.01,0,0-.01,0-.02,0-.07-.02-.14-.03-.21-.03-.15,0-.33.04-.46.1-.08.04-.15.09-.23.13-.08.04-.14.1-.2.17-.14.14-.14.16-.2.3-.06.12-.08.15-.09.32,0,0,0,.02,0,.03,0,.08.01.16.02.24,0,.02,0,.05.01.07,0,.01,0,.02,0,.04.04.15.12.27.25.35.07.04.14.07.22.1.08.01.16.02.24.03.13,0,.26-.02.39-.07.09-.02.18-.06.26-.12.13-.06.25-.15.35-.26.06-.07.11-.15.17-.22.04-.08.07-.15.11-.23.05-.11.06-.23.04-.34Z"/>
            <path class="cls-16" d="M123.62,65.76c-.8-.64-1.85-.82-2.82-.49-.07.02-.15.06-.22.09-1.46-.22-3.25,1.22-2.67,2.87.4,1.13,1.76,1.31,2.78,1.09,1.19-.25,2.45-.94,3.09-2,.31-.52.34-1.16-.16-1.56Z"/>
            <path class="cls-16" d="M117.35,72.47c-.75,0-1.45,1.33-.46,1.33.75,0,1.45-1.33.46-1.33Z"/>
            <path class="cls-16" d="M134.4,66.39c-1.08,0-2.09,1.92-.66,1.92,1.08,0,2.09-1.92.66-1.92Z"/>
            <path class="cls-16" d="M144.92,65.75c-.03-.07-.07-.15-.1-.22-.06-.06-.12-.11-.18-.17-.11-.08-.23-.12-.36-.12-.09-.02-.18-.03-.28,0-.1,0-.2.02-.29.06-.11.02-.2.07-.29.13-.15.07-.28.17-.4.3-.01.02-.02.03-.04.05-.13.16-.28.33-.34.53-.01.05-.05.22-.06.27,0,0,0,0,0,.01,0,.03,0,.06,0,.09-.01.17.03.33.12.47.1.14.23.23.4.28.28.09.58.02.84-.08.05-.02.1-.05.15-.08.1-.05.19-.11.27-.19.15-.13.2-.16.32-.36,0,0,0-.01.01-.02.01-.02.02-.04.04-.05,0,0,.01-.02.02-.03.02-.03.12-.24.13-.27.08-.2.05-.18.06-.28,0-.02,0-.04,0-.06,0-.08-.01-.17-.02-.25Z"/>
            <path class="cls-16" d="M162.33,68.86c-.58-.17-1.31.13-1.7.57-.36.4-.64,1.01-.3,1.52.08.12.18.19.28.26.09.15.19.3.3.43.31.4.91.41,1.34.2.21-.1.41-.24.58-.41.23-.23.34-.51.4-.82.13-.67-.19-1.54-.89-1.75Z"/>
            <path class="cls-16" d="M167.88,62.75c-.04-.13-.1-.26-.18-.38-.01-.02-.02-.03-.03-.05-.04-.1-.1-.19-.18-.25-.18-.18-.44-.28-.7-.28-.63,0-1.27.37-1.6.91-.23.38-.36.84-.24,1.28.06.25.23.46.43.61.19.14.48.23.72.21.05,0,.11-.01.16-.02.41.05.84-.14,1.15-.4.3-.26.49-.59.5-.97.05-.22.06-.46-.02-.68Z"/>
            <path class="cls-16" d="M170.65,70.12c-.08-.1-.17-.2-.27-.28-.03-.02-.05-.04-.08-.07,0,0,0,0,.01.01-.07-.06-.14-.1-.28-.14-.11-.03-.21-.04-.32-.04,0,0,0,0,0,0-.2-.01-.29.03-.46.08-.02,0-.03.01-.05.02-.04.01-.07.02-.11.04,0,0,0,0,.01,0-.11.05-.22.1-.32.17-.08.06-.16.13-.23.2-.02.02-.04.03-.05.05-.12.12-.22.26-.28.41-.06.09-.09.18-.1.29-.04.14-.04.28,0,.42.02.09.08.19.12.28,0,.02.02.04.03.06.04.06.07.09.13.15.07.07.1.1.17.14.12.09.25.13.4.14.15.03.31.03.47-.01.11-.04.22-.07.33-.11.18-.07.33-.17.46-.3.21-.18.41-.41.49-.68.08-.27.1-.58-.08-.82Z"/>
            <path class="cls-16" d="M172.07,77.67c.17-.24.25-.5.16-.72-.03-1.04-2.39-.51-2.16.84,0,.04.01.08.02.11.1.59.62.63,1.13.42.33-.05.66-.25.84-.66Z"/>
            <path class="cls-16" d="M173.61,79.73c-.88,0-1.69,1.56-.53,1.56.87,0,1.69-1.56.53-1.56Z"/>
            <path class="cls-16" d="M174.28,85.29s-.01-.01-.02-.02c0,0,0-.02-.01-.03-.03-.05-.07-.1-.1-.16-.07-.07-.14-.13-.2-.2-.13-.09-.27-.14-.42-.15-.28-.04-.58,0-.84.12-.23.11-.45.26-.63.44-.2.2-.44.6-.43.9,0,.29.05.53.15.79.05.2.16.36.33.47.18.12.38.17.59.17.06,0,.11,0,.17-.01.17.01.34-.02.5-.07.46-.15.8-.48.99-.92.09-.2.19-.48.19-.69,0-.27-.08-.48-.27-.65Z"/>
            <path class="cls-16" d="M175.05,91.95c-1.03,0-2,1.84-.63,1.84,1.03,0,2-1.84.63-1.84Z"/>
            <path class="cls-16" d="M176.74,99.74c-.03-.37-.24-.63-.53-.81-.1-.2-.21-.39-.35-.57-.34-.43-.9-.46-1.39-.3-.58.19-1.04.62-1.27,1.18-.27.65-.33,1.43.3,1.91.18.14.4.24.63.3,0,0,0,.01.01.02.4.47,1.05.32,1.51.03.27-.17.5-.38.66-.63.29-.31.47-.69.44-1.12Z"/>
            <path class="cls-16" d="M176.97,106.33c-.79,0-1.52,1.4-.48,1.4.79,0,1.52-1.4.48-1.4Z"/>
            <path class="cls-16" d="M178.85,114.91s0-.04,0-.07c0-.04.02-.09.02-.13.03-.46-.19-.79-.41-1.18-.15-.3-.47-.4-.81-.4-.21-.31-.74-.39-1.12-.07-.55.46-.93.99-1.01,1.72-.08.63.17,1.22.48,1.76.2.36.73.4,1.08.33.46-.09.93-.41,1.17-.82.19-.32.43-.6.54-.96.01-.05.02-.09.03-.14,0-.01,0-.03,0-.04Z"/>
            <g>
              <path class="cls-16" d="M183.34,130.91c-.24-.53-.79-.57-1.29-.5-.41.05-.81.33-1.08.66-.03.02-.05.03-.08.05-.39.25-.6.72-.61,1.17,0,.16,0,.34.05.52,0,.02,0,.04.01.06,0,0,0,0,0,0,.05.18.15.35.3.44.42.25.93.17,1.35-.07.08-.04.16-.07.24-.12,0,0,.04-.02.08-.05.01,0,.01,0,.02,0,0,0-.01,0-.01,0,.05-.03.1-.06.14-.08.52-.26.96-.73,1-1.32.02-.27-.02-.51-.13-.75Z"/>
              <path class="cls-16" d="M182.33,133.05s.04-.01,0,0h0Z"/>
            </g>
            <path class="cls-16" d="M180.4,125.12c-.94,0-1.83,1.68-.57,1.68.94,0,1.83-1.68.57-1.68Z"/>
            <path class="cls-16" d="M161.86,53.84s-.05-.1-.08-.14c-.06-.06-.11-.11-.17-.17-.07-.03-.15-.07-.22-.1-.09-.01-.17-.03-.26-.04-.15,0-.29.02-.43.08-.1.02-.2.07-.29.13-.1.04-.19.11-.27.19-.09.06-.16.14-.22.23-.1.11-.17.24-.22.38-.03.07-.06.13-.08.2-.06.18-.08.36-.03.54.05.18.14.31.29.42.16.1.33.15.52.15.16,0,.31-.02.46-.08.17-.04.32-.12.46-.22.19-.13.35-.3.47-.49.11-.17.17-.35.19-.55.01-.18-.03-.35-.13-.5Z"/>
            <path class="cls-16" d="M147.64,88.09c0-.09-.01-.18-.07-.25-.04-.13-.12-.23-.24-.3-.08-.04-.16-.08-.24-.11-.09-.01-.19-.03-.28-.04-.1.01-.21.02-.31.03-.05,0-.09.03-.13.04-.07,0-.14.02-.2.05-.13.03-.25.09-.36.17-.21.16-.29.24-.43.45,0,0,0,.01-.01.02,0,0,0,0,0,0-.04.08-.08.16-.12.24-.03.09-.05.18-.06.28,0,.1,0,.2.03.3.03.08.07.2.13.28.06.06.12.12.19.18.12.08.24.13.38.13.1.03.2.03.3,0,.11,0,.21-.02.31-.07.17-.04.33-.12.47-.23.09-.08.18-.15.27-.23.07-.09.14-.17.2-.26.09-.13.14-.27.16-.42.03-.09.04-.18.02-.27Z"/>
            <path class="cls-16" d="M132.05,87.19c-1.24,0-2.4,2.2-.75,2.2,1.24,0,2.4-2.2.75-2.2Z"/>
            <path class="cls-16" d="M61.03,47.85c0-.09-.01-.16-.06-.23-.04-.12-.11-.21-.22-.28-.22-.14-.52-.19-.77-.11-.22.06-.44.13-.65.21-.1.04-.18.09-.27.14-.19.11-.32.18-.48.36-.14.16-.26.33-.33.53-.03.08-.06.21-.06.29,0,.03.02.24.02.27.01.05.08.2.11.24.05.08.18.19.2.2.1.08.23.12.34.17.17.07.33.06.5.04.1,0,.19-.02.29-.04.1-.03.2-.07.3-.1.16-.07.3-.16.43-.28.19-.16.38-.38.45-.63.01-.04.01-.08.02-.12,0,0,.01-.01.02-.02.04-.09.08-.17.12-.26.05-.13.07-.25.04-.38Z"/>
            <path class="cls-16" d="M65.21,46.49c-1.04,0-2.02,1.85-.63,1.85,1.04,0,2.02-1.85.63-1.85Z"/>
            <path class="cls-16" d="M42,71.51c-.06-.47-.59-.7-1.05-.71-.01-.03-.02-.05-.04-.08-.42-.62-1.48-.13-1.75.38-.49.94-.41,2.01-.08,2.99.16.48.6.67,1.09.63.59-.06,1.06-.41,1.4-.88.47-.64.52-1.59.43-2.34Z"/>
            <path class="cls-16" d="M28.1,54.36c-.93,0-1.81,1.66-.57,1.66.93,0,1.81-1.66.57-1.66Z"/>
            <path class="cls-16" d="M39.67,92.43c-.04-.13-.12-.23-.24-.31-.16-.1-.34-.16-.53-.16-.22,0-.43.04-.63.14-.1.05-.24.12-.33.19-.05.04-.1.08-.15.13-.18.15-.2.16-.36.4-.04.09-.09.19-.13.28-.02.09-.04.19-.06.28,0,.09.02.18.02.27.03.14.1.25.2.33.05.07.13.12.21.15.08.05.17.08.26.08.1.03.2.03.3,0,.02,0,.04,0,.06,0,.16-.02.32-.05.47-.12.22-.1.42-.24.59-.41.07-.09.14-.18.21-.27.11-.17.18-.36.19-.57.02-.14,0-.27-.08-.39Z"/>
            <path class="cls-16" d="M36.67,87.86c-.93,0-1.81,1.66-.57,1.66.93,0,1.81-1.66.57-1.66Z"/>
            <path class="cls-16" d="M62.94,100.55c-.78,0-1.5,1.38-.47,1.38.78,0,1.5-1.38.47-1.38Z"/>
            <path class="cls-16" d="M62.77,93.87c-.89,0-1.73,1.59-.54,1.59.89,0,1.73-1.59.54-1.59Z"/>
            <path class="cls-16" d="M61.22,87.18c-.05-.1-.1-.21-.14-.31-.14-.2-.33-.33-.57-.39-.01,0-.02,0-.03-.01-.08-.16-.22-.28-.38-.36-.37-.17-.72-.08-1.09.04-.35.11-.63.34-.94.53-.61.38-1.04,1.23-.65,1.9.05.09.1.17.15.26.16.26.61.46.9.43.06,0,.12,0,.18,0,.01,0,.03,0,.04,0,.15.03.3.05.45.06.4.02.91-.17,1.23-.41.3-.23.55-.49.71-.83.13-.26.23-.61.13-.9Z"/>
            <path class="cls-16" d="M65.77,108.15c-.02-.09-.05-.17-.07-.26,0-.02,0-.04-.02-.06-.03-.07-.07-.15-.1-.22-.06-.06-.12-.12-.18-.17-.08-.04-.15-.07-.23-.11-.01,0-.02-.01-.04-.01-.02,0-.05,0-.07-.01-.17-.04-.34-.05-.51,0-.15.03-.28.08-.41.16-.31.17-.53.41-.66.74-.12.29-.13.63.07.89l.16.21c.15.19.39.31.64.3.09,0,.18-.02.28-.03.15-.03.29-.09.42-.17.22-.12.44-.3.56-.52.12-.22.22-.48.15-.74Z"/>
            <path class="cls-16" d="M69.26,111.9c-1.24,0-2.4,2.2-.75,2.2,1.24,0,2.4-2.2.75-2.2Z"/>
            <path class="cls-16" d="M74.74,112.2c-.04-.12-.11-.21-.23-.28-.11-.08-.23-.12-.36-.12-.14-.03-.28-.03-.42,0l-.3.1c-.21.09-.39.22-.54.38-.06.08-.13.16-.19.25-.1.16-.16.33-.18.52v.2c-.02.13,0,.25.07.36.04.12.11.21.23.28.11.08.23.12.36.12.14.03.28.03.42,0l.3-.1c.21-.09.39-.22.54-.38.06-.08.13-.16.19-.25.1-.16.16-.33.18-.52v-.2c.02-.13,0-.25-.07-.36Z"/>
            <path class="cls-16" d="M100.27,99.89c0-.09,0-.18-.02-.27-.03-.13-.09-.24-.2-.32-.08-.1-.19-.17-.33-.2-.3-.08-.61-.03-.9.09-.09.04-.22.12-.32.18-.02.01-.04.02-.05.03-.03.02-.06.03-.08.05-.19.13-.27.22-.39.38-.12.16-.18.21-.25.43,0,0,0,.02,0,.03-.05.17-.1.4-.04.58.04.08.07.16.11.24.08.12.18.2.31.24.08.05.17.08.26.08.15.03.3.03.45,0,.1-.03.21-.07.31-.1.1-.06.2-.12.31-.17,0,0,.02-.01.02-.02.06-.03.05-.03.18-.14,0,0,0,0,0,0,0,0,0,0,0,0,.1-.07.18-.15.24-.25.04-.04.07-.08.1-.13.03-.04.06-.08.09-.12,0,0,0-.01.01-.02,0,0,0,0-.01.01.03-.05.06-.11.09-.16.07-.13.12-.26.12-.41Z"/>
            <path class="cls-16" d="M96.44,87.46c-.04-.16-.13-.29-.27-.39-.15-.09-.31-.14-.48-.14-.2,0-.39.04-.58.12-.27.11-.5.29-.7.51-.11.11-.2.24-.26.38-.07.12-.11.25-.12.4-.02.13,0,.25.07.36.04.12.12.22.23.29.08.04.15.07.23.11.18.05.37.05.56.01.1-.03.2-.06.3-.1.21-.09.39-.22.55-.38.03-.03.06-.05.09-.08.16-.15.28-.37.35-.58.06-.17.07-.33.03-.5Z"/>
            <path class="cls-16" d="M81.77,74.23s.01-.06.02-.08c-.01-.13-.02-.25-.03-.38-.04-.19-.14-.35-.29-.47-.12-.15-.28-.25-.48-.29-.23-.1-.67-.07-.91-.02-.16.03-.32.08-.47.15-.16.07-.31.15-.44.25-.13.11-.26.22-.39.33-.2.2-.4.51-.49.78-.13.38-.13.8.11,1.14.07.11.18.2.28.28.35.24.8.26,1.2.18.04,0,.08-.02.12-.03,0,0,0,0,0,0,0,0,0,0,.01,0,0,0,.01,0,.02,0,.05-.01.1-.03.15-.05.09-.03.17-.06.26-.08.14-.08.28-.16.42-.24.12-.07.22-.16.31-.25.14-.11.25-.24.34-.39.05-.11.1-.22.16-.33,0-.02,0-.04.01-.07,0,0,0,0,0,0,0-.02,0-.04.01-.05.02-.07.04-.13.04-.2,0-.04.02-.08.03-.13,0-.01,0-.02,0-.04Z"/>
            <path class="cls-16" d="M191.14,137.82c0-.14-.04-.27-.13-.39-.06-.06-.13-.13-.19-.19-.12-.09-.25-.13-.4-.14-.15-.03-.31-.03-.47.01-.57.14-1.07.54-1.28,1.09-.06.14-.07.28-.05.43,0,.14.04.27.13.39l.15.14s.01.03.02.04c.07.1.16.18.27.21.07.05.15.07.23.07.13.03.27.03.4,0,.2-.05.39-.13.56-.25.13-.09.24-.19.33-.32.07-.08.12-.16.16-.25.03-.04.06-.07.09-.12.05-.1.09-.19.14-.29.06-.14.07-.28.05-.43Z"/>
            <path class="cls-16" d="M198.6,139.3c-1.14,0-2.21,2.03-.69,2.03,1.14,0,2.21-2.03.69-2.03Z"/>
            <path class="cls-16" d="M206.87,139.82c-.03-.08-.07-.15-.1-.23-.06-.06-.12-.12-.18-.17-.08-.04-.15-.07-.23-.11-.14-.04-.28-.05-.42-.02-.1,0-.2.02-.3.06-.16.04-.31.11-.45.22-.07.05-.13.1-.2.14-.11.07-.21.17-.29.28-.08.09-.14.2-.18.32-.06.2-.07.42.06.6.03.05.07.09.1.14l.18.17c.08.04.15.07.23.11.14.04.28.05.42.02.1,0,.2-.02.3-.06.11-.02.21-.07.3-.13.1-.05.2-.11.28-.19.09-.06.17-.14.23-.24.1-.11.18-.24.22-.39.02-.09.04-.18.06-.27,0-.08-.01-.17-.02-.25Z"/>
            <path class="cls-16" d="M212.58,133.97c-.26-.18-.56-.29-.88-.3-.49-.01-.97.21-1.33.52-.34.29-.63.7-.66,1.17-.01.18.02.39.11.56,0,.06.02.11.03.17.11.35.39.55.74.61.22.03.44.02.66-.04.81-.22,1.76-.82,1.81-1.76.02-.39-.17-.7-.48-.92Z"/>
          </g>
          <g>
            <g>
              <path class="cls-12" d="M19.69,5.23S12.12.04,5.88,0C-1.85-.05-2.51,14.86,7.22,17.06l12.47-11.84Z"/>
              <path class="cls-11" d="M3.39,2.77c-.39.24-.68.65-.84,1.09-.35.96-.33,2.16-.3,3.18.05,1.88.58,3.88,1.7,5.41,1.2,1.64,3.12,2.66,5.14,2.85,1.57-1.49,3.32-2.91,4.77-4.53.64-.72.46-.76-.29-1.5-.8-.79-1.6-1.58-2.43-2.33-1.55-1.41-5.02-5.08-7.42-4.32-.11.04-.22.09-.32.15Z"/>
              <g class="cls-6">
                <path class="cls-12" d="M16.32,4.71c-1.54.49-3.04,1.12-4.43,1.95-1.44.86-2.78,1.95-3.92,3.18-1.62,1.73-2.83,3.84-3.54,6.1.81.5,1.74.89,2.8,1.13l12.47-11.84s-.61-.42-1.63-1.02c-.59.15-1.17.31-1.75.5Z"/>
              </g>
            </g>
            <g>
              <path class="cls-12" d="M40.24,5.23S47.81.04,54.06,0c7.73-.05,8.38,14.86-1.34,17.06l-12.47-11.84Z"/>
              <path class="cls-11" d="M56.55,2.77c.39.24.68.65.84,1.09.35.96.33,2.16.3,3.18-.05,1.88-.58,3.88-1.7,5.41-1.2,1.64-3.12,2.66-5.14,2.85-1.57-1.49-3.32-2.91-4.77-4.53-.64-.72-.46-.76.29-1.5.8-.79,1.6-1.58,2.43-2.33,1.55-1.41,5.02-5.08,7.42-4.32.11.04.22.09.32.15Z"/>
              <g class="cls-6">
                <path class="cls-12" d="M43.62,4.71c1.54.49,3.04,1.12,4.43,1.95,1.44.86,2.78,1.95,3.92,3.18,1.62,1.73,2.83,3.84,3.54,6.1-.81.5-1.74.89-2.8,1.13l-12.47-11.84s.61-.42,1.63-1.02c.59.15,1.17.31,1.75.5Z"/>
              </g>
            </g>
            <path class="cls-9" d="M55.95,24.27c0,12.03-11.56,24.34-25.81,24.34S4.33,36.29,4.33,24.27,15.89,2.49,30.14,2.49s25.81,9.75,25.81,21.78Z"/>
            <path class="cls-12" d="M54.41,22.97c0,11.31-10.87,22.89-24.27,22.89S5.87,34.27,5.87,22.97,16.74,2.49,30.14,2.49s24.27,9.17,24.27,20.48Z"/>
            <g>
              <g>
                <path class="cls-8" d="M25.26,26.66c0,2.75-2.23,4.98-4.98,4.98s-4.98-2.23-4.98-4.98,2.23-4.98,4.98-4.98,4.98,2.23,4.98,4.98Z"/>
                <g>
                  <path class="cls-7" d="M24,26.66c0,2.06-1.67,3.72-3.72,3.72s-3.72-1.67-3.72-3.72,1.67-3.72,3.72-3.72,3.72,1.67,3.72,3.72Z"/>
                  <g>
                    <path class="cls-17" d="M23.36,26.65c0,1.7-1.38,3.08-3.08,3.08s-3.08-1.38-3.08-3.08,1.38-3.08,3.08-3.08,3.08,1.38,3.08,3.08Z"/>
                    <path class="cls-8" d="M19.69,25.15c0,.31-.25.57-.57.57s-.57-.25-.57-.57.25-.57.57-.57.57.25.57.57Z"/>
                    <path class="cls-8" d="M18.45,26.53c0,.2-.16.36-.36.36s-.36-.16-.36-.36.16-.36.36-.36.36.16.36.36Z"/>
                  </g>
                </g>
              </g>
              <g>
                <path class="cls-8" d="M44.99,26.66c0,2.75-2.23,4.98-4.98,4.98s-4.98-2.23-4.98-4.98,2.23-4.98,4.98-4.98,4.98,2.23,4.98,4.98Z"/>
                <g>
                  <path class="cls-7" d="M43.73,26.66c0,2.06-1.67,3.72-3.72,3.72s-3.72-1.67-3.72-3.72,1.67-3.72,3.72-3.72,3.72,1.67,3.72,3.72Z"/>
                  <g>
                    <path class="cls-17" d="M43.09,26.65c0,1.7-1.38,3.08-3.08,3.08s-3.08-1.38-3.08-3.08,1.38-3.08,3.08-3.08,3.08,1.38,3.08,3.08Z"/>
                    <path class="cls-8" d="M39.43,25.15c0,.31-.25.57-.57.57s-.57-.25-.57-.57.25-.57.57-.57.57.25.57.57Z"/>
                    <path class="cls-8" d="M38.18,26.53c0,.2-.16.36-.36.36s-.36-.16-.36-.36.16-.36.36-.36.36.16.36.36Z"/>
                  </g>
                </g>
              </g>
            </g>
            <g>
              <path class="cls-16" d="M26.3,11.17s-3.08,5.88-2.48,6.95c.59,1.06,1.87,2.34,2.01,1.77.14-.57-1.21-1.05-.39-3.01.82-1.96,1.67-3.87,2.02-4.16.35-.28,1.35.14,1.28-.92-.07-1.06-.83-1.84-2.44-.64Z"/>
              <path class="cls-16" d="M33.98,11.17s3.08,5.88,2.48,6.95c-.59,1.06-1.87,2.34-2.01,1.77-.14-.57,1.21-1.05.39-3.01s-1.67-3.87-2.02-4.16c-.35-.28-1.35.14-1.28-.92s.83-1.84,2.44-.64Z"/>
            </g>
            <g>
              <path class="cls-16" d="M14.06,24.35c-.06-.36-.39-.55-.73-.58-.17-.01-.35.02-.51.07-.23.07-.45.15-.64.3-.35.27-.65.6-.91.96-.24.34-.48.82-.36,1.25.02.08.06.15.1.22,0,.07,0,.15,0,.22.01.12.14.21.24.24.37.12.8.03,1.14-.13.36-.17.68-.42.93-.71.25-.29.45-.61.6-.96.11-.27.18-.58.13-.87Z"/>
              <path class="cls-16" d="M11.07,29.67c-.02-.07-.06-.14-.12-.17-.03-.02-.07-.04-.1-.05-.04-.01-.08-.02-.12-.02,0,0,0,0,0,0,0,0,0,0,0,0-.02,0-.1,0-.13.01,0,0,0,0-.01,0,0,0,0,0,0,0-.03,0-.1.03-.13.04-.1.04-.16.1-.24.17.04-.03.07-.06.11-.09-.04.03-.08.07-.12.11,0,0-.01.01-.01.02-.04.05-.08.09-.11.14,0,0-.01.02-.01.03-.02.04-.04.09-.06.13,0,.02-.01.04-.02.07,0,.02-.01.04-.01.07,0,.01,0,.02,0,.03,0,0,0,0,0,0,0,.02,0,.03,0,.05,0,.03,0,.06.02.09.01.04.04.08.08.1.03.01.06.03.08.04.03,0,.07,0,.1.01.06,0,.11,0,.16-.03.06-.01.11-.04.16-.08.01,0,.02-.02.04-.03,0,0,0,0,0,0,.05-.01.1-.03.14-.06.06-.03.12-.07.17-.13.05-.06.12-.14.14-.22,0,0,0,0,0,0,0,0,.02-.11.02-.11,0-.04,0-.07,0-.11Z"/>
              <path class="cls-16" d="M13.75,32.52c-.03-.18-.09-.39-.21-.53-.17-.22-.44-.19-.67-.1-.48.17-.8.58-1,1.03-.14.31-.2.67-.23,1.01,0,.1.02.19.07.26,0,.05.02.11.04.16.22.56.94.56,1.37.24.43-.31.61-.82.66-1.33.02-.24,0-.49-.04-.73Z"/>
              <path class="cls-16" d="M11.62,36.42h0c-.02-.07-.06-.12-.11-.16-.03-.02-.07-.04-.11-.05,0,0-.01,0-.02,0-.02,0-.03-.02-.03-.02,0,0,0,0,0,0,0,0,0,0,0,0-.12-.04-.25-.02-.37.03-.12.05-.23.15-.3.26-.04.06-.07.15-.07.22,0,.05,0,.1.02.15,0,.02,0,.03.02.05,0,0,0,0,0,0,0,0,0,.01,0,.02,0,0,0,0,0,.01.01.05.03.08.06.11,0,0,0,0,0,0,0,0,0,0,0,0,.02.02.04.04.06.06.03.01.06.03.08.04.03,0,.07,0,.1.01.04,0,.07,0,.11-.01.06-.01.11-.03.16-.07.04-.02.07-.04.1-.07.03-.02.06-.05.08-.09.02-.02.04-.05.05-.08,0,0,.02-.02.03-.02.06-.06.1-.13.13-.21.02-.07.03-.14.01-.21Z"/>
              <path class="cls-16" d="M16.74,35.19c-.39,0-.75.69-.23.69.39,0,.75-.69.23-.69Z"/>
              <path class="cls-16" d="M21.3,9.65c-.04-.22-.21-.43-.41-.54-.59-.34-1.26-.11-1.8.2-.25.14-.47.33-.67.52-.1.1-.19.2-.28.31-.18.15-.34.33-.48.52-.18.25-.33.56-.35.87-.02.35.16.64.5.76.2.07.42.06.63.03.23-.03.46-.11.67-.2.38-.15.73-.36,1.05-.61.37-.29.76-.63.98-1.06.13-.26.21-.51.16-.8Z"/>
              <path class="cls-16" d="M21.12,12.9c0-.06,0-.11-.03-.16,0-.04-.03-.06-.06-.09-.03-.04-.08-.07-.14-.08-.04,0-.08-.01-.11-.02-.09,0-.17.02-.25.05-.05.02-.11.06-.16.09-.04.03-.08.07-.12.11,0,0-.01,0-.02.01-.05.05-.1.11-.13.17-.02.03-.03.06-.04.09-.02.03-.03.04-.03.07,0,0,0,.01,0,.02,0,.02-.01.04-.02.06,0,.04-.01.07-.02.11v.1s.04.06.05.09c.03.04.07.07.12.09.03.02.06.03.1.03.04,0,.07.01.11,0,.04,0,.08,0,.12-.03.06-.02.12-.04.18-.09.02-.01.03-.02.05-.04.05-.04.11-.08.15-.13.04-.05.09-.1.12-.16,0-.01.02-.03.02-.04,0,0,0,0,0,0,0,0,0,0,0-.01.01-.01.02-.03.03-.04h0s.04-.07.06-.11c0-.04.02-.08.02-.11Z"/>
              <path class="cls-16" d="M14.21,14.31s-.03-.09-.07-.13c-.03-.04-.07-.08-.11-.11-.04-.03-.1-.06-.14-.07-.04-.02-.08-.02-.12-.02-.07,0-.13,0-.2.03-.08.03-.07.02-.14.06-.09.05-.11.07-.2.15-.04.04-.08.09-.11.13,0,0-.01.02-.02.03,0,.01-.01.03-.02.04-.04.07-.07.13-.1.2.01-.03.03-.06.05-.09-.02.04-.04.08-.06.12-.02.05-.02.1-.02.14,0,.05.01.09.04.13.06.07.14.11.23.12.12.07.29.05.42,0,.06-.03.12-.06.17-.11,0,0,.01-.01.02-.02.07-.03.12-.07.17-.12.06-.04.1-.09.14-.16.02-.04.04-.08.06-.12.03-.07.03-.15.01-.23Z"/>
              <path class="cls-16" d="M9.45,16.35c-.09-.26-.29-.48-.56-.55-.42-.1-.85.08-1.14.39-.13.14-.23.3-.3.48-.05.07-.09.14-.12.21-.13.24-.23.52-.24.8,0,.24.06.5.28.63.36.21.78.03,1.11-.17.18-.11.36-.25.51-.4.13-.13.26-.29.35-.45.14-.28.25-.63.14-.94Z"/>
              <path class="cls-16" d="M7.16,19.48s0-.01-.01-.02c0,0,0,0,0-.01,0,0,0-.01,0-.02,0,0,0,0,0,0-.02-.06-.04-.09-.09-.13-.03-.02-.05-.03-.08-.04,0,0-.02,0-.02,0,0,0,0,0-.01,0,0,0,0,0,0,0h-.09s-.06,0-.1,0c-.03.01-.07.02-.1.03-.05.02-.1.05-.14.09-.03.02-.05.05-.07.08-.02.02-.04.05-.05.08-.02.03-.03.06-.03.09-.01.03-.01.06,0,.09,0,.04.01.08.04.12,0,0,.02.02.03.03h0s0,0,0,0c0,0,.02.02.03.03.03.01.05.02.08.04,0,0,0,0,0,0,.03,0,.05.01.08.01.03,0,.05,0,.07,0,0,0,.02,0,.02,0,0,0,0,0,0,0,0,0,0,0,.01,0,0,0,.02,0,.03,0,.04,0,.06-.02.1-.03.07-.03.12-.07.18-.13h0s.01-.02.02-.02c0,0,0,0,0-.01,0,0,0,0,0,0,.02-.01.03-.03.05-.05.02-.02.04-.05.05-.08,0-.02,0-.04.01-.05,0-.02,0-.03,0-.05Z"/>
              <path class="cls-16" d="M11.68,17.69s-.03-.06-.06-.08c-.03-.02-.07-.03-.1-.04-.04,0-.08,0-.12,0-.03,0-.06.02-.08.03-.06.03-.11.06-.15.11-.02.02-.04.05-.05.07-.03.05-.05.09-.05.15v.09s0,.07.02.1c.01.03.03.06.06.08.03.02.07.03.1.04.04,0,.08,0,.12,0,.03,0,.06-.02.08-.03.06-.03.11-.06.15-.11.02-.02.04-.05.05-.07.03-.05.05-.09.05-.15v-.09s0-.07-.02-.1Z"/>
            </g>
            <g>
              <path class="cls-16" d="M46.74,25.22c.15.36.35.67.6.96.26.3.57.55.93.71.34.16.77.25,1.14.13.1-.03.23-.12.24-.24,0-.07,0-.15,0-.22.04-.07.08-.14.1-.22.12-.43-.13-.91-.36-1.25-.25-.36-.55-.7-.91-.96-.2-.15-.41-.23-.64-.3-.16-.05-.34-.08-.51-.07-.34.02-.67.21-.73.58-.05.3.01.6.13.87Z"/>
              <path class="cls-16" d="M49.6,29.78s.02.11.02.11c0,0,0,0,0,0,.02.08.09.16.14.22.05.05.11.1.17.13.04.03.09.05.14.06,0,0,0,0,0,0,.01,0,.02.02.04.03.05.04.1.06.16.08.05.02.11.03.16.03.03,0,.07,0,.1-.01.03-.01.06-.03.08-.04.04-.03.07-.06.08-.1.02-.03.03-.06.02-.09,0-.02,0-.03,0-.05,0,0,0,0,0,0,0-.01,0-.02,0-.03,0-.02,0-.04-.01-.07,0-.03,0-.04-.02-.07-.02-.04-.04-.09-.06-.13,0,0,0-.02-.01-.03-.03-.05-.07-.1-.11-.14,0,0,0-.01-.01-.02-.04-.04-.08-.07-.12-.11.04.03.07.06.11.09-.08-.07-.14-.13-.24-.17-.03-.01-.1-.03-.13-.04,0,0,0,0,0,0,0,0,0,0-.01,0-.02,0-.1-.01-.13-.01,0,0,0,0,0,0,0,0,0,0,0,0-.04,0-.08,0-.12.02-.04,0-.07.03-.1.05-.06.04-.1.11-.12.17,0,.04-.01.07,0,.11Z"/>
              <path class="cls-16" d="M46.89,33.26c.05.51.24,1.02.66,1.33.43.31,1.16.32,1.37-.24.02-.05.03-.1.04-.16.05-.07.08-.16.07-.26-.03-.34-.09-.69-.23-1.01-.2-.45-.53-.86-1-1.03-.23-.08-.5-.11-.67.1-.11.15-.17.35-.21.53-.04.24-.06.49-.04.73Z"/>
              <path class="cls-16" d="M49.07,36.63c.03.08.07.15.13.21,0,0,.02.02.03.02.01.03.03.05.05.08.02.03.05.06.08.09.03.03.06.05.1.07.05.03.1.05.16.07.04,0,.07,0,.11.01.03,0,.07,0,.1-.01.03-.01.06-.03.08-.04.03-.02.05-.04.06-.06,0,0,0,0,0,0,0,0,0,0,0,0,.03-.03.05-.07.06-.11,0,0,0,0,0-.01,0,0,0-.01,0-.02,0,0,0,0,0,0,0-.02.01-.03.02-.05.01-.05.02-.1.02-.15,0-.07-.04-.16-.07-.22-.07-.11-.18-.21-.3-.26-.11-.05-.25-.07-.37-.03,0,0,0,0,0,0,0,0,0,0,0,0,0,0-.02,0-.03.02,0,0-.01,0-.02,0-.04,0-.07.02-.11.05-.06.04-.1.09-.11.16h0c-.02.07-.01.14.01.21Z"/>
              <path class="cls-16" d="M43.94,35.19c.39,0,.75.69.23.69-.39,0-.75-.69-.23-.69Z"/>
              <path class="cls-16" d="M39.53,10.45c.21.43.61.77.98,1.06.32.25.67.46,1.05.61.21.09.44.17.67.2.21.03.43.04.63-.03.33-.12.52-.4.5-.76-.02-.31-.17-.63-.35-.87-.14-.19-.3-.36-.48-.52-.09-.11-.18-.22-.28-.31-.2-.2-.42-.38-.67-.52-.54-.31-1.21-.54-1.8-.2-.19.11-.36.31-.41.54-.05.29.03.55.16.8Z"/>
              <path class="cls-16" d="M39.59,13.01s.03.08.06.11h0s.02.03.03.04c0,0,0,0,0,.01,0,0,0,0,0,0,0,.01.02.03.02.04.03.06.08.1.12.16.04.05.1.09.15.13.02.01.03.03.05.04.05.04.11.07.18.09.04.02.08.03.12.03.04,0,.07,0,.11,0,.04,0,.07,0,.1-.03.05-.02.09-.05.12-.09.01-.03.03-.06.04-.09v-.1s0-.07-.01-.11c0-.02-.01-.04-.02-.06,0,0,0-.01,0-.02,0-.03-.02-.04-.03-.07-.01-.03-.03-.06-.04-.09-.03-.06-.08-.12-.13-.17,0,0-.01,0-.02-.01-.04-.04-.08-.07-.12-.11-.05-.04-.11-.07-.16-.09-.08-.04-.16-.05-.25-.05-.04,0-.08.01-.11.02-.06.01-.1.04-.14.08-.03.02-.05.05-.06.09-.03.05-.04.1-.03.16,0,.04.02.08.02.11Z"/>
              <path class="cls-16" d="M46.48,14.54s.04.08.06.12c.04.06.08.11.14.16.05.05.11.09.17.12,0,0,.01.01.02.02.05.05.1.08.17.11.12.05.29.08.42,0,.09,0,.17-.05.23-.12.03-.04.04-.08.04-.13,0-.05,0-.1-.02-.14-.02-.04-.04-.08-.06-.12.01.03.03.06.05.09-.03-.07-.07-.14-.1-.2,0-.01-.01-.03-.02-.04,0,0-.01-.02-.02-.03-.03-.04-.07-.09-.11-.13-.09-.09-.11-.1-.2-.15-.07-.04-.06-.04-.14-.06-.06-.03-.13-.04-.2-.03-.04,0-.08,0-.12.02-.04.01-.1.04-.14.07-.04.03-.08.07-.11.11-.03.04-.05.09-.07.13-.02.08-.01.15.01.23Z"/>
              <path class="cls-16" d="M51.23,16.35c.09-.26.29-.48.56-.55.42-.1.85.08,1.14.39.13.14.23.3.3.48.05.07.09.14.12.21.13.24.23.52.24.8,0,.24-.06.5-.28.63-.36.21-.78.03-1.11-.17-.18-.11-.36-.25-.51-.4-.13-.13-.26-.29-.35-.45-.14-.28-.25-.63-.14-.94Z"/>
              <path class="cls-16" d="M53.52,19.48s0-.01.01-.02c0,0,0,0,0-.01,0,0,0-.01,0-.02,0,0,0,0,0,0,.02-.06.04-.09.09-.13.03-.02.05-.03.08-.04,0,0,.02,0,.02,0,0,0,0,0,.01,0,0,0,0,0,0,0h.09s.06,0,.1,0c.03.01.07.02.1.03.05.02.1.05.14.09.03.02.05.05.07.08.02.02.04.05.05.08.02.03.03.06.03.09.01.03.01.06,0,.09,0,.04-.01.08-.04.12,0,0-.02.02-.03.03,0,0,0,0,0,0h0s-.02.02-.03.03c-.03.01-.05.02-.08.04,0,0,0,0,0,0-.03,0-.05.01-.08.01-.03,0-.05,0-.07,0,0,0-.02,0-.02,0,0,0,0,0,0,0,0,0,0,0-.01,0,0,0-.02,0-.03,0-.04,0-.06-.02-.1-.03-.07-.03-.12-.07-.18-.13h0s-.01-.02-.02-.02c0,0,0,0,0-.01,0,0,0,0,0,0-.02-.01-.03-.03-.05-.05-.02-.02-.04-.05-.05-.08,0-.02,0-.04-.01-.05,0-.02,0-.03,0-.05Z"/>
              <path class="cls-16" d="M49,17.69s.03-.06.06-.08c.03-.02.07-.03.1-.04.04,0,.08,0,.12,0,.03,0,.06.02.08.03.06.03.11.06.15.11l.05.07s.05.09.05.15v.09s0,.07-.02.1c-.01.03-.03.06-.06.08-.03.02-.07.03-.1.04-.04,0-.08,0-.12,0-.03,0-.06-.02-.08-.03-.06-.03-.11-.06-.15-.11-.02-.02-.04-.05-.05-.07-.03-.05-.05-.09-.05-.15v-.09s0-.07.02-.1Z"/>
            </g>
            <path class="cls-10" d="M39.39,32.26c-.11,0-.21-.02-.31-.08-9.32-4.84-18.19-.06-18.28,0-.33.18-.75.06-.93-.27-.18-.33-.06-.74.27-.93.39-.21,9.59-5.19,19.57,0,.33.17.47.59.29.92-.12.23-.36.37-.61.37Z"/>
            <g>
              <path class="cls-18" d="M41,37.98c-.32-2.54-3.49-5.26-5.84-7.36-2.51-2.25-4.25-2.29-5.02-2.14-.77-.15-2.51-.11-5.02,2.14-2.35,2.1-5.52,4.83-5.84,7.36-.32,2.54,2.13,8.93,4.2,10.29,1.68,1.11,3.96,1.57,6.66,1.41,2.7.17,4.98-.29,6.66-1.41,2.06-1.37,4.52-7.76,4.2-10.29Z"/>
              <path class="cls-17" d="M20.58,20.26s5.29,2.38,5.99,3.31c.7.93.84,5.84.38,5.8-.46-.04-7.11,7.42-6.99,8.89.12,1.46,1.75,6.05,2.3,6.66.54.6.81,2.04-.35,1.57-1.16-.48-2.39-6.27-2.68-8.6-.29-2.33,6.96-7.89,6.96-9.76s-.48-4.21-.72-4.55c-.06-.09-3.22-1.23-4.11-1.31-2.53-.22-4.69.68-4.69.68,0,0,3.61-2.8,3.92-2.68Z"/>
              <path class="cls-17" d="M39.71,20.26s-5.29,2.38-5.99,3.31c-.7.93-.84,5.84-.38,5.8.46-.04,7.11,7.42,6.99,8.89-.12,1.46-1.75,6.05-2.3,6.66-.54.6-.81,2.04.35,1.57,1.16-.48,2.39-6.27,2.68-8.6.29-2.33-6.96-7.89-6.96-9.76s.48-4.21.72-4.55c.06-.09,3.22-1.23,4.11-1.31,2.53-.22,4.69.68,4.69.68,0,0-3.61-2.8-3.92-2.68Z"/>
            </g>
            <g>
              <g>
                <path class="cls-1" d="M30.14,40.21c-.15,0-.27-.12-.27-.27v-5.6c0-.15.12-.27.27-.27s.27.12.27.27v5.6c0,.15-.12.27-.27.27Z"/>
                <path class="cls-1" d="M26.36,43.82c-.13,0-.24-.09-.27-.22-.03-.15.06-.29.21-.32,1.07-.23,3.57-1.04,3.57-3.68,0-.15.12-.27.27-.27s.27.12.27.27c0,2.11-1.49,3.69-4,4.22-.02,0-.04,0-.06,0Z"/>
                <path class="cls-1" d="M33.92,43.82s-.04,0-.06,0c-2.5-.53-4-2.11-4-4.22,0-.15.12-.27.27-.27s.27.12.27.27c0,2.64,2.49,3.46,3.57,3.68.15.03.24.18.21.32-.03.13-.14.22-.27.22Z"/>
              </g>
              <path class="cls-15" d="M36.17,35.18c-.06-.95-2.38-1-2.99-1.05-1.88-.16-3.78-.15-5.67-.03-.66.04-3.33.06-3.4,1.08-.09,1.4,2.17,3.24,5.3,3.68.18.03.38.05.58.07v.02s.02,0,.03,0c.02,0,.07,0,.12,0,.05,0,.1,0,.12,0,0,0,.02,0,.02,0v-.02c.21-.02.4-.04.59-.07,3.12-.44,5.38-2.28,5.3-3.68Z"/>
            </g>
            <g>
              <g>
                <path class="cls-1" d="M35.66,39.46c-.06,0-.11-.04-.13-.09-.02-.07.01-.15.08-.17.09-.03,2.13-.73,3.77-.46.07.01.12.08.11.16-.01.07-.08.13-.16.11-1.57-.26-3.61.44-3.63.45-.01,0-.03,0-.04,0Z"/>
                <path class="cls-1" d="M39.15,40.64s-.04,0-.06-.01c-1.59-.77-3.39-.51-3.41-.5-.08.01-.14-.04-.16-.11-.01-.07.04-.14.11-.16.08-.01,1.91-.28,3.57.53.07.03.1.11.06.18-.02.05-.07.08-.12.08Z"/>
                <path class="cls-1" d="M38.54,41.99s-.05,0-.08-.02c-1.38-.91-2.79-.93-2.8-.93-.08,0-.14-.06-.14-.14s.06-.14.14-.14c.06,0,1.5.01,2.95.97.06.04.08.13.04.19-.03.04-.07.06-.11.06Z"/>
              </g>
              <g>
                <path class="cls-1" d="M24.62,39.46s-.03,0-.04,0c-.02,0-2.06-.71-3.63-.45-.07.01-.14-.04-.16-.11s.04-.14.11-.16c1.64-.27,3.68.43,3.77.46.07.02.11.1.08.17-.02.06-.07.09-.13.09Z"/>
                <path class="cls-1" d="M21.13,40.64c-.05,0-.1-.03-.12-.08-.03-.07,0-.15.06-.18,1.66-.81,3.5-.54,3.57-.53.07.01.13.08.11.16-.01.07-.08.12-.16.11-.02,0-1.83-.27-3.41.5-.02,0-.04.01-.06.01Z"/>
                <path class="cls-1" d="M21.75,41.99s-.09-.02-.11-.06c-.04-.06-.02-.15.04-.19,1.46-.96,2.89-.97,2.95-.97.08,0,.14.06.14.14,0,.08-.06.14-.14.14-.01,0-1.42.01-2.8.93-.02.02-.05.02-.07.02Z"/>
              </g>
            </g>
          </g>
        </g>
      </g>
    </g>
  </g>
</svg>